
<svg xmlns="http://www.w3.org/2000/svg" version="1.1" xmlns:xlink="http://www.w3.org/1999/xlink" preserveAspectRatio="none" x="0px" y="0px" width="80px" height="80px" viewBox="0 0 80 80">
<defs/>

<g id="Layer_1">
<g transform="matrix( 1, 0, 0, 1, 0,0) ">
<g>
<path stroke="#FFFFFF" stroke-width="1.8" stroke-linejoin="miter" stroke-linecap="butt" stroke-miterlimit="3" fill="none" d="
M 60 23.8
Q 64.1 23.9 64.2 26.85
L 64.2 38.85
Q 59.55 49.2 53.95 48 53.45 47.9 52.85 47.7
L 52.75 47.9
Q 47.6 54.4 42.3 54.9
L 42.3 57.75
Q 42.7 60.6 45.45 61
L 49.2 61
Q 53.35 63.1 49.2 66.4
L 30.9 66.4
Q 26.65 63.1 30.9 61
L 34.5 61
Q 37.4 60.6 37.85 57.75
L 37.85 54.9
Q 32.4 54.4 27.35 47.9
L 27.25 47.7
Q 26.65 47.9 26.15 48 20.55 49.2 15.9 38.85
L 15.9 26.85
Q 16 23.9 20.05 23.8
L 27.25 23.8 27.25 20.2 52.85 20.2 52.85 23.8 60 23.8 Z
M 52.85 43.85
Q 57.25 42.95 59.25 38.05
L 59.25 29.3 52.85 29.3 52.85 43.85 Z
M 27.25 29.3
L 27.25 43.85
Q 22.8 42.95 20.95 38.05
L 20.95 29.3 27.25 29.3 Z"/>
</g>
</g>
</g>
</svg>
