
<svg xmlns="http://www.w3.org/2000/svg" version="1.1" xmlns:xlink="http://www.w3.org/1999/xlink" preserveAspectRatio="none" x="0px" y="0px" width="145px" height="185px" viewBox="0 0 145 185">
<defs>
<linearGradient id="Gradient_1" gradientUnits="userSpaceOnUse" x1="-63.4125" y1="130.9" x2="55.31250000000001" y2="130.9" spreadMethod="pad">
<stop  offset="0%" stop-color="#FFFFFF"/>

<stop  offset="100%" stop-color="#FFC820"/>
</linearGradient>

<linearGradient id="Gradient_2" gradientUnits="userSpaceOnUse" x1="-52.8" y1="9.05" x2="188.60000000000002" y2="9.05" spreadMethod="pad">
<stop  offset="0%" stop-color="#FFFFFF"/>

<stop  offset="100%" stop-color="#FFC820"/>
</linearGradient>
</defs>

<g id="Layer_1">
<g transform="matrix( 1, 0, 0, 1, 0,0) ">
<g>
<g>
<path fill="#FFFFFF" stroke="none" d="
M 145 0
L 0 0 0 185 145 185 145 0 Z"/>
</g>
</g>
</g>

<g transform="matrix( 1, 0, 0, 1, 0,0) ">
<g>
<g>
<path fill="url(#Gradient_1)" stroke="none" d="
M 57.05 138.95
L 57.05 125.5 0 125.5 0 138.95 57.05 138.95 Z"/>
</g>
</g>
</g>

<g transform="matrix( 1, 0, 0, 1, 0,0) ">
<g>
<g>
<path fill="#FFC30C" stroke="none" d="
M 57.05 125.5
L 57.05 185 145 185 145 125.5 57.05 125.5 Z"/>
</g>
</g>
</g>

<g transform="matrix( 1, 0, 0, 1, 0,0) ">
<g>
<g>
<path fill="#AF8400" stroke="none" d="
M 57.05 125.5
L 57.05 138.95 145 138.95 145 125.5 57.05 125.5 Z"/>
</g>
</g>
</g>

<g transform="matrix( 1, 0, 0, 1, 0,0) ">
<g>
<g>
<path fill="url(#Gradient_2)" stroke="none" d="
M 145 25.4
L 145 0 0 0 0 25.4 145 25.4 Z"/>
</g>
</g>
</g>

<g transform="matrix( 0.3513031005859375, 0, 0, 0.351287841796875, -15.2,8) ">
<g id="Layer_1">
<g transform="matrix( 1, 0, 0, 1, 0,0) ">
<g>
<g>
<path fill="#FFC30C" stroke="none" d="
M 251.65 221.25
L 251.6 221.2 237.45 223.45
Q 236.3 221.55 232.3 218.7 228.25 215.8 223.2 214.8
L 217.1 214.2
Q 212.55 214.2 208.35 215.65 204.15 217.05 200.35 219.95 195.35 223.7 192.2 229.2 189 234.6 187.6 241.7 186.15 249.15 187.05 255.35 187.9 261.55 191.05 266.55 194.2 271.5 198.8 274.6 203.45 277.65 209.5 278.9
L 210.2 278.95 213.4 278.9 214.35 278.7 226 274.75
Q 226.15 277.65 228.05 280.3 229.9 282.95 232.8 284.6
L 248.45 276.15 248.45 276.1
Q 245 273.75 243.8 270.45 242.65 267.15 243.6 262.1
L 251.65 221.25
M 220.85 229.55
L 222.2 229.8
Q 226.1 230.5 228.45 232.55 230.9 234.55 232.2 236.95
L 227.1 263.35
Q 225.85 264 222.5 264.5
L 219.7 264.7 215.6 264.3
Q 209.35 263.05 206.8 257.85 204.2 252.55 205.65 245 207.5 235.5 211.95 232.1 215.4 229.5 219.5 229.5
L 220.85 229.55 Z"/>
</g>
</g>
</g>

<g transform="matrix( 1, 0, 0, 1, 0,0) ">
<g>
<g>
<path fill="#FFC30C" stroke="none" d="
M 405.75 233.95
L 406.6 218.3
Q 402.9 216.95 397.75 215.85 392.6 214.75 388.05 214.5
L 386.15 214.45
Q 381.55 214.45 377.5 215.7 373.4 216.95 370 219.4 366.3 222.1 364.3 225.7 362.3 229.25 362.1 233.75 361.7 241.6 366.15 246.6 368.35 249.05 372.4 250.7 376.45 252.35 382.25 253.1 388.7 254.05 391.3 255.75 393.8 257.45 393.7 259.95 393.45 263.8 390.25 265.15 387.6 266.2 383.65 266.2
L 382 266.2
Q 374.9 265.8 369.65 263.85 364.35 261.75 360.25 259.15
L 360.2 259.15 357.6 271.8 362.3 274.85 369.75 278.65 371.5 279.1
Q 378.4 280.5 383.45 280.8
L 385.3 280.85
Q 390 280.85 394.1 279.55 398.2 278.2 401.6 275.6 405.4 272.7 407.4 268.75 409.4 264.75 409.7 259.75 410.1 251.5 404.65 246.35 401.95 243.75 397.75 242.15 393.55 240.45 387.95 239.8 384.2 239.4 380.95 238.15 377.65 236.8 377.8 233.35 377.9 231.4 380.3 230.1 382.4 228.95 385.85 228.95
L 387 229
Q 392.25 229.25 396.7 230.5 401.25 231.7 405.7 234
L 405.75 233.95 Z"/>
</g>
</g>
</g>

<g transform="matrix( 1, 0, 0, 1, 0,0) ">
<g>
<g>
<path fill="#FFC30C" stroke="none" d="
M 358.25 237
Q 358.25 232.4 356.9 228.65 355.6 224.95 352.95 222.15 347.7 216.45 338.6 216.45
L 331.9 217.25
Q 328.65 218 325.1 220.05
L 317.9 224.15 317.9 193.1 317.85 193.05 300.3 202.6 300.3 281.1 317.85 281.1 317.9 281.05 317.9 239.5
Q 320.15 237.45 323.35 235.7 326.6 233.8 330.9 233.85 335.85 233.85 338.3 236.45 340.65 239 340.7 242.4
L 340.7 281.05 340.75 281.1 358.2 281.1 358.25 281.05 358.25 237 Z"/>
</g>
</g>
</g>

<g transform="matrix( 1, 0, 0, 1, 0,0) ">
<g>
<g>
<path fill="#FFC30C" stroke="none" d="
M 294 220.45
L 293.95 220.4 278.15 223.8 272.8 201.7 272.75 201.7 257.7 209.45 261.05 228 247.25 231.15 248.85 242.3 248.9 242.3 263.85 239.2 270.35 265.3
Q 272.45 273.75 277.8 278.9 283.15 284 291.65 285.3
L 291.7 285.25 301.1 270.55 301.1 270.5
Q 295.7 269.55 291.75 266.05 287.8 262.55 286.2 256.2
L 280.9 234.9 296.7 231.5 296.75 231.45 294 220.45 Z"/>
</g>
</g>
</g>

<g transform="matrix( 1, 0, 0, 1, 0,0) ">
<g>
<g>
<path fill="#FFC30C" stroke="none" d="
M 173 186.05
L 172.9 186.05 141.65 244.85 110.55 186.65 110.65 186.05 110.65 186 110.15 186 110.15 186.05 110.5 186.7 91.1 281 110.05 281 119.7 233.65 139.45 274.15 141.6 274.15 162.9 232 172.5 281 192.5 281 192.5 280.95 173 186.05 Z"/>
</g>
</g>
</g>

<g transform="matrix( 1, 0, 0, 1, 0,0) ">
<g>
<g>
<path fill="#FFC30C" stroke="none" d="
M 317.7 135.85
L 301 136.85 301 194.6 317.7 194.6 317.75 194.55 317.75 135.85 317.7 135.85
M 301 114.25
L 301 129.7 317.7 129.7 317.75 129.65 317.75 114.25 301 114.25 Z"/>
</g>
</g>
</g>

<g transform="matrix( 1, 0, 0, 1, 0,0) ">
<g>
<g>
<path fill="#FFC30C" stroke="none" d="
M 238.15 134.4
L 226.05 139.55
Q 224.7 138.05 220.45 136.05 216.25 134.05 211.3 133.95
L 210.7 133.95
Q 204.75 133.95 199.75 136.1 194.8 138.2 190.85 142.4 186.8 146.7 184.7 152.3 182.6 157.8 182.45 164.6 182.35 171.7 184.2 177.3 186.05 182.85 189.8 186.95 193.55 191.05 198.4 193.1 203.2 195.2 209.1 195.35
L 209.2 195.35 210.2 195.25 212.7 194.7 213.55 194.4 223.75 188.85 224.35 190.55 224.85 191.35 226.6 193.65 228 194.85 230.3 196.1 232.6 196.95 232.65 196.95 233.05 196.85 234.4 195.95 246.15 186.6 246.15 186.55 242.45 184.6 240.4 182.9 239.7 182
Q 238.1 179.05 238.2 174.3
L 238.2 134.4 238.15 134.4
M 213 147.7
L 213.25 147.7
Q 217.05 147.8 219.6 149.25 222.2 150.7 223.8 152.7
L 223.4 177.85
Q 222.3 178.7 219.3 179.7 216.45 180.7 213.25 180.7
L 212.8 180.7
Q 206.8 180.55 203.55 176.2 200.25 171.7 200.35 164.5 200.5 155.35 204.15 151.5 207.7 147.7 213 147.7 Z"/>
</g>
</g>
</g>

<g transform="matrix( 1, 0, 0, 1, 0,0) ">
<g>
<g>
<path fill="#FFC30C" stroke="none" d="
M 294.5 142.4
Q 291 138.1 286.25 135.95 281.55 133.75 275.6 133.75 272.8 133.75 270.75 134.5
L 268.6 135.35
Q 267.4 135.85 266.1 136.5
L 260.65 139.15 260.6 134.4 260.55 134.4 244.25 136.95 244.25 212.1 244.3 212.15 260.5 212.15 260.55 212.1 260.55 192.7
Q 262.65 193.7 265.95 194.35
L 273.35 195
Q 279.2 194.95 284.2 192.8 289.15 190.6 293.25 186.35 297.35 182 299.4 176.45 301.45 170.95 301.5 164.25 301.45 157.6 299.7 152.2 297.95 146.7 294.5 142.4
M 265.1 148.4
Q 267.55 147 271.85 146.95
L 272.1 146.95
Q 278.4 146.95 282.1 151.95 285.85 157 286 164.1 286.15 172.55 282.95 177 279.75 181.4 272.85 181.5
L 272.35 181.55
Q 269 181.5 266.2 180.75
L 265 180.3 263.9 179.7 261.45 177.7 261.45 151.2
Q 262.7 149.8 265.1 148.4 Z"/>
</g>
</g>
</g>

<g transform="matrix( 1, 0, 0, 1, 0,0) ">
<g>
<g>
<path fill="#FFC30C" stroke="none" d="
M 392.25 137.3
Q 387.35 139.6 383.5 144.25 379.6 148.9 377.65 154.85 375.7 160.75 375.7 167.95 375.7 175.7 377.35 181.8 379 187.9 382.3 192.4 385.65 196.9 390.4 199.1 395.1 201.35 401.15 201.35
L 403.05 201.25 405.15 200.85
Q 407.3 200.4 408.9 199.2
L 414.6 195 414.6 199.45
Q 414.55 205.6 410.4 208.2 408.25 209.5 404.15 210.15
L 393.85 210.85 393.85 224.05 408.6 224.05 412.9 223.35 416.8 221.75 418.65 220.7 422.45 217.75
Q 425.2 215.35 426.85 212.7 428.55 210 429.4 207.1
L 430.6 200.85 430.85 135.65 430.8 135.6 427.4 137.1
Q 422.9 138.95 418.4 140.85 415.05 137.8 411 136.4 406.95 135 403.1 135 397.15 135 392.25 137.3
M 392.3 166.45
Q 392.25 160 395.3 155.1 398.4 150.2 405.5 150.2 409.3 150.2 411.5 151.7 413.7 153.1 415.1 155.5
L 415.1 180.95
Q 413.65 183.3 411 184.7 408.3 186 405 186 398.6 186 395.45 180.55 392.3 175.05 392.3 166.45 Z"/>
</g>
</g>
</g>

<g transform="matrix( 1, 0, 0, 1, 0,0) ">
<g>
<g>
<path fill="#FFC30C" stroke="none" d="
M 75.1 125.65
Q 73.1 130.1 73.1 135.65 73.05 140.2 74.5 143.95 75.85 147.6 78.7 150.4 81.55 153.1 85.55 155.35 89.6 157.6 94.85 159.35 103.35 162.15 107.35 164.55 111.3 166.9 111.3 171.15 111.3 175.55 107.5 178.4 103.7 181.2 95.95 181.25 89.25 181.2 82.6 178.65 75.95 176.1 71.85 173.2
L 71.8 173.2 71.8 189.25
Q 76.8 191.95 83.05 193.9 86.2 194.85 90.35 195.35
L 99.6 195.8
Q 106.15 195.75 111.4 194.1 116.65 192.35 120.65 188.95 124.6 185.45 126.6 180.95 128.6 176.45 128.6 170.9 128.6 165.6 126.8 161.55 125 157.55 121.5 154.75 117.95 151.9 113.4 149.6 108.8 147.25 103.3 145.4 94.7 142.6 92.55 140.2 90.4 137.8 90.4 134.1 90.4 130.8 93.6 128.15 96.85 125.45 103.3 125.45 108.4 125.45 111.7 126.95
L 124.2 133.65 124.1 117.25
Q 120.75 114.8 115.4 113 112.75 112.05 108.85 111.6
L 99.9 111.15
Q 94.5 111.15 89.8 112.8 85.05 114.45 81.05 117.85 77.1 121.2 75.1 125.65 Z"/>
</g>
</g>
</g>

<g transform="matrix( 1, 0, 0, 1, 0,0) ">
<g>
<g>
<path fill="#FFC30C" stroke="none" d="
M 177.7 139.05
Q 172.75 133.75 164.2 133.75
L 157.95 134.45
Q 154.9 135.15 151.6 137.05
L 144.85 140.95 144.85 111.8 144.8 111.8 128.45 120.7 128.35 194.3 144.85 194.3 144.85 155.3
Q 146.9 153.35 149.95 151.75 152.95 150 157.05 150 161.65 150 163.95 152.45 166.15 154.9 166.2 158.05
L 166.2 194.3 182.65 194.3 182.65 153
Q 182.6 144.3 177.7 139.05 Z"/>
</g>
</g>
</g>

<g transform="matrix( 1, 0, 0, 1, 0,0) ">
<g>
<g>
<path fill="#FFC30C" stroke="none" d="
M 337.55 135.65
L 337.5 135.6 315.8 141 315.8 141.05 320.15 143.55
Q 320.8 144.1 321.1 144.95
L 321.4 145.9 321.55 146.9 321.65 196.2 338.1 196.2 338.15 196.15 338.15 157.15
Q 339.05 156.35 340.25 155.55
L 342.9 153.75
Q 345.9 151.85 350.35 151.85 355 151.85 357.25 154.35 359.5 156.75 359.5 159.9
L 359.5 196.15 359.55 196.2 375.9 196.2 375.9 154.85
Q 375.9 146.2 371 140.9 366.1 135.6 357.55 135.6 354.35 135.6 351.15 136.4 348 137.15 344.9 138.9
L 337.55 143.3 337.55 135.65 Z"/>
</g>
</g>
</g>
</g>
</g>
</g>
</svg>
