
<svg xmlns="http://www.w3.org/2000/svg" version="1.1" xmlns:xlink="http://www.w3.org/1999/xlink" preserveAspectRatio="none" x="0px" y="0px" width="80px" height="80px" viewBox="0 0 80 80">
<defs/>

<g id="Layer_1">
<g transform="matrix( 1, 0, 0, 1, 0,0) ">
<g>
<g>
<path fill="#FFFFFF" stroke="none" d="
M 38.15 60.25
Q 38.15 60.95 38.65 61.45 39.15 62.05 39.8 62.05 40.5 62.05 41.1 61.45 41.7 60.95 41.7 60.25 41.7 59.55 41.1 58.95 40.5 58.5 39.8 58.5 39.15 58.5 38.65 58.95 38.15 59.55 38.15 60.25 Z"/>
</g>
</g>

<g>
<path stroke="#FFFFFF" stroke-width="1.8" stroke-linejoin="miter" stroke-linecap="butt" stroke-miterlimit="3" fill="none" d="
M 47.45 34.55
L 43.6 37.8 43.6 21.6 23.7 21.6 23.7 56.8 56.05 56.8 56.05 21.6 51.4 21.6 51.4 37.7 47.45 34.55 Z
M 27.75 38.8
L 39.5 38.8
M 27.75 32.85
L 39.5 32.85
M 27.75 26.95
L 39.5 26.95
M 18.45 16.35
L 61.3 16.35 61.3 63.8 18.45 63.8 18.45 56.8 18.45 21.6 18.45 16.35 Z
M 27.75 50.75
L 52 50.75
M 27.75 44.65
L 52 44.65"/>
</g>
</g>
</g>
</svg>
