
<svg xmlns="http://www.w3.org/2000/svg" version="1.1" xmlns:xlink="http://www.w3.org/1999/xlink" preserveAspectRatio="none" x="0px" y="0px" width="80px" height="80px" viewBox="0 0 80 80">
<defs/>

<g id="Layer_1">
<g transform="matrix( 1, 0, 0, 1, 0,0) ">
<g>
<path stroke="#FFFFFF" stroke-width="1.8" stroke-linejoin="miter" stroke-linecap="butt" stroke-miterlimit="3" fill="none" d="
M 54.35 17.85
L 63.4 50.5 52.35 53.6 43.25 20.9 54.35 17.85 Z
M 52.8 23.9
Q 53.05 25.05 52.5 26 52.05 26.9 51 27.25 50.05 27.4 49.1 27 48.15 26.45 47.95 25.35 47.65 24.45 48.15 23.55 48.65 22.55 49.65 22.3 50.65 22 51.65 22.55 52.5 23.05 52.8 23.9 Z
M 36.1 22.4
Q 37.15 22.4 38 23.15 38.75 23.8 38.75 24.9 38.75 25.9 38 26.7 37.15 27.4 36.1 27.4 35.15 27.4 34.2 26.7 33.5 25.9 33.5 24.9 33.5 23.8 34.2 23.15 35.15 22.4 36.1 22.4 Z
M 23.9 23.15
Q 24.65 23.8 24.65 24.9 24.65 25.9 23.9 26.7 23.05 27.4 22 27.4 20.95 27.4 20.2 26.7 19.4 25.9 19.4 24.9 19.4 23.8 20.2 23.15 20.95 22.4 22 22.4 23.05 22.4 23.9 23.15 Z
M 27.85 19.25
L 27.85 53.35 16.2 53.35 16.2 19.25 27.85 19.25 Z
M 27.85 55.7
L 27.85 63.95 16.2 63.95 16.2 55.7 27.85 55.7 Z
M 30.35 55.7
L 42.05 55.7 42.05 63.95 30.35 63.95 30.35 55.7 Z
M 53.25 55.95
L 64.3 52.85 66.55 60.85 55.45 63.95 53.25 55.95 Z
M 42.05 53.35
L 30.35 53.35 30.35 19.25 42.05 19.25 42.05 53.35 Z"/>
</g>
</g>
</g>
</svg>
