
<svg xmlns="http://www.w3.org/2000/svg" version="1.1" xmlns:xlink="http://www.w3.org/1999/xlink" preserveAspectRatio="none" x="0px" y="0px" width="80px" height="80px" viewBox="0 0 80 80">
<defs/>

<g id="Layer_1">
<g transform="matrix( 1, 0, 0, 1, 0,0) ">
<g>
<path stroke="#FFFFFF" stroke-width="1.8" stroke-linejoin="miter" stroke-linecap="butt" stroke-miterlimit="3" fill="none" d="
M 69.25 48.5
Q 54.9 48.55 41.3 53.85
L 41.3 27.25
Q 53.1 21 66.05 21.75
L 69.25 48.5 Z
M 13.95 21.75
L 10.8 48.5
Q 25.05 48.55 38.8 53.85
L 38.8 27.25
Q 26.95 21 13.95 21.75 Z
M 38.8 62.15
L 38.8 56.55
Q 24.7 51.25 10.8 51.15
L 10.8 56.8
Q 25.05 57.3 38.8 62.15 Z
M 41.3 62.15
L 41.3 56.55
Q 55.2 51.25 69.25 51.15
L 69.25 56.8
Q 54.9 57.3 41.3 62.15 Z"/>
</g>
</g>
</g>
</svg>
