
<svg xmlns="http://www.w3.org/2000/svg" version="1.1" xmlns:xlink="http://www.w3.org/1999/xlink" preserveAspectRatio="none" x="0px" y="0px" width="80px" height="80px" viewBox="0 0 80 80">
<defs/>

<g id="Layer_1">
<g transform="matrix( 1, 0, 0, 1, 0,0) ">
<g>
<g>
<path fill="#FFFFFF" stroke="none" d="
M 40.75 56.1
L 40.75 61.75
Q 54.5 56.85 68.95 56.35
L 68.95 50.65
Q 54.8 50.75 40.75 56.1
M 39.3 61.75
L 39.3 56.1
Q 25.1 50.75 11.05 50.65
L 11.05 56.35
Q 25.45 56.85 39.3 61.75
M 39.3 28
Q 27.35 21.7 14.25 22.45
L 11.05 49.45
Q 25.45 49.5 39.3 54.85
L 39.3 28
M 65.7 22.45
Q 52.65 21.7 40.75 28
L 40.75 54.85
Q 54.5 49.5 68.95 49.45
L 65.7 22.45 Z"/>
</g>
</g>
</g>

<g transform="matrix( 1, 0, 0, 1, 0,0) ">
<g>
<g>
<path fill="#FFFFFF" stroke="none" d="
M 80 40
Q 80 23.5 68.15 11.8 56.45 0 40 0 23.45 0 11.75 11.8 0 23.5 0 40 0 56.55 11.75 68.25 23.45 80 40 80 56.45 80 68.15 68.25 80 56.55 80 40
M 66.8 13.15
Q 78.05 24.25 78.05 40 78.05 55.8 66.8 66.9 55.7 78.05 40 78.05 24.2 78.05 13.1 66.9 1.95 55.8 1.95 40 1.95 24.25 13.1 13.15 24.2 1.95 40 1.95 55.7 1.95 66.8 13.15 Z"/>
</g>
</g>
</g>
</g>
</svg>
