
<svg xmlns="http://www.w3.org/2000/svg" version="1.1" xmlns:xlink="http://www.w3.org/1999/xlink" preserveAspectRatio="none" x="0px" y="0px" width="145px" height="185px" viewBox="0 0 145 185">
<defs/>

<g id="Layer_1">
<g transform="matrix( 1, 0, 0, 1, 0,0) ">
<g>
<g>
<path fill="#FFCB04" stroke="none" d="
M 0 0
L 0 185 145 185 145 0 0 0 Z"/>
</g>
</g>
</g>

<g transform="matrix( 0.46063232421875, 0, 0, 0.4602508544921875, 53.15,76.3) ">
<g id="Layer_1">
<g transform="matrix( 1, 0, 0, 1, 0,0) ">
<g>
<g>
<path fill="#000000" fill-opacity="0.15294117647058825" stroke="none" d="
M 63.35 -76.75
Q 63.274609375 -76.7779296875 63.2 -76.85 62.3998046875 -77.2390625 61.6 -77.6 61.546484375 -77.6251953125 61.5 -77.65 50.3681640625 -82.215625 41.5 -74.75 40.1818359375 -75.400390625 38.55 -76.3 38.5080078125 -76.2876953125 38.45 -76.3 32.1609375 -79.365234375 25.4 -77.65 25.3544921875 -77.6138671875 25.3 -77.6 24.2056640625 -77.2603515625 23.2 -76.75 23.1998046875 -76.7380859375 23.15 -76.75 14.497265625 -72.4779296875 11.05 -63.3 10.4544921875 -61.6326171875 9.8 -59.9 7.519921875 -64.4958984375 4.8 -69.05 1.39453125 -74.77421875 -4.85 -77.05 -5.9591796875 -77.5349609375 -7.15 -77.9 -7.212109375 -77.8876953125 -7.3 -77.9 -17.5017578125 -80.182421875 -25 -73.3 -29.006640625 -69.601953125 -30.25 -64.35
L -30.25 -64.35
Q -30.9685546875 -61.07421875 -31.35 -57.9
L -31.35 -57.9
Q -33.950390625 -33.6005859375 -36 -8.85
L -36 -8.8
Q -36.0490234375 -8.111328125 -36.05 -7.4 -42.8544921875 -5.9701171875 -49.25 -3.8 -49.9064453125 -3.61875 -50.5 -3.25 -50.532421875 -3.2255859375 -50.6 -3.2 -57.71171875 1.6087890625 -60.65 9.45 -60.6357421875 9.4751953125 -60.65 9.5 -61.1916015625 11.0716796875 -61.25 12.8 -61.3595703125 14.839453125 -61.4 16.9 -78.8193359375 21.1423828125 -89.6 35.6
L -89.6 35.65
Q -90.3513671875 36.6123046875 -91 37.6
L -91 37.6
Q -101.284765625 53.3783203125 -98.6 72.1
L -98.6 72.15
Q -96.437890625 86.7009765625 -86.5 97.6 -81.43515625 103.1076171875 -75.2 106.9
L -75.2 106.9
Q -70.1517578125 109.946484375 -64.65 111.65 -63.6505859375 119.791796875 -56.25 123.6 -56.0431640625 123.7291015625 -55.8 123.85 -55.7607421875 123.8615234375 -55.75 123.85 -50.363671875 126.2796875 -44.5 125.2
L -44.6 125.2
Q -40.7556640625 124.72421875 -37.75 122.4 -33.3126953125 126.03203125 -27.4 125.9
L -27.35 125.9
Q -27.0216796875 125.9 -26.65 125.9 -26.467578125 125.9041015625 -26.3 125.85 -24.229296875 125.498046875 -21.9 125.75 -10.9533203125 139.9169921875 5.85 146.05 7.74921875 146.7890625 9.7 147.4 9.73984375 147.412109375 9.75 147.4 32.2509765625 153.522265625 53.05 143.45 63.7181640625 138.337109375 71.7 129.45 73.9513671875 127.0564453125 75.8 124.5 82.3240234375 125.071875 88.7 123.8 93.376953125 125.9248046875 98.55 125.35 98.6212890625 125.3388671875 98.65 125.3 99.1998046875 125.2408203125 99.7 125.2
L 99.75 125.2
Q 102.7126953125 124.915625 105.35 123.3 111.598046875 127.0423828125 118.8 125.05 118.8623046875 125.0615234375 118.9 125.05 119.7125 124.7962890625 120.5 124.45 121.0912109375 124.265234375 121.6 124 131.03359375 125.580078125 140.7 123.75 140.7966796875 123.7529296875 140.85 123.7 141.020703125 123.68515625 141.15 123.65 145.677734375 126.1408203125 150.8 126
L 150.85 126
Q 161.311328125 125.934375 165.45 116.65 165.56875 116.5109375 165.65 116.3 168.1994140625 110.2001953125 167.55 103.75 166.35390625 91.987109375 166.2 80.1 166.141796875 76.876953125 164.4 74.05 161.6447265625 69.6490234375 157.15 67.85 161.98046875 59.9537109375 161.4 50.15
L 161.4 50.1
Q 161.348828125 48.95 161.25 47.8 160.9380859375 43.2791015625 159.2 39.1 169.9841796875 35.55390625 177.35 26.7 177.397265625 26.69921875 177.4 26.65 177.975 25.975 178.5 25.25
L 178.45 25.3
Q 186.15546875 16.1212890625 187.5 4
L 187.55 4
Q 189.5326171875 -13.9060546875 178.25 -27.8 170.8599609375 -36.98359375 159.85 -41.05
L 159.8 -41.05
Q 143.6966796875 -46.6599609375 128.25 -39.65 122.939453125 -37.2259765625 118.35 -33.65 111.276171875 -38.505859375 103.3 -41.55 108.0185546875 -47.4712890625 110.35 -54.7
L 110.35 -54.7
Q 110.720703125 -55.844921875 110.85 -57.05 112.0583984375 -69.08046875 102.1 -75.9 97.8453125 -78.8525390625 92.65 -79.3 92.595703125 -79.302734375 92.5 -79.3 82.1876953125 -79.47421875 75.7 -71.15 73.751171875 -68.5677734375 71.95 -65.95 69.1462890625 -70.9794921875 65.05 -75.25
L 65.05 -75.3
Q 64.2927734375 -76.0927734375 63.35 -76.75
M 56.4 -73.55
Q 56.45 -73.55 56.5 -73.5
L 56.55 -73.5
Q 59.4 -72.75 61.5 -71.35
L 61.45 -71.4
Q 62.6 -70.5 64 -68.65 65.25 -67 65.9 -65.6
L 65.95 -65.55
Q 66.45 -64.6 68.9 -59.6 69.75 -57.8 70.5 -56.55 70.65 -56.25 70.95 -56 71.3 -55.9 71.65 -55.95 71.95 -56.15 72.15 -56.4 73.35 -58 75.3 -60.7 75.35 -60.8 75.4 -60.9 79.1 -66.2 79.9 -67.3 79.95 -67.4 80.05 -67.5 80.1 -67.7 80.3 -67.85 80.4 -67.95 80.5 -68.1
L 80.55 -68.1
Q 82.3 -70.5 84.25 -71.65
L 84.3 -71.65
Q 84.4 -71.7 84.45 -71.75 84.5 -71.75 84.55 -71.8 88.25 -74.05 92.35 -73.75
L 92.4 -73.75
Q 95.8 -73.55 98.95 -71.65
L 99 -71.6 99.35 -71.35
Q 99.4 -71.35 99.4 -71.25 102.2 -69.45 103.95 -66.1 104 -66.05 104.05 -65.95 104.05 -65.9 104.1 -65.8 105.85 -62.2 105.5 -58.2
L 105.5 -58.15
Q 105.5 -58.1 105.5 -58 105.4 -57.9 105.4 -57.75 105.05 -54.6 102.8 -50.6 101.85 -49 94.95 -39.9 94.75 -39.65 94.75 -39.3 94.75 -38.95 94.95 -38.65 95.15 -38.35 95.5 -38.25 100.15 -37 104.75 -34.95
L 104.7 -34.95
Q 104.7515625 -34.9484375 104.85 -34.85 104.95 -34.8 105.05 -34.75 112.05 -31.65 118.05 -27.05 118.35 -26.8 118.75 -26.85 119.1 -26.9 119.4 -27.15 122.25 -30 125.85 -32.25 134.8 -37.95 145.35 -37.95 160.65 -37.95 171.45 -27.15 182.2 -16.4 182.2 -1.1 182.15 10.9 175.55 20.2 172.8384765625 23.4623046875 171.45 24.95 163.15 33.2 152.15 35.2 151.75 35.25 151.55 35.5 151.3 35.8 151.3 36.15 151.3 36.5 151.55 36.8 154.85 40.85 155.7 48.25 156.55 56.35 153.95 61.9 153.9 61.95 153.9 62.05 153.85 62.2 153.7 62.45 153.65 62.5 153.6 62.6 151.75 66.6 148.75 69.75 148.3 70.1 147.9 70.5 147.65 70.75 147.65 71.05 147.55 71.35 147.7 71.65 147.85 72 148.2 72.15 148.45 72.3 148.8 72.25 149.1 72.2 149.4 72.2 158.35 72.1 160.75 79.7 160.8 79.9 160.8 80.15
L 160.8 104.5
Q 160.8 104.65 160.85 104.85 161.35 106.2 161.55 108.05 161.55 108.1 161.55 108.2 161.55 108.25 161.55 108.3 161.75 111.05 160.7 113.75 160.65 113.8 160.65 113.9 159.65 116.3 158.1 117.85 158.1 117.9 158.05 117.9 158 117.9 158 117.95 156.6 119.1 155.25 119.75 154.95 119.7 154.7 119.9 153.25 120.25 150.55 120.45
L 150.5 120.45
Q 147.95 120.65 144.5 119.05 143.1 118.45 142.25 117.9 142.05 117.8 141.8 117.75 141.6 117.75 141.35 117.8 137.3 119.15 129.7 119.1 123.95 119.05 121.25 118.25 121.05 118.2 120.8 118.2 120.6 118.25 120.4 118.4 118.1 119.9 114.35 120.15
L 114.3 120.15
Q 109.9 120.4 106.5 117.35 106.3 117.1 106.15 117
L 106.1 116.9
Q 105.9 116.65 105.6 116.55 105.3 116.4 105 116.5 104.6 116.55 104.45 116.85 102.1 119.65 96.95 119.8 93.05 119.85 91.45 118.9
L 91.35 118.85
Q 90.5 118.45 89.85 118.1 89.45 117.9 89.1 118 85.75 118.75 82.3 119
L 82.25 119
Q 79.35 119.2 73.7 118.7 73.45 118.7 73.2 118.8 72.95 118.9 72.8 119.15 67.2 127.6 58.75 133.75 58.4 134 58.05 134.25 43.85 144.15 26.45 144.15 10.7 144.15 -2.65 135.85 -12.4 129.8 -18.65 120.85 -18.8 120.6 -19.05 120.5 -19.3 120.4 -19.55 120.4 -20.45 120.45 -21.65 120.15 -22.4 119.95 -22.5 120 -22.75 119.75 -23.05 119.75 -23.35 119.65 -23.65 119.8 -24.35 120.15 -25.75 120.3 -26.6 120.4 -28.2 120.3 -29.75 120.2 -30.5 120.05 -31.75 119.7 -33.25 118.8
L -33.2 118.8
Q -35.15 117.6 -36 116.15 -36.1 116 -36.2 115.9 -36.4 115.5 -36.45 115.15 -36.5 114.8 -36.7 114.55 -36.9 114.3 -37.2 114.25 -37.55 114.15 -37.85 114.3 -38.15 114.4 -38.3 114.65 -38.4 114.8 -38.5 114.95
L -38.5 114.9
Q -38.95 115.55 -39.45 116.25 -39.6 116.3 -39.65 116.4 -42.2 119.55 -46.45 119.8 -50.9 120.1 -53.35 118.85 -56.1 117.55 -57 116.2
L -58.05 114.4 -58.1 114.35
Q -59.4 111.85 -59.15 108.25 -59.15 107.85 -59.35 107.55 -59.55 107.25 -59.9 107.2 -62.2 106.65 -64.3 105.95 -64.45 105.85 -64.55 105.8 -68.75 104.35 -72.6 102
L -72.6 102.1
Q -72.75 101.95 -72.9 101.85
L -72.9 101.8
Q -77.15 99.15 -80.85 95.5
L -80.9 95.45
Q -93.65 82.7 -93.65 64.65 -93.65 46.65 -80.9 33.9 -70.55 23.5 -56.7 21.6 -56.35 21.55 -56.1 21.25 -55.85 20.95 -55.85 20.6
L -55.85 13.85
Q -55.85 13.8 -55.85 13.75 -56.2 9.7 -51.5 4.9 -51.45 4.8 -51.35 4.7 -47.95 1.15 -45.8 0.5 -45.75 0.5 -45.7 0.45 -43.5 -0.25 -41.85 -0.25 -41.65 -0.25 -41.45 -0.3 -39.6 -0.95 -34.85 -2 -32.6 -2.55 -30.85 -2.85 -30.6 -2.9 -30.35 -3.1 -30.15 -3.3 -30.1 -3.55 -30 -3.85 -30.05 -4.15 -30.65 -6.2 -30.6 -8.6
L -30.6 -8.85
Q -30.45 -12.2 -29.85 -16.8
L -29.9 -16.8 -29.9 -16.9 -29.85 -16.95
Q -29.85 -17.05 -29.85 -17.2
L -26 -57.05
Q -25.95 -57.2 -25.95 -57.35 -24.9 -67.9 -18.8 -71.25 -14.75 -73.55 -10.45 -72.9 -6.7 -72.4 -3.85 -70.5 -1.05 -68.6 1.5 -63.95 1.5 -63.85 1.55 -63.75
L 9.4 -48.1
Q 9.6 -47.75 10.05 -47.6 10.4 -47.4 10.8 -47.65 11.15 -47.8 11.3 -48.2 15.25 -58.65 15.85 -60.5 15.9 -60.65 15.95 -60.8 17.4 -65.4 20.4 -68.4
L 20.45 -68.4
Q 23.75 -72.1 27.95 -72.65 28.05 -72.65 28.2 -72.7 32.35 -73.4 35.55 -71.95 35.6 -71.9 35.7 -71.85 38.35 -70.8 40.8 -67.95 41 -67.75 41.3 -67.65 41.55 -67.55 41.85 -67.65 42.15 -67.75 42.4 -67.95 43.05 -68.8 44.05 -69.7
L 44.05 -69.65
Q 44.75 -70.2 46.15 -71.35
L 46.2 -71.35
Q 50.65 -74.85 56.4 -73.55
M 104.1 -65.9
L 104.15 -65.85 104.2 -65.75 104.1 -65.9 Z"/>

<path fill="#000000" fill-opacity="0.5019607843137255" stroke="none" d="
M 104.15 -65.85
L 104.1 -65.9 104.2 -65.75 104.15 -65.85 Z"/>

<path fill="#000000" fill-opacity="0.30196078431372547" stroke="none" d="
M 56.5 -73.5
Q 56.45 -73.55 56.4 -73.55 50.65 -74.85 46.2 -71.35
L 46.15 -71.35
Q 44.75 -70.2 44.05 -69.65
L 44.05 -69.7
Q 43.05 -68.8 42.4 -67.95 42.15 -67.75 41.85 -67.65 41.55 -67.55 41.3 -67.65 41 -67.75 40.8 -67.95 38.35 -70.8 35.7 -71.85 35.6 -71.9 35.55 -71.95 32.35 -73.4 28.2 -72.7 28.05 -72.65 27.95 -72.65 23.75 -72.1 20.45 -68.4
L 20.4 -68.4
Q 17.4 -65.4 15.95 -60.8 15.9 -60.65 15.85 -60.5 15.25 -58.65 11.3 -48.2 11.15 -47.8 10.8 -47.65 10.4 -47.4 10.05 -47.6 9.6 -47.75 9.4 -48.1
L 1.55 -63.75
Q 1.5 -63.85 1.5 -63.95 -1.05 -68.6 -3.85 -70.5 -6.7 -72.4 -10.45 -72.9 -14.75 -73.55 -18.8 -71.25 -24.9 -67.9 -25.95 -57.35 -25.95 -57.2 -26 -57.05
L -29.85 -17.2
Q -29.85 -17.05 -29.85 -16.95
L -29.9 -16.9 -29.9 -16.8 -29.85 -16.8
Q -30.45 -12.2 -30.6 -8.85
L -30.6 -8.6
Q -30.65 -6.2 -30.05 -4.15 -30 -3.85 -30.1 -3.55 -30.15 -3.3 -30.35 -3.1 -30.6 -2.9 -30.85 -2.85 -32.6 -2.55 -34.85 -2 -39.6 -0.95 -41.45 -0.3 -41.65 -0.25 -41.85 -0.25 -43.5 -0.25 -45.7 0.45 -45.75 0.5 -45.8 0.5 -47.95 1.15 -51.35 4.7 -51.45 4.8 -51.5 4.9 -56.2 9.7 -55.85 13.75 -55.85 13.8 -55.85 13.85
L -55.85 20.6
Q -55.85 20.95 -56.1 21.25 -56.35 21.55 -56.7 21.6 -70.55 23.5 -80.9 33.9 -93.65 46.65 -93.65 64.65 -93.65 82.7 -80.9 95.45
L -80.85 95.5
Q -77.15 99.15 -72.9 101.8
L -72.9 101.85
Q -72.75 101.95 -72.6 102.1
L -72.6 102
Q -68.75 104.35 -64.55 105.8 -64.45 105.85 -64.3 105.95 -62.2 106.65 -59.9 107.2 -59.55 107.25 -59.35 107.55 -59.15 107.85 -59.15 108.25 -59.4 111.85 -58.1 114.35
L -58.05 114.4 -57 116.2
Q -56.1 117.55 -53.35 118.85 -50.9 120.1 -46.45 119.8 -42.2 119.55 -39.65 116.4 -39.6 116.3 -39.45 116.25 -38.95 115.55 -38.5 114.9
L -38.5 114.95
Q -38.4 114.8 -38.3 114.65 -38.15 114.4 -37.85 114.3 -37.55 114.15 -37.2 114.25 -36.9 114.3 -36.7 114.55 -36.5 114.8 -36.45 115.15 -36.4 115.5 -36.2 115.9 -36.1 116 -36 116.15 -35.15 117.6 -33.2 118.8
L -33.25 118.8
Q -31.75 119.7 -30.5 120.05 -29.75 120.2 -28.2 120.3 -26.6 120.4 -25.75 120.3 -24.35 120.15 -23.65 119.8 -23.35 119.65 -23.05 119.75 -22.75 119.75 -22.5 120 -22.4 119.95 -21.65 120.15 -20.45 120.45 -19.55 120.4 -19.3 120.4 -19.05 120.5 -18.8 120.6 -18.65 120.85 -12.4 129.8 -2.65 135.85 10.7 144.15 26.45 144.15 43.85 144.15 58.05 134.25 58.4 134 58.75 133.75 67.2 127.6 72.8 119.15 72.95 118.9 73.2 118.8 73.45 118.7 73.7 118.7 79.35 119.2 82.25 119
L 82.3 119
Q 85.75 118.75 89.1 118 89.45 117.9 89.85 118.1 90.5 118.45 91.35 118.85
L 91.45 118.9
Q 93.05 119.85 96.95 119.8 102.1 119.65 104.45 116.85 104.6 116.55 105 116.5 105.3 116.4 105.6 116.55 105.9 116.65 106.1 116.9
L 106.15 117
Q 106.3 117.1 106.5 117.35 109.9 120.4 114.3 120.15
L 114.35 120.15
Q 118.1 119.9 120.4 118.4 120.6 118.25 120.8 118.2 121.05 118.2 121.25 118.25 123.95 119.05 129.7 119.1 137.3 119.15 141.35 117.8 141.6 117.75 141.8 117.75 142.05 117.8 142.25 117.9 143.1 118.45 144.5 119.05 147.95 120.65 150.5 120.45
L 150.55 120.45
Q 153.25 120.25 154.7 119.9 154.95 119.7 155.25 119.75 156.6 119.1 158 117.95 158 117.9 158.05 117.9 158.1 117.9 158.1 117.85 159.65 116.3 160.65 113.9 160.65 113.8 160.7 113.75 161.75 111.05 161.55 108.3 161.55 108.25 161.55 108.2 161.55 108.1 161.55 108.05 161.35 106.2 160.85 104.85 160.8 104.65 160.8 104.5
L 160.8 80.15
Q 160.8 79.9 160.75 79.7 158.35 72.1 149.4 72.2 149.1 72.2 148.8 72.25 148.45 72.3 148.2 72.15 147.85 72 147.7 71.65 147.55 71.35 147.65 71.05 147.65 70.75 147.9 70.5 148.3 70.1 148.75 69.75 151.75 66.6 153.6 62.6 153.65 62.5 153.7 62.45 153.85 62.2 153.9 62.05 153.9 61.95 153.95 61.9 156.55 56.35 155.7 48.25 154.85 40.85 151.55 36.8 151.3 36.5 151.3 36.15 151.3 35.8 151.55 35.5 151.75 35.25 152.15 35.2 163.15 33.2 171.45 24.95 172.8384765625 23.4623046875 175.55 20.2 182.15 10.9 182.2 -1.1 182.2 -16.4 171.45 -27.15 160.65 -37.95 145.35 -37.95 134.8 -37.95 125.85 -32.25 122.25 -30 119.4 -27.15 119.1 -26.9 118.75 -26.85 118.35 -26.8 118.05 -27.05 112.05 -31.65 105.05 -34.75 104.95 -34.8 104.85 -34.85 104.7515625 -34.9484375 104.7 -34.95
L 104.75 -34.95
Q 100.15 -37 95.5 -38.25 95.15 -38.35 94.95 -38.65 94.75 -38.95 94.75 -39.3 94.75 -39.65 94.95 -39.9 101.85 -49 102.8 -50.6 105.05 -54.6 105.4 -57.75 105.4 -57.9 105.5 -58 105.5 -58.1 105.5 -58.15
L 105.5 -58.2
Q 105.85 -62.2 104.1 -65.8 104.05 -65.9 104.05 -65.95 104 -66.05 103.95 -66.1 102.2 -69.45 99.4 -71.25 99.4 -71.35 99.35 -71.35
L 99 -71.6 98.95 -71.65
Q 95.8 -73.55 92.4 -73.75
L 92.35 -73.75
Q 88.25 -74.05 84.55 -71.8 84.5 -71.75 84.45 -71.75 84.4 -71.7 84.3 -71.65
L 84.25 -71.65
Q 82.3 -70.5 80.55 -68.1
L 80.5 -68.1
Q 80.4 -67.95 80.3 -67.85 80.1 -67.7 80.05 -67.5 79.95 -67.4 79.9 -67.3 79.1 -66.2 75.4 -60.9 75.35 -60.8 75.3 -60.7 73.35 -58 72.15 -56.4 71.95 -56.15 71.65 -55.95 71.3 -55.9 70.95 -56 70.65 -56.25 70.5 -56.55 69.75 -57.8 68.9 -59.6 66.45 -64.6 65.95 -65.55
L 65.9 -65.6
Q 65.25 -67 64 -68.65 62.6 -70.5 61.45 -71.4
L 61.5 -71.35
Q 59.4 -72.75 56.55 -73.5
L 56.5 -73.5
M 40.6 -67.25
Q 40.55 -67.2 40.5 -67.1 40.4 -67.05 40.3 -66.85 40.4 -67.1 40.6 -67.25 Z"/>
</g>
</g>

<g>
<path stroke="#339900" stroke-opacity="0.28627450980392155" stroke-width="0.1" stroke-linejoin="round" stroke-linecap="round" fill="none" d="
M 80.5 -68.1
L 80.55 -68.1
Q 82.3 -70.5 84.25 -71.65
L 84.3 -71.65
Q 84.4 -71.7 84.45 -71.75 84.5 -71.75 84.55 -71.8 88.25 -74.05 92.35 -73.75
L 92.4 -73.75
Q 95.8 -73.55 98.95 -71.65
L 99 -71.6 99.35 -71.35
Q 99.4 -71.35 99.4 -71.25 102.2 -69.45 103.95 -66.1 104 -66.05 104.05 -65.95 104.05 -65.9 104.1 -65.8 105.85 -62.2 105.5 -58.2
L 105.5 -58.15
Q 105.5 -58.1 105.5 -58 105.4 -57.9 105.4 -57.75 105.05 -54.6 102.8 -50.6 101.85 -49 94.95 -39.9 94.75 -39.65 94.75 -39.3 94.75 -38.95 94.95 -38.65 95.15 -38.35 95.5 -38.25 100.15 -37 104.75 -34.95
L 104.7 -34.95
Q 104.7515625 -34.9484375 104.85 -34.85 104.95 -34.8 105.05 -34.75 112.05 -31.65 118.05 -27.05 118.35 -26.8 118.75 -26.85 119.1 -26.9 119.4 -27.15 122.25 -30 125.85 -32.25 134.8 -37.95 145.35 -37.95 160.65 -37.95 171.45 -27.15 182.2 -16.4 182.2 -1.1 182.15 10.9 175.55 20.2 172.8384765625 23.4623046875 171.45 24.95 163.15 33.2 152.15 35.2 151.75 35.25 151.55 35.5 151.3 35.8 151.3 36.15 151.3 36.5 151.55 36.8 154.85 40.85 155.7 48.25 156.55 56.35 153.95 61.9 153.9 61.95 153.9 62.05 153.85 62.2 153.7 62.45 153.65 62.5 153.6 62.6 151.75 66.6 148.75 69.75 148.3 70.1 147.9 70.5 147.65 70.75 147.65 71.05 147.55 71.35 147.7 71.65 147.85 72 148.2 72.15 148.45 72.3 148.8 72.25 149.1 72.2 149.4 72.2 158.35 72.1 160.75 79.7 160.8 79.9 160.8 80.15
L 160.8 104.5
Q 160.8 104.65 160.85 104.85 161.35 106.2 161.55 108.05 161.55 108.1 161.55 108.2 161.55 108.25 161.55 108.3 161.75 111.05 160.7 113.75 160.65 113.8 160.65 113.9 159.65 116.3 158.1 117.85 158.1 117.9 158.05 117.9 158 117.9 158 117.95 156.6 119.1 155.25 119.75 154.95 119.7 154.7 119.9 153.25 120.25 150.55 120.45
L 150.5 120.45
Q 147.95 120.65 144.5 119.05 143.1 118.45 142.25 117.9 142.05 117.8 141.8 117.75 141.6 117.75 141.35 117.8 137.3 119.15 129.7 119.1 123.95 119.05 121.25 118.25 121.05 118.2 120.8 118.2 120.6 118.25 120.4 118.4 118.1 119.9 114.35 120.15
L 114.3 120.15
Q 109.9 120.4 106.5 117.35 106.3 117.1 106.15 117
L 106.1 116.9
Q 105.9 116.65 105.6 116.55 105.3 116.4 105 116.5 104.6 116.55 104.45 116.85 102.1 119.65 96.95 119.8 93.05 119.85 91.45 118.9
L 91.35 118.85
Q 90.5 118.45 89.85 118.1 89.45 117.9 89.1 118 85.75 118.75 82.3 119
L 82.25 119
Q 79.35 119.2 73.7 118.7 73.45 118.7 73.2 118.8 72.95 118.9 72.8 119.15 67.2 127.6 58.75 133.75 58.4 134 58.05 134.25 43.85 144.15 26.45 144.15 10.7 144.15 -2.65 135.85 -12.4 129.8 -18.65 120.85 -18.8 120.6 -19.05 120.5 -19.3 120.4 -19.55 120.4 -20.45 120.45 -21.65 120.15 -22.4 119.95 -22.5 120 -22.75 119.75 -23.05 119.75 -23.35 119.65 -23.65 119.8 -24.35 120.15 -25.75 120.3 -26.6 120.4 -28.2 120.3 -29.75 120.2 -30.5 120.05 -31.75 119.7 -33.25 118.8
L -33.2 118.8
Q -35.15 117.6 -36 116.15 -36.1 116 -36.2 115.9 -36.4 115.5 -36.45 115.15 -36.5 114.8 -36.7 114.55 -36.9 114.3 -37.2 114.25 -37.55 114.15 -37.85 114.3 -38.15 114.4 -38.3 114.65 -38.4 114.8 -38.5 114.95
L -38.5 114.9
Q -38.95 115.55 -39.45 116.25 -39.6 116.3 -39.65 116.4 -42.2 119.55 -46.45 119.8 -50.9 120.1 -53.35 118.85 -56.1 117.55 -57 116.2
L -58.05 114.4 -58.1 114.35
Q -59.4 111.85 -59.15 108.25 -59.15 107.85 -59.35 107.55 -59.55 107.25 -59.9 107.2 -62.2 106.65 -64.3 105.95 -64.45 105.85 -64.55 105.8 -68.75 104.35 -72.6 102
L -72.6 102.1
Q -72.75 101.95 -72.9 101.85
L -72.9 101.8
Q -77.15 99.15 -80.85 95.5
L -80.9 95.45
Q -93.65 82.7 -93.65 64.65 -93.65 46.65 -80.9 33.9 -70.55 23.5 -56.7 21.6 -56.35 21.55 -56.1 21.25 -55.85 20.95 -55.85 20.6
L -55.85 13.85
Q -55.85 13.8 -55.85 13.75 -56.2 9.7 -51.5 4.9 -51.45 4.8 -51.35 4.7 -47.95 1.15 -45.8 0.5 -45.75 0.5 -45.7 0.45 -43.5 -0.25 -41.85 -0.25 -41.65 -0.25 -41.45 -0.3 -39.6 -0.95 -34.85 -2 -32.6 -2.55 -30.85 -2.85 -30.6 -2.9 -30.35 -3.1 -30.15 -3.3 -30.1 -3.55 -30 -3.85 -30.05 -4.15 -30.65 -6.2 -30.6 -8.6
L -30.6 -8.85
Q -30.45 -12.2 -29.85 -16.8
L -29.9 -16.8 -29.9 -16.9 -29.85 -16.95
Q -29.85 -17.05 -29.85 -17.2
L -26 -57.05
Q -25.95 -57.2 -25.95 -57.35 -24.9 -67.9 -18.8 -71.25 -14.75 -73.55 -10.45 -72.9 -6.7 -72.4 -3.85 -70.5 -1.05 -68.6 1.5 -63.95 1.5 -63.85 1.55 -63.75
L 9.4 -48.1
Q 9.6 -47.75 10.05 -47.6 10.4 -47.4 10.8 -47.65 11.15 -47.8 11.3 -48.2 15.25 -58.65 15.85 -60.5 15.9 -60.65 15.95 -60.8 17.4 -65.4 20.4 -68.4
L 20.45 -68.4
Q 23.75 -72.1 27.95 -72.65 28.05 -72.65 28.2 -72.7 32.35 -73.4 35.55 -71.95 35.6 -71.9 35.7 -71.85 38.35 -70.8 40.8 -67.95 41 -67.75 41.3 -67.65 41.55 -67.55 41.85 -67.65 42.15 -67.75 42.4 -67.95 43.05 -68.8 44.05 -69.7
L 44.05 -69.65
Q 44.75 -70.2 46.15 -71.35
L 46.2 -71.35
Q 50.65 -74.85 56.4 -73.55 56.45 -73.55 56.5 -73.5
L 56.55 -73.5
Q 59.4 -72.75 61.5 -71.35
L 61.45 -71.4
Q 62.6 -70.5 64 -68.65 65.25 -67 65.9 -65.6
L 65.95 -65.55
M 40.5 -67.1
Q 40.4 -67.05 40.3 -66.85 40.4 -67.1 40.6 -67.25 40.55 -67.2 40.5 -67.1 Z"/>
</g>
</g>

<g transform="matrix( 1, 0, 0, 1, 0,0) ">
<g>
<g>
<path fill="#FFFFFF" stroke="none" d="
M 53.7 -72.2
Q 49.75 -72.2 47.1 -70.45 44.2 -68.85 42.5 -65.95
L 42.45 -65.95 42.4 -65.8
Q 42.25 -65.7 42.05 -65 41.85 -64.45 41.75 -64.65 38.45 -69.6 34.85 -71
L 34.9 -71
Q 32.1 -72.3 28.4 -71.7
L 28.35 -71.7 28.15 -71.65
Q 24.45 -71.05 21.6 -67.9 18.8 -65.1 17.4 -60.8
L 17.4 -60.75
Q 16.95 -59.25 10.65 -42.7
L 0.15 -63.55
Q -1.95 -67.65 -5.55 -69.85
L -5.6 -69.85
Q -8 -71.35 -10.9 -71.5 -13.5 -71.65 -15.7 -70.8
L -15.5 -70.85
Q -21.55 -68.85 -23.1 -63.85
L -23.1 -63.9
Q -24.25 -60.85 -24.5 -57.5
L -24.5 -57.65 -28.35 -17.15
Q -28.95 -12.55 -29.1 -9.25
L -29.1 -9.1
Q -29.2 -5.1 -27.45 -2.35 -29.3 -2.25 -34.55 -1 -39.65 0.15 -41.4 0.85 -43.05 0.8 -45.3 1.45 -47.2 2.1 -50.45 5.45 -54.5 9.7 -54.3 13.25
L -54.3 22.45
Q -69 23.7 -79.8 34.5 -92.1 46.85 -92.1 64.2 -92.1 81.55 -79.8 93.9
L -79.75 93.95
Q -76.05 97.6 -71.85 100.2
L -71.8 100.25
Q -68.15 102.5 -64.1 103.9 -60.8 105.05 -57.3 105.6 -57.45 106.3 -57.55 107
L -57.55 107.05
Q -58 110.65 -56.4 113.2 -54.75 116.3 -52.35 117.25 -50.65 118.2 -47.25 117.95 -43 117.6 -40.75 114.8
L -40.7 114.75
Q -38.85 112.55 -38.4 109.8 -38.4 109.75 -38.35 109.7
L -38.1 108.45 -37.1 108.45 -37.05 108.75
Q -37.05 108.95 -37 109.3
L -37 109.5
Q -36.7 112.3 -34.9 114.5
L -34.9 114.55
Q -32.75 117.35 -30.05 118
L -29.8 118.1
Q -27.25 118.8 -24.4 117.95
L -24.3 117.95 -23.75 117.7
Q -23.45 117.55 -23.1 117.4 -22.8 117.55 -21.75 118.1 -20.75 118.6 -18.25 118.25 -11.95 127.8 -1.9 134.05 11.1 142.15 26.45 142.15 43.35 142.15 57.1 132.55 57.5 132.25 57.85 132 66.75 125.6 72.25 116.55 78.9 117.25 82.15 117 86.05 116.75 89.75 115.7
L 89.85 115.7
Q 90.75 116.5 92.1 117 93.45 117.85 96.9 117.8 101.3 117.7 103.3 115.35 105.15 113.2 105.3 113
L 107.5 115.7
Q 110.4 118.35 114.2 118.15 118.55 117.85 120.65 115.65 122.05 117.05 129.7 117.1 137.5 117.15 141.35 115.7
L 141.4 115.7 141.95 115.55
Q 142 115.5 142.1 115.45 142.75 116.1 145.1 117.15 148.2 118.6 150.45 118.45 153.1 118.3 154.35 117.9 155.7 117.45 157.05 116.25 158.35 114.95 159.2 112.85 160.15 110.4 160 107.9
L 160 107.75
Q 159.8 105.85 159.3 104.5
L 159.3 79.7
Q 157.2 73.15 149.4 73.25 146.45 73.25 144 75.15 142.9 74.45 141.75 74.05
L 141.25 73.85
Q 140.7 73.7 140.2 73.6 141.85 72.7 143.2 71.8 145.3 70.45 147.55 68.2 150.65 65.1 152.4 61.1
L 152.45 61.1 152.45 61.05
Q 155.05 55.75 154.15 47.95 153.2 39.8 149.05 36 147.65 34.45 146.9 33.7 160.55 33.15 170.35 23.35 172.5 21.2 174.25 18.85
L 174.3 18.8
Q 180.65 9.95 180.7 -1.55 180.7 -16.2 170.35 -26.55 160 -36.9 145.35 -36.9 135.25 -36.9 126.65 -31.45 122.2 -28.65 118.85 -24.85 112.15 -30.45 104.05 -34
L 104.1 -34
Q 97.85 -36.85 91.3 -38.2 100.35 -50.1 101.45 -51.9
L 101.4 -51.85
Q 103.6 -55.6 103.9 -58.65
L 103.9 -58.8 103.95 -58.9
Q 104.25 -62.4 102.7 -65.65
L 102.55 -65.9
Q 101.05 -68.8 98.55 -70.5
L 98.15 -70.75
Q 95.35 -72.5 92.25 -72.65 88.5 -72.95 85.1 -70.8
L 85.05 -70.8
Q 83.2 -69.75 81.5 -67.4 81.4 -67.3 81.35 -67.2
L 81.35 -67.15
Q 81 -66.7 76.5 -60.3 72.15 -54.15 71.4 -53.25 71.35 -53.2 71.3 -53.15 71.15 -53 71.05 -52.85 70.25 -53.85 67.5 -59.4 64.85 -64.9 64.55 -65.4 63.4 -67.7 61.1 -69.5 61.05 -69.55 61 -69.6 58.05 -71.95 54.1 -72.2
L 53.7 -72.2 Z"/>
</g>
</g>
</g>

<g transform="matrix( 1, 0, 0, 1, 0,0) ">
<g>
<g>
<path fill="#813C94" stroke="none" d="
M -4.25 17.7
Q -5.55 14.9 -7.6 12.3 -9.75 9.7 -12.25 8.05 -15.75 5.8 -19.1 5.1 -22.55 4.25 -26.3 4.4 -29.9 4.6 -33.6 5.5 -36.75 6.3 -40.7 7.85 -41.75 7.5 -42.9 7.8 -43.95 8.2 -44.9 8.85 -45.7 9.55 -46.5 10.65 -47.05 11.55 -47.4 12.65
L -47.5 13.25 -47.5 37.45
Q -49 38.25 -49.85 39.6 -50.7 40.85 -50.8 42.4 -50.95 43.8 -50.05 45.25 -49.2 46.7 -47.4 47.6
L -47.4 64.6
Q -47.4 66.65 -46.25 68.15 -45.15 69.6 -43.4 70.25 -41.75 70.85 -39.95 70.45 -38.15 70 -37 68.15 -36.45 67.3 -36.1 66.1 -35.95 65.45 -35.85 63.9 -35.8 63.15 -35.9 61.6
L -36 50.3
Q -32.25 50.7 -27.9 50.8 -24.05 50.85 -19.8 49.7 -14.5 48.2 -10.6 44.9 -6.65 41.6 -4.5 37.25 -2.3 32.75 -2.15 27.8 -2 22.65 -4.25 17.7
M -19.9 16.8
Q -17.35 18.35 -15.75 20.95 -14.2 23.5 -13.85 26.4 -13.55 29.2 -14.65 31.95 -15.65 34.65 -18.4 36.45 -22.35 38.95 -26.95 39.35 -31.45 39.7 -36 38.9
L -36 18.35
Q -32.05 16.6 -28 15.9 -24 15.2 -19.9 16.8
M 46.6 48.75
Q 48.25 48.4 49.5 47.35 50.65 46.3 51.2 44.9 51.7 43.6 51.45 41.95 51.2 40.4 49.9 39.1 48.35 37.55 46.5 37.45 44.65 37.4 42.65 37.45 39.45 29.3 35.15 20.95 31 12.85 24.55 6.4 22.95 4.95 20.65 4.95 18.9 4.95 17.6 5.8 16.35 6.8 15.45 8 14.6 9.15 13.9 10.75
L 11.4 16.1
Q 10.6 17.75 10.25 18.65 3.55 33.8 -0.7 50.1
L -2.35 55.75
Q -3.2 58.45 -3.5 61.5 -3.8 63.8 -2.85 65.55 -2 67.2 -0.5 68.15 0.95 69 2.8 68.75 4.7 68.45 6.25 66.6 7.6 64.95 7.95 63.1
L 10 54.1
Q 10.5 51.9 11.45 49.15 15.3 49.05 23 49.05
L 34.6 48.95
Q 36.4 54.55 37.3 59.6 37.7 61.65 37.9 63.3 37.95 65 39.2 66.6 40.75 68.45 42.3 68.8 43.9 69.25 45.4 68.7 46.9 68.1 48 66.65 49.15 65.25 49.45 63.15
L 49.45 62.45
Q 48.8 57.95 48.25 55.5 47.3 51.1 46.6 48.75
M 15.15 37.6
Q 16.5 33.5 18.2 29.25 19.9 25 21.75 21 24.35 24.9 26.3 29 28.4 33.15 30.15 37.45
L 15.15 37.6
M 96.55 62.6
Q 96.55 60.95 95.4 59.35 94.4 57.8 92.15 56.7
L 91.55 56.5 79.6 56.85
Q 73.7 57 67.75 57 67.75 45.85 67.9 34.65 68.2 23.55 67.9 12.2 67.9 10.85 67.15 9.8 66.35 8.7 65.15 8.1 64.05 7.5 62.6 7.35 61.2 7.2 60.1 7.65 58.7 8.3 58.05 9.05 57.3 9.85 56.9 11.6 56.55 13.55 56.5 16.4
L 56.2 56.05
Q 56.15 57.55 56.25 60.3 56.35 62.05 56.9 64.4 57.5 66.35 58.6 67.25 59.95 68.5 61.75 68.5
L 89 68.25
Q 90.7 68.25 91.65 67.95 94.15 67.15 95.3 65.7 96.5 64.25 96.55 62.6
M 143.7 17.4
Q 144.3 15.55 143.7 13.55 143.05 11.55 140.75 10.6 137.1 8.95 132.65 8.2 128.4 7.45 124.15 8 119.65 8.55 116.1 10.25 112.2 12.05 109.25 15.3 107 17.75 105.3 21 103.75 24.15 104.55 28.65
L 105.45 31.75
Q 105.8 32.95 107.15 34.55 109.45 37.5 112.3 39.05 115.1 40.6 118.2 41.5 121.65 42.4 124.65 42.95 128.1 43.65 131.25 44.7 133 45.15 134.1 46.55 135.3 47.85 135.75 49.55 136.15 51.2 135.75 52.9 135.3 54.65 133.9 55.85 132.75 57.05 131.6 57.45
L 129.15 58.2
Q 127.3 58.2 125.45 58.05 123.7 57.9 121.9 57.45 119.35 56.95 116.85 55.65 115.1 54.85 113.8 53.35 112.5 51.85 110.7 51.1 108.75 50.25 107.15 50.8 105.45 51.35 104.55 52.6 103.6 53.9 103.35 55.65 103.05 57.4 103.75 59.25
L 104.4 60.2
Q 107.2 62.95 111 65.25 114.95 67.6 119.2 68.8 123.5 70.1 127.9 70.1 132.25 70.1 136.05 68.15 138 67.05 139.6 66 141.1 65 142.75 63.4 144.9 61.25 146.15 58.35 147.4 55.35 147.6 52.35 147.9 49.1 146.9 46.15 146 42.95 143.8 40.55 141.75 37.7 139 36 136.25 34.3 133.05 33.25 129.45 32.05 126.55 31.5
L 120.1 30.25
Q 118.25 29.65 117.05 28.75 115.7 27.65 115.85 26.05 115.95 24.75 116.65 23.7 117.35 22.65 118.1 22.05 118.95 21.35 120.1 20.95 121.1 20.55 122.95 20 124.65 19.55 126.3 19.35 128.2 19.2 129.55 19.45
L 137.75 21.35
Q 139.9 21.75 141.55 20.5 143.15 19.25 143.7 17.4 Z"/>
</g>
</g>
</g>

<g transform="matrix( 1.02374267578125, 0, 0, 1.02362060546875, -92.5,-72.95) ">
<g>
<g>
<path fill="#813C94" stroke="none" d="
M 127.9 21.65
L 125.4 12.2
Q 124.9 10.65 123.9 9.45 122.85 8.35 121.5 7.8 120.3 7.3 118.7 7.55 117.15 7.85 115.9 9.2 114.15 10.95 113.3 13.65 112.55 16.1 111.55 18.55
L 101.2 45.75 84.15 11.95
Q 83 9.7 81 8.45 80.1 7.9 79 7.85 77.85 7.75 76.9 8.1 74.35 8.95 73.6 10.95 72.8 13.05 72.65 15.3
L 68.85 54.9
Q 68.35 59.2 68.2 62.3 68.15 64.5 69.25 65.9 70.4 67.3 72.05 67.75 73.75 68.2 75.5 67.65 77.25 67.15 78.4 65.3 79.1 64.1 79.4 62.25 79.65 60.85 79.95 58.15
L 82.1 31.75 97.45 61.75
Q 98.15 62.95 99.4 63.4 100.7 63.95 102.1 63.85 103.65 63.7 104.85 63.05 106.1 62.4 106.65 61.3 108.3 58.1 109.5 54.7
L 118.75 29.95
Q 120.05 35.3 121 40.6 121.95 45.4 122.85 51.4
L 124.05 61.9
Q 124.2 63.5 125.1 65.1 126.25 67.05 127.85 67.5 129.5 68.05 131 67.45 132.55 66.95 133.75 65.5 134.9 64.15 135.2 62.1
L 135.2 61.45
Q 134.35 54.45 133.5 49.05 132.7 43.55 131.3 36.65
L 129.75 29.15
Q 128.8 25 127.9 21.65
M 184.3 9.8
Q 183.55 8.4 182.35 7.55 181.05 6.75 179.6 6.65 178.05 6.55 176.65 7.45 175.7 8.05 174.75 9.35 173.55 10.85 172.65 12.4
L 169.4 17.75
Q 166.9 21.1 164.4 23.7 161.7 26.4 159.3 29.65 156.7 26.75 154.35 23.8 152 20.8 150.1 17.4 149.5 16.3 149.05 15
L 148.2 12.5
Q 147.75 11.25 147.1 10.2 146.55 9.15 145.45 8.3 144.15 7.25 142.4 7.15 140.6 7.15 139.35 7.9 137.95 8.65 137.1 10.05 136.3 11.45 136.75 13.2 136.85 15.1 137.65 17.05 138.6 19.3 139.4 20.65 142.15 25.95 145.95 30.9 149.65 35.65 154.1 39.95
L 153.95 56.4
Q 153.95 58.8 154.05 60 154.2 61.8 154.65 63.4 155.4 65.75 157 66.55 158.65 67.4 160.4 67 162.15 66.65 163.6 65.2 165 63.8 165.3 61.45
L 165.2 40.1 167.4 37.4
Q 168.35 36.1 169.65 34.65
L 176.2 26.85
Q 178.8 23.6 179.95 22 181.9 19.35 183.25 17 184.6 14.7 184.85 12.85 185 11.25 184.3 9.8 Z"/>
</g>
</g>
</g>

<g transform="matrix( 1.02374267578125, 0, 0, 1.02362060546875, -336,-217.55) ">
<g>
<g>
<path fill="#00ACAF" stroke="none" d="
M 290.3 290.4
Q 289.45 290.4 288.85 290.85 288.25 291.3 287.8 291.9
L 285.25 297.05
Q 281.9 304.75 279.95 312.35
L 279.15 315.1
Q 278.75 316.6 278.6 317.9 278.45 319.05 278.9 319.85 279.4 320.8 280.05 321.1 280.75 321.55 281.65 321.4 282.5 321.35 283.35 320.35 284 319.6 284.15 318.65
L 285.15 314.3
Q 285.55 312.7 285.85 311.9
L 297.1 311.8
Q 297.95 314.6 298.4 317 298.55 317.55 298.65 318.75 298.75 319.65 299.35 320.35 300 321.2 300.8 321.45 301.55 321.65 302.35 321.4 303.05 321.1 303.6 320.4 304.15 319.6 304.3 318.7
L 304.3 318.35
Q 304.1 316.7 303.7 315 303.55 314 302.9 311.7 303.75 311.55 304.3 311 304.85 310.6 305.15 309.8 305.4 309.1 305.25 308.4 305.2 307.65 304.5 307.05 303.9 306.3 302.85 306.2 301.95 306.15 301 306.2 299.15 301.7 297.35 298.2 295.3 294.25 292.2 291.15 291.45 290.4 290.3 290.4
M 290.85 298.2
Q 292.15 300.25 293.05 302.1 293.6 303.15 294.95 306.2
L 287.65 306.3
Q 288.35 304.2 289.15 302.25 289.65 300.9 290.85 298.2
M 344.1 291.65
Q 341.85 291.65 339.3 292.05
L 337 292.45
Q 335.7 292.75 334.9 293.45 334.3 293.9 334.1 294.45 333.9 295 333.95 295.65 334.05 296.35 334.35 296.8 334.65 297.35 335.15 297.7
L 335.15 317.25
Q 335.15 318.95 336.55 319.85 337.4 320.4 338.4 320.45
L 340.3 320.65
Q 343.45 320.95 346.4 320.75 349.2 320.6 352.45 319.7 352.85 319.55 353.25 319.15 353.75 318.65 353.8 318.4 354.15 317.65 354.1 316.95 354 316.2 353.65 315.7 353.25 315.1 352.65 314.75 352.05 314.4 351.2 314.3
L 350.9 314.3
Q 348.45 314.95 345.85 315.2 343.4 315.4 340.75 315.1
L 340.75 309.45 348.8 309.2
Q 350.2 309.05 350.95 308.7 351.85 308.4 352.25 307.55 352.7 306.7 352.55 305.85 352.5 305.15 351.9 304.3 351.3 303.65 350.35 303.5 349.55 303.45 348.8 303.5
L 347.35 303.65
Q 346.25 303.75 344.05 303.85 342.4 303.95 340.75 303.85
L 340.75 297.5 350.2 297.2
Q 351.45 297.25 352.65 296.8 353.65 296.35 354 295.65 354.45 294.9 354.3 294.15 354.25 293.45 353.75 292.65 353.25 292.05 352.35 291.65 351.6 291.45 350.65 291.5 350 291.6 348.95 291.6
L 344.1 291.65
M 328.65 296.5
Q 327.5 293.9 325.3 292.35 323.1 290.75 320.15 290.15 317.25 289.5 314.35 290.1
L 312.65 290.5
Q 311.4 290.85 310.6 291.2 309.3 291.65 308.7 292.05 307.75 292.5 307.3 293.05 306.9 293.55 306.6 294.25 306.4 294.95 306.45 295.6 306.55 296.3 306.9 296.8 307.3 297.4 308 297.65
L 308 308.9
Q 308 313.95 308.25 319.8 308.25 321.05 309.1 321.45 309.8 321.85 310.85 321.7 311.85 321.45 312.65 320.75 313.45 320.05 313.6 318.85
L 313.6 312.05 315.45 311.85
Q 316.7 311.75 317.3 311.6
L 324.65 319.8
Q 325.4 320.7 326.2 321.35 327.05 321.85 327.7 321.85 328.35 321.85 329.05 321.45 329.6 321.1 330.1 320.35 330.55 319.55 330.55 318.75 330.65 318.25 330.1 317.5
L 328.95 315.95
Q 328.05 314.95 327.55 314.5
L 326.5 313.5
Q 325.4 312.6 324.75 311.65
L 323.1 309.75
Q 324.7 308.65 325.4 308.05 326.45 307.1 327.2 305.95 327.7 305.3 328.2 304.25 328.75 302.85 328.85 302.4 329.75 299.2 328.65 296.5
M 317.8 295.4
Q 319.9 295.55 321.8 296.65 322.9 297.45 323.25 298.4 323.65 299.4 323.5 300.4 323.45 301.3 322.85 302.4 322.3 303.35 321.35 304.15 319.5 305.5 317.65 305.85 315.4 306.25 313.6 306.4
L 313.6 296
Q 315.65 295.35 317.8 295.4 Z"/>
</g>
</g>
</g>

<g transform="matrix( 1.02374267578125, 0, 0, 1.02362060546875, -92.5,-72.95) ">
<g>
<g>
<path fill="#00ACAF" stroke="none" d="
M 153.1 151.75
Q 153.1 150.6 152.4 149.8 151.8 149.15 150.85 148.9 150 148.75 149.05 149.15 148.05 149.6 147.6 150.55 147.15 151.4 147.15 152.3
L 147.15 162.15 136.5 162.15 136.5 151.75 136.45 151.1 136.25 150.45
Q 135.8 149.3 134.85 149 133.9 148.7 133 149.05 132.1 149.35 131.35 150.25 130.65 151.2 130.65 152.3
L 130.65 176.05
Q 130.65 177.3 131.3 178.1 131.9 179 132.75 179.3 133.6 179.65 134.55 179.35 135.55 178.95 136.1 177.9 136.3 177.55 136.4 176.95
L 136.5 175.95 136.5 168.15 147.15 168.15 147.15 176.05
Q 147.15 176.65 147.3 177.15 147.35 177.65 147.7 178.25 148.45 179.25 149.35 179.45 150.3 179.65 151.1 179.3 151.95 178.9 152.5 178 153.1 177.2 153.1 176
L 153.1 168
Q 154.2 167.75 154.7 166.95 155.25 166.15 155.25 165.25 155.3 164.4 154.75 163.5 154.2 162.7 153.1 162.3
L 153.1 151.75
M 234.7 173.95
Q 233.95 174.35 233.4 175.1 232.9 175.8 232.75 176.95 232.9 178.7 234.05 179.55 235.15 180.35 236.4 180.35 237.7 180.25 238.65 179.4 239.7 178.5 239.6 176.85 239.5 175.7 239.05 175 238.55 174.25 237.85 173.9 237.15 173.55 236.3 173.55 235.3 173.65 234.7 173.95
M 224.45 149.45
Q 223.8 149.55 222.75 149.55
L 217.9 149.6
Q 215.65 149.6 213.1 150
L 210.8 150.4
Q 209.5 150.7 208.7 151.4 208.15 151.75 207.9 152.4 207.7 152.95 207.75 153.6 207.85 154.3 208.1 154.75 208.55 155.35 208.95 155.65
L 208.95 175.2
Q 208.95 176.9 210.35 177.8 211.2 178.35 212.2 178.4
L 214.1 178.6
Q 217.25 178.9 220.2 178.7 223.35 178.45 226.25 177.65 226.65 177.5 227.05 177.1 227.55 176.6 227.6 176.35 227.95 175.6 227.9 174.9 227.8 174.15 227.45 173.65 227.05 173.05 226.45 172.7 225.85 172.35 225 172.25
L 224.7 172.25
Q 222.25 172.9 219.65 173.15 217.2 173.35 214.55 173.05
L 214.55 167.4 222.6 167.15
Q 224 167 224.75 166.65 225.65 166.35 226.05 165.5 226.5 164.65 226.35 163.8 226.3 163.1 225.7 162.25 225.1 161.6 224.15 161.45 223.35 161.4 222.6 161.45
L 217.85 161.8
Q 216.2 161.9 214.55 161.8
L 214.55 155.45 224 155.15
Q 225.25 155.2 226.45 154.75 227.45 154.3 227.8 153.6 228.25 152.85 228.1 152.1 228.05 151.4 227.55 150.6 227 149.9 226.15 149.6 225.25 149.35 224.45 149.45
M 238.9 160
L 238.65 151.4
Q 238.2 150.3 237.45 149.7 236.7 149.2 235.9 149.25 235.15 149.25 234.35 149.9 233.7 150.45 233.2 151.65
L 233.15 151.9 233.15 167.75
Q 233.15 169.1 234 169.85 234.9 170.6 235.9 170.6 236.85 170.65 237.8 169.95 238.75 169.25 238.75 167.8
L 238.9 163.85
Q 239 161.95 238.9 160
M 177.35 153.6
Q 177.8 152.85 177.65 152.1 177.6 151.4 177.1 150.6 176.55 149.9 175.7 149.6 174.8 149.35 174 149.45 173.35 149.55 172.3 149.55
L 167.45 149.6
Q 165.2 149.6 162.65 150
L 160.35 150.4
Q 159.05 150.7 158.25 151.4 157.7 151.75 157.45 152.4 157.25 152.95 157.3 153.6 157.4 154.3 157.7 154.75 158 155.3 158.5 155.65
L 158.5 175.2
Q 158.5 176.9 159.9 177.8 160.75 178.35 161.75 178.4
L 163.65 178.6
Q 166.8 178.9 169.75 178.7 172.85 178.5 175.8 177.65 176.2 177.5 176.6 177.1 177.1 176.6 177.15 176.35 177.5 175.6 177.45 174.9 177.35 174.15 177 173.65 176.6 173.05 176 172.7 175.4 172.35 174.55 172.25
L 174.25 172.25
Q 171.8 172.9 169.2 173.15 166.75 173.35 164.1 173.05
L 164.1 167.4 172.15 167.15
Q 173.55 167 174.3 166.65 175.2 166.35 175.6 165.5 176.05 164.65 175.9 163.8 175.85 163.1 175.25 162.25 174.65 161.6 173.7 161.45 172.9 161.4 172.15 161.45
L 167.4 161.8
Q 165.75 161.9 164.1 161.8
L 164.1 155.45 173.55 155.15
Q 174.8 155.2 176 154.75 177 154.3 177.35 153.6
M 188.15 148.05
L 186.45 148.45
Q 185.2 148.8 184.4 149.15 183.1 149.6 182.5 150 181.55 150.45 181.1 151 180.75 151.35 180.4 152.2 180.2 152.9 180.25 153.55 180.35 154.25 180.7 154.75 181.15 155.35 181.8 155.55
L 181.8 166.85
Q 181.8 171.9 182.05 177.75 182.05 179 182.9 179.4 183.6 179.8 184.65 179.65 185.65 179.4 186.45 178.7 187.25 178 187.4 176.8
L 187.4 169.95 189.25 169.8
Q 190.5 169.7 191.1 169.55 193.55 172.25 194.05 172.85
L 198.45 177.75
Q 199.2 178.65 200 179.3 200.85 179.8 201.45 179.8 202.15 179.8 202.85 179.4 203.4 179.05 203.9 178.3 204.35 177.4 204.35 176.7 204.45 176.2 203.9 175.45
L 202.75 173.9 200.3 171.45
Q 199.2 170.55 198.55 169.6
L 196.9 167.7
Q 198.5 166.6 199.2 166 200.3 165 201 163.85 201.45 163.25 202 162.2 202.55 160.8 202.65 160.35 203.55 157.15 202.45 154.45 201.3 151.85 199.1 150.3 196.95 148.75 193.95 148.05 191 147.45 188.15 148.05
M 195.6 154.6
Q 196.7 155.4 197.05 156.35 197.45 157.3 197.35 158.35 197.2 159.3 196.65 160.35 196 161.4 195.15 162.1 193.3 163.45 191.45 163.8 189.2 164.2 187.4 164.35
L 187.4 153.95
Q 189.45 153.3 191.6 153.35 193.7 153.5 195.6 154.6 Z"/>
</g>
</g>
</g>

<g transform="matrix( 1.02374267578125, 0, 0, 1.02362060546875, -92.5,-72.95) ">
<g>
<g>
<path fill="#00C2F3" stroke="none" d="
M 225.65 47.2
Q 222.65 47.2 220.55 49.35 218.4 51.45 218.4 54.45 218.4 57.45 220.55 59.55 222.65 61.65 225.65 61.65 228.65 61.65 230.8 59.55 232.9 57.45 232.9 54.45 232.9 51.45 230.8 49.35 228.65 47.2 225.65 47.2 Z"/>
</g>
</g>
</g>

<g transform="matrix( 1.02374267578125, 0, 0, 1.02362060546875, -92.5,-72.95) ">
<g>
<g>
<path fill="#77C14F" stroke="none" d="
M 254.4 62.4
Q 251 59 246.2 59 241.35 59 237.95 62.4 234.55 65.8 234.55 70.6 234.55 75.45 237.95 78.85 241.35 82.25 246.2 82.25 251 82.25 254.4 78.85 257.8 75.45 257.8 70.6 257.8 65.8 254.4 62.4 Z"/>
</g>
</g>
</g>

<g transform="matrix( 1.02374267578125, 0, 0, 1.02362060546875, -92.5,-72.95) ">
<g>
<g>
<path fill="#E34A36" stroke="none" d="
M 8.8 134.4
Q 8.8 140.4 13.05 144.65 17.3 148.85 23.3 148.85 29.3 148.85 33.55 144.65 37.75 140.4 37.75 134.4 37.75 128.4 33.55 124.15 29.3 119.9 23.3 119.9 17.3 119.9 13.05 124.15 8.8 128.4 8.8 134.4 Z"/>
</g>
</g>
</g>
</g>
</g>

<g transform="matrix( 1, 0, 0, 1, 0,0) ">
<g>
<g>
<path fill="#FFFFFF" fill-opacity="0.3764705882352941" stroke="none" d="
M 25.45 142.1
Q 17.8 138.65 7.95 134.35 4.297265625 132.704296875 0 130.35
L 0 132.6
Q 4.501171875 135.25859375 9.1 137.8 46.1 158.25 84.55 169.75 114.1 178.55 142.85 181.55 143.925390625 181.66484375 145 181.75
L 145 161.05
Q 143.9458984375 161.3759765625 142.85 161.65 133.7 163.95 123.1 163.95 103.85 163.95 82.65 160.4 61.35 156.9 43.85 149.9 33.05 145.6 25.45 142.1
M 145 31.55
L 145 0 77.6 0
Q 77.45 1.769921875 77.45 3.6 77.45 20 89.05 31.55 100.6 43.15 117.05 43.15 133.45 43.15 145 31.55 Z"/>

<path fill="#FFFFFF" fill-opacity="0.5019607843137255" stroke="none" d="
M 3.3 38.45
Q 3.3 43.95 7.2 47.85 11.1 51.7 16.55 51.7 22.05 51.7 25.95 47.85 29.8 43.95 29.8 38.45 29.8 33 25.95 29.1 22.05 25.2 16.55 25.2 11.1 25.2 7.2 29.1 3.3 33 3.3 38.45
M 34.35 18.55
Q 32.7 16.9 30.4 16.9 28.1 16.9 26.45 18.55 24.8 20.15 24.8 22.45 24.8 24.8 26.45 26.4 28.1 28.05 30.4 28.05 32.7 28.05 34.35 26.4 36 24.8 36 22.45 36 20.15 34.35 18.55
M 60.65 29.5
Q 58.95 31.2 58.95 33.6 58.95 36 60.65 37.7 62.35 39.35 64.7 39.35 67.1 39.35 68.8 37.7 70.5 36 70.5 33.6 70.5 31.2 68.8 29.5 67.1 27.8 64.7 27.8 62.35 27.8 60.65 29.5
M 145 92.6
Q 143.3359375 93.1140625 142 94.45 139.85 96.55 139.85 99.6 139.85 102.6 142 104.7 143.3359375 106.0359375 145 106.55
L 145 92.6
M 145 38.9
Q 144.65234375 38.9 144.3 38.9 136.15 38.9 130.4 44.65 124.65 50.4 124.65 58.5 124.65 66.65 130.4 72.4 136.15 78.15 144.3 78.15 144.65234375 78.15 145 78.15
L 145 38.9 Z"/>
</g>
</g>
</g>
</g>
</svg>
