
<svg xmlns="http://www.w3.org/2000/svg" version="1.1" xmlns:xlink="http://www.w3.org/1999/xlink" preserveAspectRatio="none" x="0px" y="0px" width="80px" height="80px" viewBox="0 0 80 80">
<defs/>

<g id="Layer_1">
<g transform="matrix( 1, 0, 0, 1, 0,0) ">
<g>
<g>
<path fill="#FF9900" stroke="none" d="
M 80 40
Q 80 23.5 68.15 11.8 56.45 0 40 0 23.45 0 11.75 11.8 0 23.5 0 40 0 56.55 11.75 68.25 23.45 80 40 80 56.45 80 68.15 68.25 80 56.55 80 40
M 66.8 13.15
Q 78.05 24.25 78.05 40 78.05 55.8 66.8 66.9 55.7 78.05 40 78.05 24.2 78.05 13.1 66.9 1.95 55.8 1.95 40 1.95 24.25 13.1 13.15 24.2 1.95 40 1.95 55.7 1.95 66.8 13.15 Z"/>
</g>
</g>
</g>

<g transform="matrix( 1, 0, 0, 1, 0,0) ">
<g>
<g>
<path fill="#FF9900" stroke="none" d="
M 47.85 32.1
Q 48 31.8 47.95 31.55 47.85 31.25 47.65 31.1 45.8 29.45 43.25 28.85 38.95 27.6 35.05 30.05 31.2 32.2 29.95 36.5
L 29.95 36.6
Q 29.65 37.45 29.5 38.45
L 9.45 49.4
Q 9.15 49.6 9.05 50 8.85 50.3 9.05 50.65 11 56.1 15.3 61.15 15.5 61.35 15.85 61.45 16.15 61.45 16.4 61.35
L 36.2 49.9
Q 37 50.3 38 50.65
L 38.1 50.65
Q 42.45 51.6 46.2 49.6 50.3 47.3 51.45 42.85 52.05 40.3 51.75 38.35 51.65 37.95 51.45 37.75 51.25 37.55 50.95 37.45 50.6 37.4 50.3 37.55
L 42.1 42.25 39.25 37.3 47.45 32.6
Q 47.75 32.4 47.85 32.1
M 46.3 13.6
L 45.8 13.4
Q 40.85 11.15 35.6 13.4
L 35.15 13.6 34.45 19.05
Q 32.45 19.6 30.65 20.55
L 26.35 17.35 25.75 17.5
Q 20.5 19.7 18.7 24.85
L 18.5 25.35 21.75 29.55
Q 20.8 31.25 20.35 33.1
L 14.5 34.05 14.3 34.55
Q 12.35 39.15 14.05 43.65
L 27.5 36.2
Q 28.3 32.7 31.05 30.05 35.15 25.95 40.75 25.95 46.4 25.95 50.4 30.05 54.3 33.95 54.3 39.55 54.3 45.3 50.4 49.2 46.4 53.25 40.75 53.25 38.75 53.25 37 52.75
L 23.6 60.55
Q 24.6 61.15 25.75 61.65
L 26.35 61.9 30.85 58.6
Q 32.45 59.4 34.35 60
L 35.15 65.55 35.6 65.75
Q 40.85 68 45.8 65.75
L 46.3 65.55 47.05 60.1
Q 48.95 59.4 50.7 58.6
L 55.15 61.9 55.65 61.65
Q 60.85 59.4 62.7 54.3
L 62.9 53.9 59.65 49.7
Q 60.65 47.85 61.35 45.9
L 66.7 45.1 66.9 44.7
Q 69.25 39.65 67.1 34.55
L 66.9 34.05 61.25 33.15
Q 60.65 31.2 59.75 29.35
L 62.9 25.35 62.7 24.85
Q 60.85 19.7 55.65 17.5
L 55.15 17.35 50.8 20.55
Q 48.95 19.6 47.05 19.05
L 46.3 13.6 Z"/>
</g>
</g>
</g>
</g>
</svg>
