
<svg xmlns="http://www.w3.org/2000/svg" version="1.1" xmlns:xlink="http://www.w3.org/1999/xlink" preserveAspectRatio="none" x="0px" y="0px" width="80px" height="80px" viewBox="0 0 80 80">
<defs/>

<g id="Layer_1">
<g transform="matrix( 1, 0, 0, 1, 0,0) ">
<g>
<g>
<path fill="#FF9900" stroke="none" d="
M 80 40
Q 80 23.5 68.15 11.8 56.45 0 40 0 23.45 0 11.75 11.8 0 23.5 0 40 0 56.55 11.75 68.25 23.45 80 40 80 56.45 80 68.15 68.25 80 56.55 80 40
M 66.8 13.15
Q 78.05 24.25 78.05 40 78.05 55.8 66.8 66.9 55.7 78.05 40 78.05 24.2 78.05 13.1 66.9 1.95 55.8 1.95 40 1.95 24.25 13.1 13.15 24.2 1.95 40 1.95 55.7 1.95 66.8 13.15 Z"/>
</g>
</g>
</g>

<g transform="matrix( 1, 0, 0, 1, 0,0) ">
<g>
<g>
<path fill="#FF9900" stroke="none" d="
M 67.35 58.3
Q 67.65 57.9 68 57.3 67.05 55.1 65.15 53.15 63.5 51.55 61.6 50.7 58.85 53.15 55.1 53.15 51.4 53.15 48.55 50.7 46.7 51.55 45 53.15 43.3 54.9 42.35 57.1 42.65 57.6 43.05 58.1 43.6 58.8 44.3 59.55 48.85 63.9 55.2 64 61.6 64.1 65.95 59.65 66.75 58.95 67.35 58.3
M 37.7 57.3
Q 36.7 55.1 34.85 53.15 33.15 51.55 31.25 50.7 28.5 53.15 24.75 53.15 21.1 53.15 18.25 50.7 16.35 51.55 14.65 53.15 13 54.9 12 57.1 12.3 57.6 12.7 58.2 13.3 58.8 13.9 59.55 18.5 63.9 24.85 64 31.25 64.1 35.6 59.75 36.4 58.95 37 58.4 37.3 57.9 37.7 57.3
M 20.2 39.7
Q 18.35 41.7 18.35 44.35 18.35 47.1 20.2 49 22.2 50.95 24.85 50.95 27.6 50.95 29.6 49 31.45 47.1 31.45 44.35 31.45 41.7 29.6 39.7 27.6 37.85 24.85 37.85 22.2 37.85 20.2 39.7
M 52.1 29.95
Q 52.4 29.45 52.8 28.85 51.8 26.65 49.95 24.8 48.25 23.2 46.4 22.2 43.7 24.8 39.95 24.8 36.2 24.8 33.45 22.2 31.55 23.2 29.9 24.8 28.1 26.55 27.1 28.75 27.5 29.25 27.9 29.75
L 27.8 29.75
Q 28.4 30.4 29.1 31.1 33.65 35.55 39.95 35.65 46.4 35.75 50.85 31.3 51.5 30.6 52.1 29.95
M 55.2 37.85
Q 52.5 37.85 50.55 39.7 48.65 41.7 48.65 44.35 48.65 47.1 50.55 49 52.5 50.85 55.2 50.85 57.95 50.85 59.9 49 61.8 47.1 61.8 44.35 61.8 41.7 59.9 39.7 57.95 37.85 55.2 37.85
M 46.6 15.9
Q 46.6 13.25 44.7 11.25 42.85 9.5 40.05 9.5 37.3 9.5 35.4 11.25 33.45 13.25 33.45 15.9 33.45 18.65 35.4 20.55 37.3 22.5 40.05 22.5 42.85 22.5 44.7 20.55 46.6 18.65 46.6 15.9 Z"/>
</g>
</g>
</g>
</g>
</svg>
