
<svg xmlns="http://www.w3.org/2000/svg" version="1.1" xmlns:xlink="http://www.w3.org/1999/xlink" preserveAspectRatio="none" x="0px" y="0px" width="80px" height="80px" viewBox="0 0 80 80">
<defs/>

<g id="Layer_1">
<g transform="matrix( 1, 0, 0, 1, 0,0) ">
<g>
<g>
<path fill="#FFFFFF" stroke="none" d="
M 80 40
Q 80 23.5 68.15 11.8 56.45 0 40 0 23.45 0 11.75 11.8 0 23.5 0 40 0 56.55 11.75 68.25 23.45 80 40 80 56.45 80 68.15 68.25 80 56.55 80 40
M 66.8 13.15
Q 78.05 24.25 78.05 40 78.05 55.8 66.8 66.9 55.7 78.05 40 78.05 24.2 78.05 13.1 66.9 1.95 55.8 1.95 40 1.95 24.25 13.1 13.15 24.2 1.95 40 1.95 55.7 1.95 66.8 13.15 Z"/>
</g>
</g>
</g>

<g transform="matrix( 1, 0, 0, 1, 0,0) ">
<g>
<g>
<path fill="#FFFFFF" stroke="none" d="
M 30.5 19.9
L 30.6 20.5 33.35 28.5 31.5 29.8 22.8 25.45 22.8 65.15 60.95 65.15 60.95 19.9 30.5 19.9
M 54.9 41.35
L 54.9 43.3 29.1 43.3 29.1 41.35 54.9 41.35
M 54.9 31.35
L 54.9 34.7 29.4 34.7 29.4 31.35 54.9 31.35
M 29.1 58.15
L 29.1 56.15 54.9 56.15 54.9 58.15 29.1 58.15
M 29.1 50.75
L 29.1 48.75 54.9 48.75 54.9 50.75 29.1 50.75
M 28.35 21
L 33.55 16.25 26.65 16.25 23.9 10.3 21.2 16.25 14.5 16.25 19.35 21.1 16.15 27.7 24 24.05 31.5 27.8 28.35 21 Z"/>
</g>
</g>
</g>
</g>
</svg>
