
<svg xmlns="http://www.w3.org/2000/svg" version="1.1" xmlns:xlink="http://www.w3.org/1999/xlink" preserveAspectRatio="none" x="0px" y="0px" width="80px" height="80px" viewBox="0 0 80 80">
<defs/>

<g id="Layer_1">
<g transform="matrix( 1, 0, 0, 1, 0,0) ">
<g>
<g>
<path fill="#FFFFFF" stroke="none" d="
M 80 40
Q 80 23.5 68.15 11.8 56.45 0 40 0 23.45 0 11.75 11.8 0 23.5 0 40 0 56.55 11.75 68.25 23.45 80 40 80 56.45 80 68.15 68.25 80 56.55 80 40
M 66.8 13.15
Q 78.05 24.25 78.05 40 78.05 55.8 66.8 66.9 55.7 78.05 40 78.05 24.2 78.05 13.1 66.9 1.95 55.8 1.95 40 1.95 24.25 13.1 13.15 24.2 1.95 40 1.95 55.7 1.95 66.8 13.15 Z"/>
</g>
</g>
</g>

<g transform="matrix( 1, 0, 0, 1, 0,0) ">
<g>
<g>
<path fill="#FFFFFF" stroke="none" d="
M 17.65 15.3
L 17.65 64.7 62.4 64.7 62.4 15.3 17.65 15.3
M 51.05 21.05
L 56.65 21.05 56.65 57.2 23.35 57.2 23.35 21.05 44.2 21.05 44.2 36.75 47.7 34 51.05 36.75 51.05 21.05
M 39.95 63.2
Q 39.1 63.2 38.45 62.45 37.8 61.8 37.8 60.95 37.8 60.7 37.9 60.45
L 37.85 60.45
Q 37.95 59.9 38.4 59.35
L 38.45 59.3
Q 39.1 58.65 39.95 58.65 40.85 58.65 41.6 59.3 42.2 59.85 42.3 60.45 42.35 60.7 42.35 60.95 42.35 61.8 41.6 62.45
L 41.6 62.5
Q 40.85 63.2 39.95 63.2
M 54.7 23.05
L 53 23.05 53 40.8 47.6 36.45 42.25 41 42.25 23.05 25.35 23.05 25.35 55.25 54.7 55.25 54.7 23.05
M 52.1 43.6
L 52.1 45.55 27.9 45.55 27.9 43.6 52.1 43.6
M 39.65 31.8
L 39.65 33.8 27.9 33.8 27.9 31.8 39.65 31.8
M 39.65 25.9
L 39.65 27.85 27.9 27.85 27.9 25.9 39.65 25.9
M 27.9 39.7
L 27.9 37.75 39.65 37.75 39.65 39.7 27.9 39.7
M 27.9 51.7
L 27.9 49.7 52.1 49.7 52.1 51.7 27.9 51.7 Z"/>
</g>
</g>
</g>
</g>
</svg>
