
<svg xmlns="http://www.w3.org/2000/svg" version="1.1" xmlns:xlink="http://www.w3.org/1999/xlink" preserveAspectRatio="none" x="0px" y="0px" width="80px" height="80px" viewBox="0 0 80 80">
<defs/>

<g id="Layer_1">
<g transform="matrix( 1, 0, 0, 1, 0,0) ">
<g>
<path stroke="#FFFFFF" stroke-width="1.8" stroke-linejoin="miter" stroke-linecap="butt" stroke-miterlimit="3" fill="none" d="
M 44.75 20.55
Q 42.85 22.5 40.1 22.5 37.3 22.5 35.45 20.55 33.45 18.65 33.45 15.9 33.45 13.2 35.45 11.25 37.3 9.45 40.1 9.45 42.85 9.45 44.75 11.25 46.6 13.2 46.6 15.9 46.6 18.65 44.75 20.55 Z
M 55.2 37.85
Q 58 37.85 59.95 39.7 61.85 41.7 61.85 44.35 61.85 47.15 59.95 49 58 50.9 55.2 50.9 52.55 50.9 50.55 49 48.7 47.15 48.7 44.35 48.7 41.7 50.55 39.7 52.55 37.85 55.2 37.85 Z
M 49.95 24.8
Q 48.3 23.2 46.4 22.2 43.75 24.8 40 24.8 36.2 24.8 33.45 22.2 31.55 23.2 29.9 24.8 28.1 26.55 27.1 28.75 27.5 29.25 27.9 29.75
L 27.8 29.75
Q 28.4 30.45 29.1 31.1 33.65 35.55 40 35.65 46.4 35.75 50.85 31.3 51.55 30.6 52.15 29.95 52.45 29.45 52.85 28.85 51.85 26.65 49.95 24.8 Z
M 20.2 39.7
Q 22.2 37.85 24.85 37.85 27.6 37.85 29.6 39.7 31.5 41.7 31.5 44.35 31.5 47.15 29.6 49 27.6 51 24.85 51 22.2 51 20.2 49 18.3 47.15 18.3 44.35 18.3 41.7 20.2 39.7 Z
M 37.7 57.35
Q 36.7 55.15 34.85 53.15 33.15 51.6 31.3 50.7 28.5 53.15 24.75 53.15 21.1 53.15 18.2 50.7 16.35 51.6 14.65 53.15 13 54.95 12 57.15 12.3 57.6 12.7 58.2 13.3 58.8 13.85 59.6 18.5 63.95 24.85 64.05 31.3 64.15 35.65 59.8 36.4 59 37 58.4 37.3 57.9 37.7 57.35 Z
M 61.65 50.7
Q 58.85 53.15 55.1 53.15 51.45 53.15 48.6 50.7 46.7 51.6 45 53.15 43.35 54.95 42.35 57.15 42.65 57.6 43.05 58.1 43.65 58.8 44.35 59.6 48.9 63.95 55.2 64.05 61.65 64.15 66 59.7 66.8 59 67.4 58.3 67.65 57.9 68.05 57.35 67.1 55.15 65.2 53.15 63.5 51.6 61.65 50.7 Z"/>
</g>
</g>
</g>
</svg>
