
<svg xmlns="http://www.w3.org/2000/svg" version="1.1" xmlns:xlink="http://www.w3.org/1999/xlink" preserveAspectRatio="none" x="0px" y="0px" width="145px" height="185px" viewBox="0 0 145 185">
<defs>
<linearGradient id="Gradient_1" gradientUnits="userSpaceOnUse" x1="-63.4125" y1="130.9" x2="55.31250000000001" y2="130.9" spreadMethod="pad">
<stop  offset="0%" stop-color="#FFFFFF"/>

<stop  offset="100%" stop-color="#A8DCD8"/>
</linearGradient>

<linearGradient id="Gradient_2" gradientUnits="userSpaceOnUse" x1="-52.8" y1="9.05" x2="188.60000000000002" y2="9.05" spreadMethod="pad">
<stop  offset="0%" stop-color="#FFFFFF"/>

<stop  offset="100%" stop-color="#A8DCD8"/>
</linearGradient>
</defs>

<g id="Layer_1">
<g transform="matrix( 1, 0, 0, 1, 0,0) ">
<g>
<g>
<path fill="#FFFFFF" stroke="none" d="
M 145 0
L 0 0 0 185 145 185 145 0 Z"/>
</g>
</g>
</g>

<g transform="matrix( 1, 0, 0, 1, 0,0) ">
<g>
<g>
<path fill="url(#Gradient_1)" stroke="none" d="
M 57.05 138.95
L 57.05 125.5 0 125.5 0 138.95 57.05 138.95 Z"/>
</g>
</g>
</g>

<g transform="matrix( 1, 0, 0, 1, 0,0) ">
<g>
<g>
<path fill="#50B8B1" stroke="none" d="
M 57.05 125.5
L 57.05 185 145 185 145 125.5 57.05 125.5 Z"/>
</g>
</g>
</g>

<g transform="matrix( 1, 0, 0, 1, 0,0) ">
<g>
<g>
<path fill="#3E807C" stroke="none" d="
M 57.05 125.5
L 57.05 138.95 145 138.95 145 125.5 57.05 125.5 Z"/>
</g>
</g>
</g>

<g transform="matrix( 1, 0, 0, 1, 0,0) ">
<g>
<g>
<path fill="url(#Gradient_2)" stroke="none" d="
M 145 25.4
L 145 0 0 0 0 25.4 145 25.4 Z"/>
</g>
</g>
</g>

<g transform="matrix( 1, 0, 0, 1, 0,0) ">
<g>
<g>
<path fill="#50B7B6" stroke="none" d="
M 50.6 93
Q 50.1 95.6 50.4 97.8 50.7 100 51.8 101.75 52.95 103.5 54.55 104.6 56.2 105.65 58.3 106.05
L 58.55 106.1 59.65 106.05 60 106 64.1 104.6
Q 64.15 105.65 64.8 106.55 65.5 107.5 66.5 108.1
L 72 105.1
Q 70.75 104.3 70.35 103.15 69.95 102 70.3 100.2
L 73.1 85.85 68.15 86.6
Q 67.7 85.95 66.3 84.9 64.9 83.95 63.15 83.55
L 61 83.35
Q 59.35 83.35 57.9 83.85 56.45 84.35 55.1 85.35 53.35 86.7 52.25 88.65 51.1 90.55 50.6 93
M 56.95 94.15
Q 57.6 90.8 59.15 89.65 60.35 88.7 61.8 88.7
L 62.75 88.85
Q 64.1 89.1 64.95 89.8 65.8 90.5 66.25 91.35
L 64.5 100.6
Q 64.05 100.85 62.9 101.05
L 61.9 101.1 60.45 100.95
Q 58.25 100.55 57.35 98.65 56.45 96.8 56.95 94.15 Z"/>
</g>
</g>
</g>

<g transform="matrix( 1, 0, 0, 1, 0,0) ">
<g>
<g>
<path fill="#50B7B6" stroke="none" d="
M 117.35 83.85
Q 115.95 84.3 114.75 85.15 113.45 86.1 112.75 87.4 112.05 88.65 111.95 90.2 111.8 92.95 113.4 94.75 114.15 95.6 115.6 96.15 117 96.75 119.05 97 121.3 97.35 122.2 97.95 123.1 98.55 123.05 99.4 122.95 100.75 121.85 101.25 120.9 101.6 119.55 101.6
L 118.95 101.6
Q 116.45 101.45 114.6 100.8 112.75 100.05 111.3 99.15
L 110.4 103.6 114.65 106 115.25 106.15
Q 117.7 106.65 119.45 106.75
L 120.1 106.75
Q 121.75 106.75 123.2 106.3 124.65 105.85 125.85 104.9 127.15 103.9 127.85 102.5 128.55 101.1 128.7 99.35 128.8 96.45 126.9 94.65 125.95 93.75 124.5 93.15 123 92.55 121.05 92.35 119.7 92.2 118.6 91.75 117.4 91.3 117.45 90.05 117.5 89.4 118.35 88.95 119.1 88.55 120.3 88.55
L 120.7 88.55
Q 122.55 88.65 124.1 89.05 125.7 89.5 127.25 90.3
L 127.3 90.3 127.6 84.8
Q 126.3 84.3 124.5 83.95 122.65 83.55 121.05 83.45
L 120.4 83.45
Q 118.8 83.45 117.35 83.85 Z"/>
</g>
</g>
</g>

<g transform="matrix( 1, 0, 0, 1, 0,0) ">
<g>
<g>
<path fill="#50B7B6" stroke="none" d="
M 98.35 90.9
Q 99.5 90.25 101 90.25 102.75 90.25 103.6 91.15 104.4 92.05 104.45 93.25
L 104.45 106.85 110.6 106.85 110.6 91.35
Q 110.6 89.75 110.15 88.4 109.65 87.1 108.75 86.15 106.9 84.15 103.7 84.15
L 101.35 84.4
Q 100.2 84.7 98.95 85.4
L 96.45 86.85 96.45 75.95 96.4 75.9 90.25 79.25 90.25 106.85 96.45 106.85 96.45 92.25
Q 97.2 91.5 98.35 90.9 Z"/>
</g>
</g>
</g>

<g transform="matrix( 1, 0, 0, 1, 0,0) ">
<g>
<g>
<path fill="#50B7B6" stroke="none" d="
M 88 85.5
L 82.45 86.7 80.6 78.95 80.55 78.95 75.3 81.7 76.45 88.2 71.6 89.3 72.15 93.2 72.2 93.2 77.45 92.15 79.7 101.3
Q 80.45 104.25 82.35 106.05 84.2 107.85 87.2 108.3
L 87.25 108.3 90.55 103.15 90.55 103.1
Q 88.65 102.8 87.25 101.55 85.85 100.35 85.3 98.1
L 83.45 90.6 89 89.4 88.05 85.55 88 85.5 Z"/>
</g>
</g>
</g>

<g transform="matrix( 1, 0, 0, 1, 0,0) ">
<g>
<g>
<path fill="#50B7B6" stroke="none" d="
M 23.6 73.45
L 23.45 73.45 23.55 73.7 16.75 106.8 23.4 106.8 26.8 90.2 33.75 104.4 34.5 104.4 42 89.6 45.35 106.8 52.4 106.8 45.55 73.45 45.5 73.45 34.5 94.1 23.6 73.65 23.6 73.45 Z"/>
</g>
</g>
</g>

<g transform="matrix( 1, 0, 0, 1, 0,0) ">
<g>
<g>
<path fill="#50B7B6" stroke="none" d="
M 90.5 56.15
L 90.5 76.45 96.4 76.45 96.4 55.8 96.35 55.8 90.5 56.15
M 96.4 48.25
L 90.5 48.25 90.5 53.65 96.4 53.65 96.4 48.25 Z"/>
</g>
</g>
</g>

<g transform="matrix( 1, 0, 0, 1, 0,0) ">
<g>
<g>
<path fill="#50B7B6" stroke="none" d="
M 64.15 57.1
Q 63.7 56.6 62.2 55.9 60.7 55.2 59 55.15
L 58.75 55.15
Q 56.7 55.15 54.9 55.9 53.2 56.65 51.8 58.1 50.35 59.65 49.65 61.6 48.9 63.55 48.85 65.9 48.8 68.4 49.45 70.4 50.1 72.35 51.45 73.75 52.75 75.2 54.45 75.95 56.15 76.65 58.2 76.7
L 58.6 76.7 59.45 76.5 59.75 76.4 63.35 74.45 63.55 75.05 64.35 76.15 64.85 76.55 65.65 77 66.45 77.3 66.5 77.3 66.6 77.25 67.1 76.95 71.2 73.65 69.9 72.95 69.2 72.35 68.95 72.05
Q 68.4 71 68.45 69.35
L 68.45 55.3 68.4 55.3 64.15 57.1
M 61.9 60.55
Q 62.8 61.05 63.35 61.75
L 63.25 70.6
Q 62.85 70.9 61.8 71.25 60.8 71.6 59.65 71.6
L 59.5 71.6
Q 57.4 71.55 56.25 70 55.1 68.4 55.15 65.9 55.2 62.65 56.45 61.3 57.7 60 59.6 60
L 59.65 60
Q 61 60 61.9 60.55 Z"/>
</g>
</g>
</g>

<g transform="matrix( 1, 0, 0, 1, 0,0) ">
<g>
<g>
<path fill="#50B7B6" stroke="none" d="
M 89.95 70.1
Q 90.65 68.15 90.65 65.8 90.65 63.45 90.05 61.55 89.4 59.65 88.2 58.1 87 56.6 85.3 55.85 83.65 55.1 81.55 55.1 80.6 55.1 79.85 55.35
L 79.1 55.65
Q 78.7 55.8 78.25 56.05
L 76.3 57 76.3 55.3 70.55 56.2 70.55 82.65 76.25 82.65 76.3 82.6 76.3 75.8
Q 77 76.15 78.2 76.35
L 80.8 76.6
Q 82.85 76.6 84.6 75.85 86.35 75.05 87.75 73.55 89.2 72.05 89.95 70.1
M 85.2 65.75
Q 85.3 68.7 84.15 70.3 83.05 71.8 80.6 71.85
L 80.45 71.9
Q 79.25 71.85 78.25 71.6
L 77.45 71.25 76.6 70.5 76.6 61.2
Q 77.05 60.7 77.9 60.25 78.75 59.75 80.25 59.7
L 80.35 59.7
Q 82.55 59.7 83.85 61.5 85.15 63.25 85.2 65.75 Z"/>
</g>
</g>
</g>

<g transform="matrix( 1, 0, 0, 1, 0,0) ">
<g>
<g>
<path fill="#50B7B6" stroke="none" d="
M 116.75 67.1
Q 116.75 69.8 117.3 71.95 117.9 74.1 119.05 75.7 120.25 77.25 121.9 78.05 123.55 78.85 125.7 78.85
L 126.35 78.8 127.1 78.65
Q 127.85 78.5 128.4 78.1
L 130.4 76.6 130.4 78.15
Q 130.4 80.3 128.9 81.25 128.15 81.7 126.75 81.9
L 123.1 82.15 123.1 86.8 128.3 86.8 129.8 86.55 131.15 86 131.8 85.65 133.15 84.6
Q 134.1 83.75 134.7 82.8 135.3 81.85 135.6 80.85
L 136 78.65 136.1 55.75 134.9 56.25
Q 133.3 56.9 131.75 57.6 130.55 56.5 129.15 56 127.7 55.5 126.35 55.5 124.25 55.5 122.55 56.35 120.85 57.15 119.45 58.75 118.1 60.4 117.4 62.5 116.75 64.55 116.75 67.1
M 127.2 60.85
Q 128.55 60.85 129.3 61.4 130.1 61.9 130.6 62.75
L 130.6 71.65
Q 130.05 72.5 129.15 73 128.2 73.45 127.05 73.45 124.8 73.45 123.65 71.55 122.55 69.6 122.55 66.55 122.55 64.3 123.6 62.6 124.7 60.85 127.2 60.85 Z"/>
</g>
</g>
</g>

<g transform="matrix( 1, 0, 0, 1, 0,0) ">
<g>
<g>
<path fill="#50B7B6" stroke="none" d="
M 23 47.3
L 19.85 47.15
Q 17.95 47.15 16.3 47.75 14.65 48.3 13.2 49.5 11.85 50.7 11.15 52.25 10.45 53.8 10.45 55.75 10.4 57.35 10.9 58.65 11.4 59.95 12.4 60.95 13.4 61.9 14.8 62.65 16.25 63.45 18.05 64.1 21.05 65.05 22.45 65.9 23.85 66.75 23.85 68.2 23.85 69.75 22.5 70.75 21.2 71.75 18.45 71.75 16.1 71.75 13.75 70.85 11.45 69.95 10 68.95
L 9.95 68.95 9.95 74.6
Q 11.75 75.55 13.95 76.2 15.05 76.55 16.5 76.7
L 19.75 76.9
Q 22.05 76.85 23.9 76.3 25.75 75.65 27.15 74.5 28.5 73.25 29.2 71.65 29.95 70.1 29.95 68.15 29.95 66.25 29.3 64.85 28.65 63.45 27.45 62.45 26.2 61.45 24.6 60.65 22.95 59.85 21.05 59.2 18 58.2 17.25 57.35 16.5 56.5 16.5 55.2 16.5 54.05 17.65 53.1 18.75 52.15 21.05 52.15 22.85 52.15 24 52.7
L 28.4 55.05 28.35 49.3
Q 27.15 48.45 25.3 47.8 24.35 47.45 23 47.3 Z"/>
</g>
</g>
</g>

<g transform="matrix( 1, 0, 0, 1, 0,0) ">
<g>
<g>
<path fill="#50B7B6" stroke="none" d="
M 35.65 47.35
L 35.6 47.35 29.85 50.5 29.85 76.35 35.65 76.35 35.65 62.65
Q 36.35 61.95 37.45 61.4 38.5 60.8 39.9 60.8 41.55 60.8 42.35 61.65 43.1 62.5 43.15 63.6
L 43.15 76.35 48.9 76.35 48.9 61.85
Q 48.9 58.8 47.2 56.95 45.45 55.1 42.45 55.1
L 40.25 55.35
Q 39.15 55.6 38 56.25
L 35.65 57.6 35.65 47.35 Z"/>
</g>
</g>
</g>

<g transform="matrix( 1, 0, 0, 1, 0,0) ">
<g>
<g>
<path fill="#50B7B6" stroke="none" d="
M 103.35 58.45
L 103.35 55.75 103.3 55.75 95.7 57.65 97.2 58.55
Q 97.45 58.7 97.55 59
L 97.65 59.35 97.7 59.7 97.75 77 103.55 77 103.55 63.3
Q 103.85 63 104.3 62.75
L 105.2 62.1
Q 106.25 61.45 107.85 61.45 109.45 61.45 110.25 62.3 111.05 63.15 111.05 64.25
L 111.05 77 116.8 77 116.8 62.5
Q 116.8 59.45 115.1 57.6 113.35 55.75 110.35 55.75 109.25 55.75 108.1 56 107 56.3 105.9 56.9
L 103.35 58.45 Z"/>
</g>
</g>
</g>
</g>
</svg>
