
<svg xmlns="http://www.w3.org/2000/svg" version="1.1" xmlns:xlink="http://www.w3.org/1999/xlink" preserveAspectRatio="none" x="0px" y="0px" width="80px" height="80px" viewBox="0 0 80 80">
<defs/>

<g id="Layer_1">
<g transform="matrix( 1, 0, 0, 1, 0,0) ">
<g>
<path stroke="#FFFFFF" stroke-width="1.8" stroke-linejoin="miter" stroke-linecap="butt" stroke-miterlimit="3" fill="none" d="
M 20.75 57.95
Q 22.55 60.2 25.6 61.5
L 30.35 58.05
Q 30.45 58.1 30.55 58.15 32.4 59.2 34.45 59.75 34.7 59.85 35 59.9
L 35.8 65.75
Q 40.85 67.9 45.6 65.75
L 46.4 60
Q 48.85 59.3 51.15 58.05
L 55.8 61.5
Q 60.85 59.4 62.5 54.45
L 59.15 50.1
Q 60.55 47.75 61.35 45.05
L 66.95 44.4
Q 69.25 39.65 67.15 34.7
L 61.25 33.8
Q 60.55 31.1 59.25 28.85
L 62.5 24.6
Q 62 23.05 61.15 21.8 59.3 19 55.8 17.6
L 51.25 20.95
Q 48.95 19.65 46.4 18.95
L 45.6 13.3
Q 40.85 11.15 35.8 13.3
L 35.1 18.95
Q 34.75 19.05 34.45 19.15 32.15 19.8 30.15 21.05
L 25.6 17.6
Q 20.6 19.65 18.8 24.6
L 22.25 29.05
Q 21 31.2 20.3 33.7
L 14.25 34.7
Q 12.05 39.65 14.35 44.4
L 19.2 44.95
M 25.7 41.35
Q 25.6 40.45 25.6 39.55 25.6 33.3 30 28.95 30.25 28.7 30.55 28.45 32.35 26.75 34.45 25.75 37.35 24.4 40.75 24.4 47 24.4 51.45 28.95 55.8 33.3 55.8 39.55 55.8 45.85 51.45 50.2 47 54.65 40.75 54.65 37.35 54.65 34.45 53.35 32.95 52.65 31.6 51.6"/>
</g>

<g>
<path stroke="#FFFFFF" stroke-width="1.8" stroke-linejoin="round" stroke-linecap="round" fill="none" d="
M 19.2 44.95
L 25.7 41.35
M 31.6 51.6
L 30.55 52.25 20.75 57.95 15.05 61.2
Q 10.8 56.15 8.8 50.6
L 19.2 44.95
M 25.7 41.35
L 30 39.05
Q 30.15 37.85 30.45 36.65 30.5 36.5 30.55 36.35 31.65 33 34.45 31 34.85 30.7 35.3 30.45 39 28.25 43.05 29.35 45.5 29.95 47.2 31.4
L 37.8 36.75 41.75 43.6 51.15 38.35
Q 51.45 40.3 50.85 42.6 49.75 46.85 45.9 49.05 42.35 51 38.2 50 37.1 49.6 36 49.05
L 34.45 49.95 31.6 51.6"/>
</g>
</g>
</g>
</svg>
