
<svg xmlns="http://www.w3.org/2000/svg" version="1.1" xmlns:xlink="http://www.w3.org/1999/xlink" preserveAspectRatio="none" x="0px" y="0px" width="145px" height="185px" viewBox="0 0 145 185">
<defs>
<linearGradient id="Gradient_1" gradientUnits="userSpaceOnUse" x1="72.5" y1="184.9875" x2="72.5" y2="0.012499999999988631" spreadMethod="pad">
<stop  offset="0%" stop-color="#ECFBFF"/>

<stop  offset="100%" stop-color="#9CD8FF"/>
</linearGradient>

<linearGradient id="Gradient_2" gradientUnits="userSpaceOnUse" x1="72.5" y1="185.025" x2="72.5" y2="115.775" spreadMethod="pad">
<stop  offset="0%" stop-color="#ECFBFF"/>

<stop  offset="100%" stop-color="#FFFFFF"/>
</linearGradient>
</defs>

<g id="Layer_1">
<g transform="matrix( 1, 0, 0, 1, 0,0) ">
<g>
<g>
<path fill="url(#Gradient_1)" stroke="none" d="
M 145 185
L 145 0 0 0 0 185 145 185 Z"/>
</g>
</g>
</g>

<g transform="matrix( 1, 0, 0, 1, 0,0) ">
<g>
<g>
<path fill="url(#Gradient_2)" stroke="none" d="
M 145 91.05
Q 140.65 89.05 138.5 89.05 132.85 89.05 124.45 93.55 113.35 99.5 108.65 109.3 105.35 108.15 100.35 108.15 88.55 108.15 80 115.85 73.55 121.6 69.85 130.65 60.95 124.75 53.45 124.75 46.5 124.75 36.75 131.15
L 35.2 132.15
Q 32.3 127.75 28.25 125.4 23.95 122.95 18.65 122.95 13.75 122.95 8.2 125.15 3.6 126.95 0 129.65
L 0 185 145 185 145 91.05 Z"/>
</g>
</g>
</g>

<g transform="matrix( 0.76312255859375, 0, 0, 0.7629241943359375, 0,15) ">
<g>
<g>
<path fill="#00BFFF" stroke="none" d="
M 29.9 176.2
Q 23.45 176.2 19 180.65 14.55 185.15 14.55 191.55 14.55 197.9 19 202.4 23.5 206.9 29.9 206.9
L 104.2 206.9
Q 110.55 206.9 115.05 202.4 119.55 197.9 119.55 191.55 119.55 185.15 115.05 180.65 110.55 176.2 104.2 176.2
L 29.9 176.2 Z"/>
</g>
</g>
</g>

<g transform="matrix( 0.76312255859375, 0, 0, 0.7629241943359375, 0,15) ">
<g>
<g>
<path fill="#FFFFFF" stroke="none" d="
M 96.85 187.05
L 96 190.85 95.95 190.85 94.8 187.05 91.05 187.5 94.3 196 92.8 200.05 96.7 200.4 100.4 187.35 96.85 187.05
M 91 186.9
Q 90.55 186.85 90.1 186.85 87.95 186.85 87.5 188.8
L 87.45 188.8 87.45 186.85 83.95 187.2 84.05 197.3 87.7 197 87.7 192.55
Q 87.7 191.55 88.2 191.05 88.75 190.6 89.5 190.6 89.7 190.6 89.85 190.6 89.95 190.6 90.1 190.6
L 91 186.9
M 78.15 191.1
Q 77.8 190.8 77.25 190.6 76.7 190.35 75.9 190.35 75.15 190.35 74.5 190.6 73.85 190.85 73.35 191.3 72.9 191.75 72.6 192.35 72.35 192.95 72.35 193.65 72.35 194.45 72.6 195.1 72.9 195.75 73.35 196.25 73.85 196.7 74.45 196.95 75.05 197.2 75.75 197.2 76.6 197.2 77.3 196.95 78 196.7 78.5 196.05
L 78.55 196.05 78.55 197.2 82 196.9 82.2 190.4
Q 82.2 189.35 81.85 188.65 81.5 187.9 80.85 187.5 80.25 187.05 79.45 186.85 78.65 186.65 77.8 186.65 76.85 186.65 75.95 186.7 75.05 186.8 74.25 187.05
L 73.55 189.8
Q 74.25 189.6 74.9 189.45 75.55 189.3 76.3 189.3 77.15 189.3 77.65 189.55 78.15 189.8 78.15 190.6
L 78.15 191.1
M 75.55 194.55
Q 75.1 194.35 75.05 193.95 75 193.55 75.35 193.25 75.75 192.9 76.35 192.85 77.05 192.7 77.45 192.95 77.85 193.2 77.9 193.5 77.95 193.9 77.65 194.2 77.3 194.55 76.6 194.65 75.95 194.75 75.55 194.55
M 55.25 187.1
L 51.4 187.4 51.4 197.35 55.05 197.05 55.25 187.1
M 60.5 186.9
L 57 187.2 57.2 197.05 60.8 197.35 60.65 191.1
Q 60.6 190.7 60.9 190.5 61.2 190.3 61.55 190.3 61.95 190.3 62.2 190.5 62.45 190.75 62.45 191.1
L 62.35 197.3 66.1 197 66 191.1
Q 66 190.8 66.25 190.55 66.5 190.3 66.9 190.3 67.3 190.3 67.55 190.5 67.8 190.7 67.8 191.05
L 67.7 197.3 71.45 197 71.35 190.45
Q 71.3 189.7 71.1 189.05 70.9 188.4 70.5 187.9 70.1 187.4 69.5 187.15 68.9 186.9 68.1 186.9 67.4 186.9 66.85 187.15 66.3 187.45 65.85 187.9 65.4 187.4 64.85 187.15 64.3 186.9 63.5 186.9 62.5 186.9 61.8 187.3 61.1 187.75 60.55 188.5
L 60.5 188.5 60.5 186.9
M 50.4 186.9
Q 49.95 186.85 49.5 186.85 47.35 186.85 46.9 188.8
L 46.85 188.8 46.85 186.85 43.35 187.2 43.45 197.3 47.1 197 47.1 192.55
Q 47.1 191.55 47.6 191.05 48.15 190.6 48.9 190.6 49.1 190.6 49.25 190.6 49.35 190.6 49.5 190.6
L 50.4 186.9
M 55.35 182.85
L 51.35 183.05 51.35 186.2 55.1 185.9 55.35 182.85
M 36.75 183.15
Q 35.2 183.3 31.95 183.7
L 32.2 197.2 36.4 197.6 36.45 194.5
Q 37.9 194.25 39.1 193.55 40.25 192.9 41.1 192 41.95 191.1 42.5 190 43 188.95 43.15 187.9 43.35 186.85 43.15 185.9 42.9 184.95 42.35 184.25 41.75 183.55 40.7 183.2 39.7 182.85 38.25 183
L 36.75 183.15
M 38.5 187.8
Q 38.55 188.05 38.55 188.2 38.55 188.35 38.55 188.4 38.5 188.55 38.35 188.8 38.15 189.1 37.85 189.35 37.55 189.65 37.1 189.95 36.6 190.2 36 190.35
L 36.2 187.55
Q 37 187.25 37.5 187.2 38 187.2 38.2 187.4 38.45 187.55 38.5 187.8 Z"/>
</g>
</g>
</g>

<g transform="matrix( 0.7631072998046875, 0, 0, 0.7628936767578125, 0,15) ">
<g>
<g>
<path fill="#FFFFFF" stroke="none" d="
M 176.6 135.5
Q 174.6 135.45 173.6 135.35
L 135.25 130
Q 133.55 129.75 132.4 130.3 132.3 130.3 132.25 130.35 130.2 131.15 129.9 132.8 126.05 143.8 123.15 151.1
L 123.15 151.05
Q 119.55 158.95 117.05 164.55 116.65 165 116.45 165.7 114.75 169.2 113.55 171.6
L 113.55 171.7
Q 112.8 172.95 113.3 174.3 113.6 175.35 114.5 176.15
L 120.55 181.7
Q 121 182.05 121.45 182.35 121.3 182.35 121.15 182.3 120.55 182.2 119.95 182.3 118.25 182.3 117.15 183.2 117.05 183.2 117.05 183.25 117 183.25 117 183.35 115.15 184.6 115.65 186.75 115.95 190.25 116.1 192.4 116.05 192.6 116.15 192.65 116.35 196.5 116.5 198.35
L 116.55 198.15
Q 116.4 199.6 117.7 200.85 118.45 201.6 119.7 202.1
L 119.8 202.1
Q 126.85 204.25 135.8 205.5 149.6 207.45 159.65 204.9 161.85 204.2 163.9 203.45
L 163.9 203.5
Q 174.85 199.25 178.2 190.05
L 178.1 190.05
Q 179.1 187.65 179.5 184.9 180.4 178.4 177.1 172.85
L 177.1 173.1
Q 176.9 172.6 176.6 172.25 175.15 169.95 172.95 167.85 170.35 165.35 167.25 163.55
L 168 163.65
Q 168.6 163.7 169.15 163.7 169.9 163.65 170.8 163.4 170.95 163.35 171.1 163.3 172.7 162.5 173.2 161.15
L 181.6 141.05
Q 182.2 139.5 181.5 138.1 181.1 136.95 179.75 136.35 179.5 136.15 179.3 136 178.05 135.35 176.6 135.5
M 125.35 183.05
Q 131.3 181.9 137.7 182.8 141.85 183.35 143.7 184.65
L 143.7 184.75
Q 144.25 185.15 144.35 185.6 143.1 188.05 133.9 186.75 128.45 186 123.1 182.95 124.2 183.2 125.3 183.05
L 125.35 183.05 Z"/>
</g>
</g>
</g>

<g transform="matrix( 0.7631072998046875, 0, 0, 0.7628936767578125, 0,15) ">
<g>
<g>
<path fill="#FBB004" stroke="none" d="
M 143.45 199.45
L 151.7 201.05
Q 157.65 200.55 162.5 198.75 170.35 195.75 173.5 189.55 164 199.5 143.45 199.45 Z"/>

<path fill="#DA9903" stroke="none" d="
M 139.35 199.35
L 138.3 199.3
Q 130.9 198.85 122.25 197.3 128.85 199.4 137.25 200.55 145.15 201.7 151.7 201.05
L 143.45 199.45
Q 141.4 199.45 139.35 199.35 Z"/>

<path fill="#BE6105" stroke="none" d="
M 121.9 191.45
Q 122.15 195.45 122.25 197.3 130.9 198.85 138.3 199.3 130.85 198.65 124.15 195.65
L 121.35 185.45
Q 121.7 189.15 121.9 191.45
M 125.4 167.5
Q 123.65 166.85 122.05 166.25 120.2 170.05 118.85 172.5
L 124.95 178
Q 131.8 176.8 139.15 177.85 148.1 179.1 149.9 182.8 149.95 183.05 150.1 183.35 150.8 175.9 123.5 174.1
L 125.4 167.5 Z"/>

<path fill="#D27E02" stroke="none" d="
M 129.85 152.25
Q 128.55 153.4 127.35 154.7 124.25 161.5 122.05 166.25 123.65 166.85 125.4 167.5
L 129.85 152.25 Z"/>

<path fill="#EA8D04" stroke="none" d="
M 128.6 151.7
Q 127.9 153.2 127.35 154.7 128.55 153.4 129.85 152.25
L 135.55 133.15
Q 131.5 144.25 128.6 151.7 Z"/>

<path fill="#953E04" stroke="none" d="
M 120.85 184.6
L 121.35 185.45
Q 127.75 189 134.25 189.9 147.35 191.75 149.7 186.95 150.15 186.25 150.25 185.4 150.4 184.35 150.1 183.35 149.95 183.05 149.9 182.8 148.05 184.1 145.05 182.8 146.85 184.05 146.75 185.95 145.7 190.75 133.6 189.05 127.7 188.2 121.9 184.95 121.45 184.75 120.85 184.6 Z"/>

<path fill="#AF4703" stroke="none" d="
M 118.65 166.45
Q 116.85 170.2 115.6 172.65 115.35 173.15 115.5 173.6 115.65 174.1 116.05 174.45
L 122.05 179.95
Q 122.6 180.35 123.4 180.65 124.15 180.85 124.9 180.7 131.25 179.55 138.05 180.5 143 181.2 145.05 182.8 148.05 184.1 149.9 182.8 148.1 179.1 139.15 177.85 131.8 176.8 124.95 178
L 118.85 172.5
Q 120.2 170.05 122.05 166.25
L 118.65 166.45
M 176 189.15
Q 176.85 187.05 177.2 184.6 178 178.9 175.05 174.05
L 173.35 173.45
Q 176.2 178.05 175.45 183.35 175 186.8 173.5 189.55 170.35 195.75 162.5 198.75 157.65 200.55 151.7 201.05 145.15 201.7 137.25 200.55 128.85 199.4 122.25 197.3 122.15 195.45 121.9 191.45 121.7 189.15 121.35 185.45
L 120.85 184.6
Q 120.5 184.55 120.1 184.55 119.05 184.55 118.45 185.1 117.75 185.55 117.9 186.3 118.2 190 118.4 192.25 118.7 196.3 118.8 198.15 118.8 198.65 119.25 199.1 119.75 199.6 120.5 199.85 127.4 202 136.15 203.2 149.4 205.05 159 202.6 161.15 202.05 163 201.3 172.95 197.5 176 189.15 Z"/>

<path fill="#F98006" stroke="none" d="
M 175.45 183.35
Q 176.2 178.05 173.35 173.45 148.1 175.4 125.4 167.5
L 123.5 174.1
Q 150.8 175.9 150.1 183.35 150.4 184.35 150.25 185.4 150.15 186.25 149.7 186.95 147.35 191.75 134.25 189.9 127.75 189 121.35 185.45
L 124.15 195.65
Q 130.85 198.65 138.3 199.3
L 139.35 199.35
Q 141.4 199.45 143.45 199.45 164 199.5 173.5 189.55 175 186.8 175.45 183.35 Z"/>

<path fill="#FF9900" stroke="none" d="
M 169.5 158.6
L 173.35 149.4
Q 144 140.6 129.85 152.25
L 125.4 167.5
Q 148.1 175.4 173.35 173.45 172.05 171.45 170.1 169.55 163.85 163.6 153.9 162.2 146.95 161.25 139.8 161.45
L 143.45 154.95 169.5 158.6 Z"/>

<path fill="#CF5605" stroke="none" d="
M 168.3 161.35
Q 168.7 161.4 169.1 161.35
L 169.5 158.6 143.45 154.95 139.8 161.45
Q 146.95 161.25 153.9 162.2 163.85 163.6 170.1 169.55 172.05 171.45 173.35 173.45
L 175.05 174.05
Q 174.9 173.85 174.7 173.65 173.35 171.45 171.3 169.5 164.35 162.85 153.3 161.3 148.1 160.6 142.85 160.45
L 144.25 157.95 168.3 161.35
M 178.3 138.1
L 178.3 138.05
Q 177.6 137.7 176.7 137.75 174.5 137.75 173.4 137.7
L 134.9 132.3
Q 133.9 132.15 133.15 132.45 132.35 132.8 132.15 133.4 128.2 144.55 125.25 151.95 121.55 160.2 118.95 165.85 118.75 166.1 118.65 166.45
L 122.05 166.25
Q 124.25 161.5 127.35 154.7 127.9 153.2 128.6 151.7 131.5 144.25 135.55 133.15
L 174.1 138.55 178.3 138.1 Z"/>

<path fill="#FD751C" stroke="none" d="
M 179.05 141.1
L 177.25 140.15 173.35 149.4 169.5 158.6 169.1 161.35
Q 169.6 161.35 170.05 161.15 170.85 160.8 171.05 160.25
L 179.05 141.1 Z"/>

<path fill="#FDA624" stroke="none" d="
M 177.25 140.15
L 177.8 138.6
Q 175.3 138.65 174.1 138.55
L 135.55 133.15 129.85 152.25
Q 144 140.6 173.35 149.4
L 177.25 140.15 Z"/>

<path fill="#FE8E45" stroke="none" d="
M 179.35 139.05
Q 179.1 138.45 178.3 138.1
L 174.1 138.55
Q 175.3 138.65 177.8 138.6
L 177.25 140.15 179.05 141.1 179.5 140.15
Q 179.7 139.6 179.35 139.05 Z"/>
</g>
</g>
</g>

<g transform="matrix( 0.763092041015625, 0, 0, 0.76287841796875, 0,15) ">
<g>
<g>
<path fill="#FFFFFF" fill-opacity="0.25098039215686274" stroke="none" d="
M 151.75 182.55
Q 146.2 173.05 126.6 174.15
L 121.1 170.7 126.2 176.9
Q 142.05 172.8 151.75 182.55
M 137.95 134.6
L 133.55 142.95
Q 140.85 132.95 162.15 139.45 155.25 135.3 137.95 134.6
M 165.3 196.75
Q 176.1 190.35 170.4 178.7
L 169.65 178.6
Q 168.35 205.15 126.05 196.5 153.85 203.55 165.3 196.75 Z"/>
</g>
</g>
</g>

<g transform="matrix( 0.763092041015625, 0, 0, 0.76287841796875, 0,15) ">
<g>
<g>
<path fill="#FFFFFF" stroke="none" d="
M 130.4 196.15
Q 128.2 195.05 128.4 194.65 128.15 195.2 128.05 195.8 128.2 196.25 128.8 196.8 130 197.8 132.55 198.2 133.45 198.3 134.45 198.3 134.45 198.2 134.5 198.05 134.6 198 133.65 197.6 132.6 197.25 130.4 196.15
M 136.9 137.95
Q 137.05 138.15 137.6 138.25 138.05 137 140.75 136.5 140.8 136.15 140.7 136.05 140.55 136 140.55 135.9 138.25 134.85 137.35 135.75 136.95 136.15 136.8 137.25 136.75 137.7 136.9 137.95
M 168.65 190.15
Q 168.75 190.5 169.2 190.7 169.6 191.05 170.1 191 170.75 190.95 171 190.65 171.4 190.3 171.25 190 171.15 189.6 170.7 189.4 170.3 189.1 169.7 189.15 169.25 189.2 168.9 189.45 168.6 189.75 168.65 190.15
M 170.95 182.45
Q 170.9 182.75 170.95 183.1 170.85 184.95 170.85 185.75 170.8 187.05 171.25 187.3 171.7 187.5 171.95 187.6
L 172.35 187.75
Q 173.35 185.95 173.4 183.75 173.4 180.7 171.85 176.95 168.7 169.75 161.1 165.45 158.7 164.05 156.5 163.65
L 156.45 163.8
Q 161.85 166.2 167.5 173 170.9 177.15 170.95 182.45 Z"/>
</g>
</g>
</g>

<g transform="matrix( 1, 0, 0, 1, 0,0) ">
<g>
<g>
<path fill="#014776" stroke="none" d="
M 86.6 35.7
Q 85.7 34.55 85 34.3
L 78.05 36.65
Q 77.2 36.7 76.65 37.3 76.15 37.95 76.15 38.8
L 76.45 45.05 76.3 44.05
Q 76.25 43.75 76.1 43.5 75.65 42.45 74.9 41.75 74.15 40.9 73.5 41
L 72.75 39.7
Q 72.35 38.35 70.7 37.05 70.5 36.9 70.15 36.95 69.7 36.95 69.4 37.15
L 63.55 43.4
Q 63.05 43.75 62.85 44.35 62.65 44.85 62.75 45.4 62.4 45.65 62.1 46.05 61.7 46.8 61.9 47.6
L 61.95 48.05
Q 61.55 47.9 61.15 47.75 59.45 47.25 57.6 47.55 55.9 47.7 54.25 48.25 52.7 48.9 51.2 49.55 49.65 50.35 48.15 51.45 47.7 51.8 47.45 52.35 47.25 52.9 47.3 53.45
L 48 58.7
Q 48.1 59.35 48.55 59.8 48.45 59.9 48.4 60.05
L 30.45 43.4
Q 29.9 42.9 29.15 42.9 28.45 42.8 27.8 43.25 27.2 43.65 27 44.35
L 23.9 54.35 12.45 49.2
Q 11.55 48.85 10.85 49.1 10.15 49.25 9.75 49.95 9.35 50.5 9.45 51.45
L 12.55 80.1
Q 12.6 80.5 13.45 81.45 14.25 82.5 14.85 82.75 15.25 82.9 15.7 83 16.1 83.05 17 83.15 18.7 83.3 22.15 83.55
L 25.25 83.65
Q 27.95 83.9 28.6 82.9 28.95 82.35 28.75 81.2
L 27.25 73.1 33.3 77.7
Q 34.25 78.2 34.9 78.05 35.4 77.95 35.65 77.85 35.9 77.7 36.15 77.45 36.65 76.9 36.7 76.05
L 36.1 69.4 42.6 76.35
Q 43.8 77.35 45.1 76.7 45.7 76.4 46 75.7
L 49.55 67.85
Q 49.85 68.25 50.15 68.55
L 50.2 68.65
Q 50.95 69.6 52.6 70.35 54.45 71.25 56.1 71.1 56.15 71.1 57.2 70.9 58.3 70.75 58.9 70.5
L 69.05 66.4
Q 69.7 66.1 70.05 65.3 70.15 64.95 70.25 64.7 71.45 65.15 73.2 65.15 75 65.15 76.8 64.6 77.15 64.5 78.15 64.15 78.3 64.15 78.4 64.05 78.8 64.25 79.2 64.25
L 85.9 64.6
Q 86.5 64.6 87.05 64.35 87.1 64.35 87.15 64.3 87.7 64.5 88.3 64.45
L 94.95 63.7
Q 95.8 63.6 96.3 63 96.85 62.4 96.85 61.6
L 96.6 50
Q 96.6 48.35 96.1 46.95 95.9 46.3 94.7 44.6 93.6 43.1 93.4 42.9 93.25 42.85 92.6 42.45 91.95 42.1 91.75 41.95 90.6 41.5 89.15 41.8 87.75 42.2 87.55 42.25
L 87.55 37.95
Q 87.5 36.9 86.6 35.7 Z"/>
</g>
</g>
</g>

<g transform="matrix( 1, 0, 0, 1, 0,0) ">
<g>
<g>
<path fill="#0380D1" stroke="none" d="
M 86.05 36.1
Q 86 35.05 85.3 34.45 84.6 33.9 83.65 34
L 76.6 34.8
Q 75.7 34.85 75.15 35.5 74.65 36.15 74.7 36.95
L 75 43.25 74.8 42.2
Q 74.75 41.9 74.65 41.65 74.2 40.85 73.2 40.6 72.4 40.4 72 40.55
L 71.3 37.9
Q 71.15 37.25 70.45 36.85 69.85 36.55 69.25 36.65 68.7 36.65 68.1 37.1
L 62.05 41.55
Q 61.6 41.95 61.35 42.45 61.15 43.05 61.25 43.55 60.95 43.8 60.65 44.2 60.15 44.95 60.4 45.8
L 60.45 46.2
Q 60.05 46.05 59.65 45.9
L 59.7 45.95
Q 57.95 45.45 56.1 45.65 54.4 45.85 52.75 46.4 51.2 47 49.7 47.75 48.15 48.55 46.65 49.65 46.2 50 46 50.5 45.75 51.05 45.8 51.6
L 46.55 56.8
Q 46.65 57.5 47.05 57.9
L 47.05 57.95
Q 46.95 58.05 46.95 58.2
L 28.95 41.6
Q 28.45 41.1 27.65 41.05 26.95 40.95 26.35 41.4 25.7 41.8 25.5 42.55
L 22.4 52.5 10.95 47.35
Q 10.05 46.95 9.35 47.25 8.65 47.45 8.25 48.1 7.9 48.7 7.95 49.55
L 12.2 79.3
Q 12.4 80.5 13.35 80.9 13.75 81.05 14.25 81.15 14.6 81.2 15.55 81.3 17.25 81.5 20.65 81.7
L 23.75 81.85
Q 26.5 82.05 27.15 81.05 27.45 80.5 27.3 79.35
L 25.8 71.25 31.85 75.9
Q 32.75 76.4 33.45 76.25 33.9 76.1 34.15 76 34.4 75.9 34.7 75.6 35.2 75.05 35.2 74.25
L 34.6 67.55 41.15 74.5
Q 42.3 75.5 43.6 74.85 44.2 74.55 44.55 73.85
L 48.1 66.05
Q 48.35 66.4 48.65 66.75
L 48.7 66.75
Q 49.45 67.75 51.1 68.55 53 69.45 54.6 69.3 54.7 69.3 55.7 69.1 56.8 68.9 57.45 68.65
L 67.55 64.55
Q 68.25 64.25 68.6 63.5 68.7 63.2 68.75 62.85 69.95 63.35 71.7 63.35 73.55 63.35 75.3 62.8 75.65 62.65 76.65 62.35 76.8 62.25 76.95 62.25 77.3 62.4 77.7 62.4
L 84.4 62.75
Q 85 62.8 85.55 62.5 85.6466796875 62.5 85.65 62.4
L 85.65 62.45
Q 86.2 62.7 86.8 62.6
L 93.5 61.85
Q 94.3 61.75 94.85 61.15 95.4 60.55 95.4 59.75
L 95.15 48.2
Q 95.15 46.5 94.65 45.1
L 94.65 45.05
Q 94.2 43.8 93.15 42.6 93.05 42.45 92.75 42.2 92.45 41.9 92.35 41.8 92.2 41.7 91.5 41.3 90.85 40.9 90.65 40.85 89.5 40.3 87.85 40.3 86.65 40.3 86.05 40.45
L 86.05 36.1 Z"/>
</g>
</g>
</g>

<g transform="matrix( 1, 0, 0, 1, 0,0) ">
<g>
<g>
<path fill="#FFFFFF" stroke="none" d="
M 33.1 74.2
L 32.3 62.6 42.6 73.05 47.7 61.85 27.5 43.2 23.75 55.4 10.1 49.35 14.35 79.1 25.3 80.1 22.8 66.25 33.1 74.2
M 69.4 38.85
L 63.35 43.3 63.8 45.05 62.45 45.4 63.55 50.85 65.15 50.5 66.6 56.9
Q 67.3 59.8 69.2 60.75 71.15 61.7 73.95 61 74.45 60.95 74.85 60.8 75.3 60.65 75.95 60.45
L 75.5 54.05
Q 75 54.3 74.8 54.35 74.05 54.5 73.85 54.55 73.55 54.6 73.3 54.5 73.15 54.35 72.9 53.6
L 71.85 48.9 73.7 48.45 72.75 42.6 70.5 43.5 69.4 38.85
M 56.3 47.8
Q 54.95 47.9 53.55 48.45 52.1 49 50.65 49.7 49.25 50.4 47.95 51.35
L 48.65 56.6
Q 49.85 55.8 50.85 55.1 51.8 54.5 53 54.05 54.2 53.6 55 53.7 55.9 53.8 56.3 54.9
L 56.5 55.4
Q 56.15 55.1 55.1 55 54.05 54.95 52.75 55.45 51.45 55.9 50.5 56.75 49.65 57.55 49.15 58.55 48.55 59.65 48.55 60.75 48.45 61.9 48.9 63.1 49.35 64.45 50.25 65.35 51.1 66.3 52.1 66.75 53.2 67.25 54.35 67.3 55.55 67.35 56.75 66.9 58.1 66.4 59.1 65.55 59.95 64.8 60.3 63.95
L 60.8 65.4 66.65 62.7 63.05 51.95
Q 62.45 50.3 61.45 49.3 60.4 48.4 59.1 48 57.8 47.65 56.3 47.8
M 54 60.8
Q 54.3 60.15 55.1 59.6 55.5 59.35 56.2 59.2 56.95 59.05 57.4 59.45 57.75 59.8 57.7 60.1 57.75 60.4 57.55 60.75 57.15 61.45 56.45 61.85 55.45 62.4 54.75 62.25 54.05 62.25 53.9 61.75 53.75 61.3 54 60.8
M 85.2 48.85
Q 85.65 48.8 85.95 49.05 86.2 49.3 86.2 49.7
L 86.6 60.6 93.25 59.8 93.05 48.25
Q 93.05 47 92.65 46 92.3 44.85 91.6 44.05 90.85 43.25 89.8 42.8 88.85 42.4 87.55 42.4 86.25 42.45 85.3 42.9 84.5 43.25 84 43.9
L 83.9 36.15 76.8 36.95 77.85 60.3 84.55 60.7 84.2 49.85
Q 84.15 49.35 84.5 49.1 84.75 48.9 85.2 48.85 Z"/>
</g>
</g>
</g>

<g transform="matrix( 1, 0, 0, 1, 0,0) ">
<g>
<g>
<path fill="#5FCEFE" stroke="none" d="
M 24.6 55.7
Q 24.5 55.9 24.3 56.1 24.1 56.25 23.9 56.3 23.6 56.3 23.3 56.2
L 23.35 56.25 11.2 50.75 15.05 78.35 24.3 79.15 21.9 66.45
Q 21.8 65.75 22.3 65.45 22.85 65.15 23.3 65.6
L 32.1 72.35 31.4 62.7
Q 31.4 62 31.95 61.75 32.45 61.55 32.95 62
L 42.3 71.55 46.7 62.05 27.95 44.75 24.6 55.7
M 33.25 61.75
Q 32.6 61 31.75 61.3 30.9 61.65 31 62.7
L 31.6 71.4 23.6 65.2
Q 22.85 64.6 22.15 65.05 21.35 65.45 21.5 66.5
L 23.7 78.55 15.45 77.85 11.8 51.55 23.2 56.6 23.25 56.6
Q 23.6 56.75 23.95 56.75 24.3 56.65 24.6 56.45 24.9 56.1 24.95 55.85
L 28.15 45.6 46.1 62.2 42.2 70.75 33.25 61.75
M 64.65 45
Q 64.8 45.65 64 46
L 63.4 46.15 64.2 49.85 64.9 49.65
Q 65.25 49.5 65.55 49.75 65.9 49.95 65.95 50.3
L 67.5 56.75
Q 68.05 59.1 69.65 59.95 70.6 60.4 71.5 60.45 72.65 60.45 74.5 60
L 75 59.75 74.7 55.25
Q 73.85 55.45 73.5 55.45 73.05 55.5 72.65 55.15 72.25 54.85 72.15 54.3
L 70.95 49.15
Q 70.9 48.3 71.6 48.05
L 72.75 47.8 72.1 43.75 70.85 44.35
Q 70.6 44.4 70.35 44.35
L 70.3 44.35
Q 70.05 44.3 69.85 44.15 69.7 43.95 69.65 43.7
L 68.9 40.35 64.35 43.75 64.65 45
M 65.05 44.75
L 64.85 43.9 68.6 41.1 69.2 43.75
Q 69.3 44.15 69.6 44.45 69.9 44.7 70.3 44.8 70.6 44.85 70.95 44.7
L 71.75 44.4 72.25 47.45 71.55 47.6
Q 71 47.7 70.65 48.25 70.45 48.6 70.55 49.2
L 71.6 53.9
Q 71.9 55.15 72.5 55.65 73.05 56.05 74.1 55.9
L 74.35 55.8 74.55 59.45
Q 74.1 59.65 73.7 59.7
L 73.65 59.75
Q 71.35 60.25 69.85 59.6 68.4 58.8 67.9 56.6
L 66.4 50.15
Q 66.25 49.7 65.8 49.35 65.35 49.1 64.8 49.2
L 64.75 49.2 64.6 49.25 64.05 46.45 64.25 46.35
Q 65.35 45.95 65.05 44.75
M 56.45 48.65
Q 55.15 48.85 53.9 49.3 52.55 49.8 50.65 50.8 49 51.7 48.9 51.8
L 49.3 55.15
Q 49.85 54.65 50.65 54.2 51.8 53.45 52.7 53.15 53.5 52.9 53.6 52.9 54.5 52.7 55.2 52.8 55.9 53 56.35 53.4 56.85 53.8 57.15 54.6
L 57.35 55.1
Q 57.45 55.4 57.35 55.65 57.2 56.1 57 56.1 56.9 56.15 56.2 56.1 55.5 55.95 55.3 55.95 54.55 55.95 54.2 55.95 53.45 56.1 52.7 56.45 51.8 56.8 50.95 57.55 48.75 59.8 49.7 62.75 50.1 63.9 50.85 64.75
L 51.3 65.2
Q 51.85 65.7 52.45 65.95 53.4 66.4 54.3 66.4 55.2 66.4 56.3 66.1 57.45 65.75 58.4 65.05 59.2 64.35 59.5 63.6 59.65 63.25 60 63.15 60.35 63 60.65 63.15 61 63.25 61.15 63.65
L 61.3 64.15 65.55 62.25 62.1 51.95
Q 61.6 50.7 60.85 49.95 60 49.2 58.9 48.9 57.75 48.55 56.45 48.65
M 61.6 63.55
Q 61.4 62.95 60.9 62.7 60.35 62.5 59.85 62.7 59.25 62.95 59.1 63.4 58.8 64.1 58.25 64.5 57.45 65.2 56.45 65.6 55.65 65.9 55 65.95 53.8 66.05 52.7 65.6 51.9 65.2 51.25 64.55 50.5 63.85 50.1 62.6 49.45 60.8 50.35 59.15 50.95 57.95 52.15 57.2 53.5 56.35 54.95 56.35 55 56.35 56 56.45 57.1 56.65 57.25 56.5 57.65 56.2 57.75 55.8 57.9 55.35 57.7 54.95
L 57.55 54.45
Q 57.2 53.6 56.7 53.1 56.25 52.7 55.5 52.5 54.7 52.25 53.4 52.55 52.3 52.8 50.9 53.6 49.85 54.2 49.65 54.35
L 49.4 52
Q 49.8 51.7 51.2 50.95 52.45 50.35 53.1 50.1
L 54.05 49.7
Q 55.35 49.2 56.5 49.1 58.6 48.85 60.15 49.95 61.45 50.85 61.8 52.4
L 65 62 61.6 63.55
M 54.2 58.65
Q 53.7 59 53.3 59.4 53.05 59.65 52.8 60 52.2 61.1 52.7 62.25 53.15 63.35 54.35 63.6 55.25 63.75 56.1 63.5
L 56.15 63.5
Q 57.1 63.1 57.9 62.4 58.7 61.65 58.9 60.65 59.2 59.5 58.4 58.7 57.55 57.75 56.3 57.95 55.2 58 54.2 58.65
M 53.15 60.3
Q 53.45 59.8 53.65 59.65 53.95 59.3 54.4 59 55.35 58.4 56.3 58.35 57.4 58.2 58.1 59 58.7 59.65 58.5 60.6 58.3 61.5 57.6 62.1 56.9 62.65 56 63 56 63.05 55.95 63.05 55.2 63.3 54.4 63.2 53.5 63 53.1 62.1 52.7 61.2 53.15 60.3
M 84.65 44.5
Q 84.3 44.95 83.7 44.7 83.05 44.5 83.1 43.85
L 83.05 37.15 77.75 37.75 78.65 59.5 83.65 59.75 83.3 49.8
Q 83.3 49.15 83.6 48.7 84.05 48 85.15 47.95 85.7 47.9 86.25 48.25 86.55 48.4 86.7 48.55 86.85 48.7 87 49.05 87.1 49.35 87.1 49.7
L 87.45 59.55 92.4 59 92.15 48.3
Q 92.15 47.15 91.8 46.25 91.6 45.6 91.25 45.05 90.5 43.95 89.15 43.5 88.45 43.25 87.55 43.3 86.55 43.35 85.75 43.75 85.7 43.75 85.65 43.75 85.05 44.05 84.65 44.5
M 82.7 43.95
Q 82.7 44.85 83.5 45.2 84.3 45.55 84.95 44.85 86.25 43.4 88.6 43.9 90.55 44.2 91.3 46.05 91.75 47.05 91.75 48.3
L 91.95 58.65 87.85 59.1 87.5 49.7
Q 87.5 48.75 86.9 48.15 86.25 47.5 85.25 47.5
L 85.1 47.5
Q 84.3 47.55 83.65 48 82.75 48.65 82.85 49.85
L 83.2 59.3 79.15 59.1 78.2 38.1 82.55 37.6 82.7 43.95 Z"/>
</g>
</g>
</g>

<g transform="matrix( 1, 0, 0, 1, 0,0) ">
<g>
<g>
<path fill="#014776" stroke="none" d="
M 110.15 66.1
Q 110 65.85 109.1 65.15 108.1 64.35 107.85 64.35
L 102.85 65.45
Q 102.3 65.45 101.95 65.65
L 101.65 65.85
Q 101.6 65.8 101.5 65.75 100.95 65.55 100.35 65.65
L 94.8 66.45
Q 93.9 66.6 93.4 67.3 92.9 68 92.95 68.8
L 93.25 71.05
Q 93.2 71.05 93.05 71.05 91.1 71.25 89.55 72.05
L 89.5 72.1
Q 88.9 72.5 88.45 72.85 88.4 72.85 88.35 72.9 88.3 72.95 88.2 73.05
L 88.15 73.1
Q 88.1 73.1 88.1 73.15 87.85 73.35 87.6 73.65 87.4 73.8 87.25 74.05
L 86.2 69.2
Q 86 68.5 85 67.55 83.95 66.6 83.1 66.55
L 77.75 69.55
Q 76.25 70 76.7 71.9
L 77.25 74
Q 77.15 74.05 77.1 74.1 75.1 74.5 73.8 75.6
L 73.75 75.6
Q 72.75 76.4 72.2 77.25 72 76.9 71.65 76.55 71.15 75.8 70.65 75.6 70.15 75.25 69.75 75.05 69.05 74.7 68.8 74.8
L 64.05 77.7
Q 63.4 77.6 62.9 77.85
L 57.75 79.6
Q 57.2 79.8 56.85 80.2 56.65 80.4 56.55 80.6 56.15 81.4 56.4 82.15
L 57 84.45
Q 56.45 84.25 55.9 84.1 56.15 83.15 56.2 82.3 56.2 80.9 55.45 79.3 54.55 77.35 52.95 76.35 51.85 75.5 51.2 75.1 50 74.45 48.7 74.45 48.35 74.45 47.3 74.85 46.1 75.45 45.5 75.6 44 76.25 42.15 77.05 41.3 77.45 40.05 78.1 38.95 78.7 38.8 78.8 36.8 79.95 34.05 81.75 33.35 82.2 33.1 83 32.9 83.7 33.2 84.4
L 41.1 105
Q 41.25 105.4 42.6 106.15 44.1 106.9 44.8 106.7 49.3 105.35 51.6 104.4 54.35 103.25 56 102.4 58.9 100.7 59.75 99.7 60.8 98.5 61.15 97.45 61.6 96.2 61.8 95.4 63.7 96.55 66.35 95.85 67.6 95.55 68.65 94.8 69.2 94.9 69.7 94.75
L 74.05 93.35
Q 74.8 93.15 75.25 92.4 75.5 91.9 75.5 91.35 76.5 91.9 77.65 92.05 79.3 92.4 80.85 92 81.9 91.75 82.9 91.25 83.5 91.35 84 91.25
L 88.65 89.85
Q 89.5 89.65 89.85 88.9 90 88.75 90.1 88.65 90.5 88.8 91 89
L 91.05 89
Q 92.55 89.5 94.15 89.45
L 94.2 89.45
Q 95.3 89.3 96.4 88.95 96.9 89.2 97.45 89.1
L 101.9 88.45 102.1 88.6
Q 102.65 88.75 102.85 88.7
L 108.25 88.45
Q 109.45 88.35 111.2 87.25 111.5 87.6 112.75 88.15 114.3 88.85 115.85 89 117.95 89.15 119.8 88.8 120.85 88.6 121.55 88.3 122 88.55 123.35 89.1 125.15 89.9 126.25 90.1 128 90.4 129.05 90.4 130.6 90.5 131.85 90.05 133.5 89.4 134.45 88.4 135.6 87.15 135.9 85.6 136.3 83.6 135.9 82.4
L 135.55 81.55
Q 135.95 81.1 136.15 80.45
L 137 76.25
Q 137.25 74.8 136.4 74.2 134.6 72.95 134.3 72.85 132.8 72.35 130.75 72.2 129.1 72.05 128.25 72.2 126.55 72.5 125.45 73.15 124.7 73.6 124.2 74.15 124.05 74.2 123.9 74.45 123.45 73.65 122.65 72.95
L 122.35 72.75
Q 120.3 71 117.3 70.75 115.4 70.55 113.8 71.1
L 113.85 71.1
Q 113 71.25 112.1 71.8
L 112.05 71.8
Q 111.25 72.25 110.95 72.55
L 110.55 72.95 110.6 72.1
Q 110.6 71.45 110.6 71.25
L 110.6 67.5
Q 110.6 67.05 110.5 66.6 110.45 66.5 110.4 66.4 110.3 66.25 110.25 66.15 110.2 66.1 110.15 66.1 Z"/>
</g>
</g>
</g>

<g transform="matrix( 1, 0, 0, 1, 0,0) ">
<g>
<g>
<path fill="#0380D1" stroke="none" d="
M 108.5 64.95
L 108.4 64.85
Q 108.2 64.5 107.8 64.3 107.25 64 106.7 64
L 101.1 64.2
Q 100.6 64.2 100.2 64.45
L 99.95 64.65
Q 99.8 64.6 99.75 64.55 99.15 64.35 98.65 64.45
L 93.05 65.25
Q 92.15 65.4 91.65 66.1 91.1 66.75 91.2 67.6
L 91.45 69.85
Q 91.4 69.85 91.35 69.85 91.3 69.85 91.25 69.85 89.35 70 87.8 70.9 87.75 70.9 87.7 70.9 87.15 71.25 86.7 71.65
L 86.65 71.7
Q 86.55 71.75 86.45 71.9
L 86.35 71.9
Q 86.1 72.15 85.85 72.45 85.65 72.6 85.5 72.85
L 84.45 68
Q 83.95 65.8 81.4 66.7
L 75.95 68.35
Q 74.5 68.8 74.95 70.65
L 75.5 72.85
Q 75.45 72.85 75.35 72.85 73.35 73.35 72.05 74.35 72 74.4 71.95 74.4 70.95 75.25 70.4 76.05 70.25 75.65 69.9 75.3 69.55 74.85 68.9 74.8 68.3 74.6 67.75 74.8
L 62.25 76.55
Q 61.65 76.4 61.1 76.6
L 56 78.45
Q 55.5 78.65 55.1 78.95 54.95 79.2 54.8 79.45 54.4 80.15 54.65 80.9
L 55.25 83.3
Q 54.7 83.05 54.15 82.9 54.35 81.95 54.4 81.1
L 54.4 81.05
Q 54.45 79.75 53.6 78 52.6 75.95 51.15 75.1 48.75 73.8 46.35 73.8 45.45 73.8 43.8 74.45 42.25 75 40.35 75.9 39.6 76.25 38.3 76.9 37.2 77.5 37.05 77.55 35 78.7 32.3 80.6 31.6 81.05 31.35 81.8 31.15 82.5 31.45 83.2
L 40.5 104.3
Q 40.85 105.1 41.6 105.4 42.3 105.7 43.05 105.5 47.6 104.15 49.85 103.2 52.6 102.05 54.25 101.2 57.2 99.45 58 98.5 59.05 97.3 59.35 96.25 59.85 95.05 60 94.2 61.95 95.4 64.6 94.65 65.85 94.3 66.9 93.6 67.4 93.7 67.9 93.55
L 72.25 92.15
Q 73.05 91.95 73.5 91.2 73.75 90.7 73.75 90.15 74.75 90.7 75.9 90.85 77.55 91.2 79.1 90.85 80.15 90.55 81.15 90.05 81.75 90.15 82.25 90.05
L 86.9 88.65
Q 87.7 88.45 88.15 87.7 88.2 87.55 88.3 87.45 88.8 87.65 89.25 87.8
L 89.3 87.8
Q 90.8 88.3 92.4 88.2 93.5 88.15 94.6 87.8 95.15 88 95.75 87.9
L 100.15 87.3 100.35 87.4
Q 100.95 87.5 101.1 87.5
L 106.5 87.25
Q 107.7 87.2 109.45 86.05 109.75 86.4 110.95 86.95 112.55 87.65 114.1 87.8 116.2 87.95 118.05 87.65 119.15 87.4 119.8 87.1 120.25 87.35 121.55 87.9 123.4 88.7 124.5 88.9 126.25 89.2 127.25 89.2 128.85 89.3 130.1 88.8 131.75 88.2 132.65 87.2 133.85 85.9 134.15 84.4 134.5 82.35 134.1 81.2
L 133.8 80.35
Q 134.2 79.95 134.4 79.3
L 135.25 75.05
Q 135.55 73.65 134.65 73 134.55 72.95 133.45 72.45 132.3 72 132.05 71.9 130.45 71.4 128.8 71.15 127.2 70.9 126.5 71 124.8 71.3 123.7 71.9 122.95 72.4 122.45 72.9 122.35 73 122.15 73.2 121.7 72.45 120.9 71.75
L 120.6 71.55
Q 118.55 69.8 115.55 69.55 113.65 69.35 112.05 69.9
L 112.15 69.9
Q 111.25 70.05 110.35 70.6
L 110.3 70.6
Q 109.5 71.1 109.25 71.4
L 108.8 71.75 108.85 70.9
Q 108.85 70.3 108.85 70.05
L 108.85 66.3
Q 108.9 65.85 108.75 65.45 108.65 65.3 108.65 65.15 108.55 65.05 108.5 64.95 Z"/>
</g>
</g>
</g>

<g transform="matrix( 1, 0, 0, 1, 0,0) ">
<g>
<g>
<path fill="#FFFFFF" stroke="none" d="
M 56.65 80.4
L 59.1 89.65
Q 59.65 91.6 61 92.3 62.25 93.1 64 92.65 65.25 92.3 66.15 91.45 66.7 90.95 66.95 90.25
L 67.25 91.55 71.6 90.2 68.4 76.85 63.15 78.7 65.35 86.45
Q 65.5 86.85 65.35 87.05 65.15 87.25 64.8 87.4 64.35 87.5 64.15 87.4 63.9 87.25 63.85 86.85
L 61.75 78.6 56.65 80.4
M 39.4 78.65
Q 37 79.95 33.4 82.35
L 42.45 103.45
Q 46.4 102.3 49.1 101.25 51.3 100.25 52.15 99.75 54.3 98.7 55.65 97.75 56.05 97.45 56.6 96.7 57.1 96.1 57.4 95.55 57.75 94.8 58.05 93.5 58.25 92.25 58.3 90.8 58.3 89.35 57.6 88 56.9 86.7 55.35 85.65 53.8 84.7 51.2 84.55 52.25 82.65 52.25 81.05 52.3 79.55 51.7 78.5 51.15 77.6 50.1 77.05 47.3 75.7 45.25 76.1 44.55 76.25 43.1 76.85 41.1 77.75 39.4 78.65
M 43.25 84.6
Q 43.9 83.95 44.45 83.85 45.15 83.8 45.35 84.3 45.65 84.9 45.5 85.6 45.35 86.4 44.75 86.75 44.55 86.9 44.2 87.05
L 43.25 84.6
M 46.05 92.2
Q 46.5 91.7 46.95 91.35 47.1 91.2 47.4 91 47.7 90.75 47.75 90.75 48.4 90.5 49.05 90.6 49.6 90.7 49.85 91.1 50.25 91.7 49.95 92.5 49.6 93.3 48.9 93.8 48.15 94.3 47.3 94.45
L 46.05 92.2
M 130.8 74
Q 130.25 73.8 129.75 73.7 128.25 73.4 127.2 73.5 126.05 73.65 125.25 74.15 124.4 74.6 124 75.25 123.55 75.9 123.35 76.7 123.15 77.85 123.35 78.6 123.55 79.4 123.95 79.95 124.4 80.45 124.95 80.9 125.55 81.2 126 81.4 126.45 81.7 126.65 81.85 126.9 82.1 126.9 82.25 126.85 82.4 126.7 82.5 126.6 82.5 126.25 82.5 125.9 82.5 125.1 82.35 124.65 82.3 123.85 82 122.9 81.65 122.5 81.4
L 121.55 85.8
Q 122.55 86.35 123.4 86.65 124.3 86.95 125.25 87.15 126.4 87.4 127.65 87.45 128.75 87.5 129.75 87.2 130.75 86.95 131.4 86.2 132.2 85.45 132.45 84.2 132.65 83.1 132.45 82.3 132.2 81.45 131.75 80.95 131.35 80.4 130.75 79.95 130.1 79.6 129.65 79.4 129.2 79.15 128.95 78.95 128.7 78.7 128.7 78.5 128.75 78.45 128.95 78.35 129.05 78.3 129.65 78.35 130.45 78.5 131.4 78.8 132 78.95 132.65 79.25
L 133.6 75.05
Q 133.15 74.85 132.7 74.65 132.25 74.45 131.85 74.3 131.4 74.15 130.8 74
M 81.45 87.1
L 81.6 88 86.35 86.65 82.3 68.5 77 70.1 78.3 75.25
Q 78.05 74.85 77.25 74.8 76.5 74.75 75.75 74.95 74.35 75.3 73.2 76.1 72.2 76.95 71.6 78 71.05 79.15 70.9 80.55 70.8 81.85 71.15 83.35 71.45 84.95 72.25 86.05 73 87.2 74.1 87.9 75.05 88.6 76.3 88.8 77.45 89.05 78.6 88.8 79.55 88.55 80.45 88 81.1 87.55 81.45 87.1
M 77.6 79.95
Q 78.3 79.75 78.95 80.05 79.65 80.4 79.9 81.15 80.15 81.85 79.65 82.55 79.2 83.3 78.4 83.65 77.6 83.9 76.9 83.6 76.6 83.5 76.3 83.15 76.05 82.85 75.95 82.5 75.8 82 75.95 81.55 75.95 81.5 76.1 81.2 76.3 80.85 76.45 80.65 76.95 80.2 77.6 79.95
M 91.45 71.95
Q 90 72.1 88.85 72.75 87.7 73.45 86.9 74.45 86.25 75.45 85.9 76.85 85.55 78.15 85.65 79.6 85.8 81.25 86.4 82.5 87 83.75 87.9 84.6 88.85 85.4 90 85.8 91.1 86.15 92.3 86.05 93.25 86 94.2 85.6 94.9 85.3 95.4 84.85
L 95.45 85.8 100.2 85.1 98.95 66.55 93.35 67.4 93.95 72.7
Q 93.75 72.25 92.95 72.1 92.25 71.9 91.45 71.95
M 91.7 77.55
Q 92 77.4 92.55 77.25 93.2 77.15 93.7 77.4 94.5 77.8 94.65 78.55 94.8 79.3 94.35 79.95 93.9 80.65 93.05 80.9 92.25 81.15 91.5 80.8 91.05 80.6 90.8 80.2 90.65 79.9 90.6 79.5 90.5 79.05 90.65 78.8 91 77.9 91.7 77.55
M 106.8 71.65
L 101.35 71.95 101.15 85.25 106.35 84.9 106.8 71.65
M 107 66.15
L 101.4 66.3 101.3 70.8 106.65 70.5 107 66.15
M 115.85 71.8
Q 114.45 71.6 113.2 72.05 111.8 72.35 110.8 73.25 109.8 74.05 109.05 75.35 108.35 76.65 108.2 78.35 108 79.7 108.4 81.05 108.85 82.35 109.75 83.35 110.55 84.3 111.8 85 113 85.7 114.5 85.85 116.4 86.05 117.95 85.75 119.45 85.5 121.05 84.5
L 119.1 80.4
Q 118.2 80.9 117.55 81.15 116.5 81.45 115.8 81.4 115.05 81.25 114.75 81.1
L 121.95 76.9
Q 121.3 74.75 119.75 73.35 118.15 72.05 115.85 71.8
M 113.35 78.6
Q 113.4 78.55 113.35 78.2 113.3 77.7 113.5 77.2 113.65 76.9 114.05 76.55 114.65 76.05 115.35 76.05 116 76.05 116.6 76.6
L 113.35 78.6 Z"/>
</g>
</g>
</g>

<g transform="matrix( 1, 0, 0, 1, 0,0) ">
<g>
<g>
<path fill="#5FCEFE" stroke="none" d="
M 57.7 81
L 60 89.45
Q 60.35 90.9 61.35 91.45 61.55 91.6 61.75 91.7 62.65 92 63.8 91.75 64.9 91.55 65.95 90.55 66.5 90 66.95 89.5 67.25 89.5 67.4 90.05
L 67.6 90.55 70.55 89.7 67.75 78 64.2 79.2 66.3 86.2
Q 66.65 87.8 65 88.3 64.3 88.45 63.75 88.2 63.15 87.9 63 87.1
L 61.15 79.75 57.7 81
M 60.45 89.35
L 58.25 81.2 60.85 80.25 62.6 87.35
Q 62.9 88.3 63.55 88.65 64.2 88.95 65.25 88.65 66.2 88.3 66.6 87.6 66.85 87 66.6 86.2 66.6 86.15 66.6 86.1
L 64.75 79.55 67.45 78.55 70.05 89.3 67.9 90
Q 67.9 89.9 67.75 89.6 67.6 89.35 67.5 89.25 67.4 89.1 67.2 89 66.9 88.85 66.3 89.45 65.75 90.05 65.5 90.25
L 65.15 90.65
Q 64.35 91.3 63.65 91.4 62.25 91.6 61.45 91.05 60.75 90.5 60.45 89.35
M 39.8 79.45
Q 37.75 80.55 34.5 82.75
L 42.95 102.5
Q 46.45 101.35 48.7 100.5 49.4 100.25 51.05 99.45 53.55 98.3 54.7 97.25 56.8 95.5 57.25 92.8 57.75 90.4 56.8 88.4 56.25 87.35 54.9 86.45
L 54.85 86.45
Q 53.5 85.55 51.2 85.45 50.8 85.45 50.5 84.95 50.25 84.5 50.4 84.15 51 82.9 51.25 81.7 51.55 80.05 50.95 79 49.75 77.05 46.55 76.95 45.25 76.9 42.95 77.85 42.05 78.3 39.8 79.45
M 35.1 82.9
Q 37.7 81.05 40.05 79.85 43.2 78.15 44.85 77.6 46.15 77.25 47.85 77.55 48.5 77.7 49.45 78.15 50.05 78.5 50.55 79.25 51.15 80.1 50.85 81.7 50.65 82.85 50.05 83.95 49.85 84.3 49.9 84.75 50 85.15 50.25 85.45 50.6 85.9 51.15 85.9 53.1 85.9 54.7 86.85 55.95 87.7 56.45 88.65 56.75 89.25 56.9 90.4 56.95 91.35 56.95 91.7 56.8 93.45 56.05 94.9 55.35 96.2 54.05 97.25 52.45 98.45 48.4 100.05 45.9 101 43.2 101.9
L 35.1 82.9
M 46.95 89.75
L 47.1 89.6
Q 46.05 90.15 45.05 91.35
L 45.05 91.3
Q 44.75 91.65 44.7 92.05 44.7 92.4 44.9 92.8
L 46.25 95.15 46.15 95.05
Q 46.45 95.55 46.85 95.7 47.3 95.85 47.75 95.75 49.20859375 95.2638671875 50.15 94.45 50.17578125 94.4255859375 50.2 94.4 51.0572265625 93.5828125 51.3 93
L 51.3 92.95
Q 51.45 92.5 51.45 92.05 51.45 90.65 50.2 89.6 49.7 89.25 49 89.2 48.15 89.05 46.95 89.75
M 48.8 89.65
Q 49.4 89.65 49.85 89.9 51 90.65 51.05 92.05 51 92.4 50.9 92.8
L 50.85 92.9
Q 50.65 93.4 49.9 94.1
L 49.85 94.15
Q 49.05 94.9 47.6 95.4 47.35 95.4 47 95.3 46.7 95.2 46.6 94.95
L 46.6 94.9 45.3 92.65
Q 45.15 92.35 45.2 92.05 45.2 91.8 45.35 91.65 46.3 90.55 47.1 90.1 48.2 89.5 48.8 89.65
M 41.95 84.4
Q 41.9 84.75 42.05 85.1
L 42.95 87.55
Q 43.1 87.95 43.55 88.15 44 88.45 44.4 88.3 45.4 88.15 46 87.35
L 46.05 87.3
Q 46.5 86.85 46.7 86.35 47.1 85.45 47.05 84.65 46.95 83.85 46.4 83.15 46.15 82.95 45.85 82.75 45.3 82.35 44.2 82.5 43.35 82.6 42.35 83.65 42.05 84 41.95 84.4
M 42.6 84
Q 43.3 83.3 43.8 83.05 44.75 82.75 45.65 83.15 46.4 83.65 46.5 84.45 46.6 85.05 46.5 85.55 46.35 86.25 45.95 86.75 45.1 87.75 44.4 87.9 44.05 87.95 43.75 87.8 43.4 87.65 43.35 87.4
L 42.45 84.95
Q 42.35 84.7 42.45 84.5 42.45 84.25 42.6 84
M 131.65 77.8
L 131.95 77.9 132.5 75.4
Q 131.4 74.9 130.5 74.6 128.7 74.15 127.25 74.3 126.85 74.3 126.55 74.4 126.25 74.45 125.75 74.7 125.15 74.95 124.65 75.7 124.3 76.25 124.15 76.75 123.95 77.7 124.15 78.35 124.3 78.8 124.6 79.3
L 124.65 79.3
Q 125 79.75 125.5 80.05
L 127.35 81.2
Q 127.85 81.55 127.8 82.15 127.75 82.7 127.15 83.1 126.65 83.45 125.5 83.15 123.55 82.7 123.1 82.6
L 122.55 85.25
Q 123.45 85.6 123.85 85.7 125.1 86.1 125.45 86.2 125.55 86.2 127.15 86.45 128.95 86.55 130.2 85.9 130.6 85.7 130.85 85.4 131.25 84.85 131.55 84.1 132 82.5 131.35 81.55 130.9 81 130.25 80.55 129.6 80.1 129.3 80 128.65 79.65 128.45 79.5 128 79.15 127.9 78.5 127.85 78.05 128 77.9 128.65 76.8 131.65 77.8
M 132.2 75.6
L 131.75 77.4 131.7 77.4
Q 130.35 76.95 129.15 77.05
L 128.7 77.05
Q 128 77.2 127.7 77.75 127.5 78.2 127.6 78.8 127.7 79.15 127.85 79.4 128.05 79.6 128.4 79.95
L 129.95 80.8
Q 131.4 81.75 131.35 83.05 131.3 83.75 131 84.45 130.3 86.1 127.5 86.05 127.15 86.05 126.65 86 126.05 85.9 125.55 85.8
L 123 85.05 123.45 83.05 125.75 83.65
Q 126.45 83.7 127.1 83.5 127.35 83.4 127.65 83.15 128 82.85 128.1 82.5 128.35 81.8 127.85 81.2 127.7 81 127.1 80.6
L 125.65 79.65
Q 124.05 78.65 124.55 76.95 124.95 75.45 126.1 74.95 126.8 74.6 127.6 74.6 129.75 74.45 132.2 75.6
M 81.95 86.35
Q 82.05 86.45 82.15 86.6 82.25 86.85 82.3 86.9
L 85.3 86.2 81.6 69.5 78.05 70.65 79.2 75
Q 79.25 75.4 79 75.65 78.85 75.85 78.4 75.75 77.85 75.75 77.55 75.7 76.7 75.6 75.7 75.85 74.55 76.15 73.75 76.85 72.75 77.7 72.25 78.65 71.9 79.45 71.8 80.6 71.7 81.55 71.85 82.45 72.15 84.55 73.2 85.9 73.85 86.75 74.65 87.2 76.35 88.25 78.1 88 78.75 87.9 79.2 87.65 79.5 87.55 79.85 87.3 80.45 86.95 80.8 86.55 80.85 86.4 81.05 86.25 81.25 86.15 81.4 86.15 81.7 86.1 81.95 86.35
M 82.55 86.35
Q 82 85.55 81.3 85.7 80.8 85.8 80.4 86.3 80.15 86.65 79.8 86.9 78.85 87.45 78.2 87.5 76.45 87.8 75 86.85 73.55 86.05 72.8 84.3 72.55 83.8 72.45 83.3 72.35 82.85 72.2 81.85 72.2 81.55 72.25 80.7 72.25 79.9 72.6 79.1 73.1 77.85 74.05 77.15 74.85 76.55 75.95 76.25 77.2 75.95 78.25 76.25 78.95 76.4 79.35 75.95 79.75 75.6 79.6 74.95
L 78.55 71 81.35 70.15 84.8 85.8 82.55 86.35
M 79.85 79.2
Q 78.7 78.5 77.4 78.75 76.1 79.15 75.2 80.25 74.5 81.4 74.75 82.65 75 84 76.25 84.7
L 76.15 84.7
Q 77.35 85.3 78.65 84.9 79.75 84.55 80.65 83.55 81.35 82.65 81.2 81.5 81.1 79.95 79.85 79.2
M 77.45 79.2
Q 78.55 78.9 79.65 79.55 80.75 80.15 80.8 81.5 80.9 82.5 80.3 83.25 79.5 84.1 78.5 84.5 77.4 84.8 76.45 84.3 75.4 83.7 75.15 82.6 74.9 81.4 75.65 80.45 76.3 79.5 77.45 79.2
M 93.2 73.05
Q 92.3 72.85 91.3 72.95 90.15 73.1 89.2 73.65 88.1 74.35 87.55 75.25 87 76 86.75 77.1 86.55 78 86.6 78.95 86.6 81.05 87.4 82.5 87.9 83.45 88.6 84.05 90.15 85.3 91.95 85.3 92.55 85.35 93.05 85.2 93.35 85.1 93.8 84.9 94.45 84.6 94.8 84.3 94.9 84.1 95.15 84 95.3 83.95 95.45 83.95 95.75 83.95 95.95 84.3 96.05 84.35 96.15 84.55 96.25 84.75 96.2 84.85
L 99.3 84.55 98.05 67.55 94.4 68.15 94.9 72.6
Q 94.85 73 94.65 73.2 94.45 73.4 94 73.3 93.45 73.1 93.2 73.05
M 93.75 73.7
Q 94.4 74 94.95 73.6 95.3 73.25 95.3 72.55
L 94.8 68.6 97.7 68.15 98.85 84.1 96.55 84.3
Q 96.1 83.5 95.45 83.5 94.9 83.5 94.45 83.95 94.15 84.3 93.7 84.5 92.75 84.9 92.1 84.9 90.35 84.85 89 83.8 87.7 82.7 87.25 80.9 87.05 80.35 87 79.9 86.95 79.45 86.95 78.4 87 78.15 87.2 77.25 87.35 76.4 87.8 75.7 88.45 74.6 89.5 74 90.35 73.5 91.45 73.4 92.7 73.25 93.75 73.7
M 95.95 79.3
Q 96.1 77.75 94.95 76.9 93.9 76 92.6 76.05 91.2 76.25 90.2 77.25 89.35 78.25 89.35 79.6 89.45 80.95 90.6 81.8
L 90.5 81.75
Q 91.55 82.5 92.9 82.35 94.05 82.15 95.05 81.3 95.9 80.45 95.95 79.3
M 94.65 77.2
Q 95.6 77.95 95.5 79.3 95.5 80.25 94.8 80.9 93.85 81.7 92.8 81.95 91.7 82.05 90.8 81.45 89.85 80.75 89.8 79.55 89.75 78.35 90.55 77.5 91.35 76.65 92.55 76.55 93.7 76.4 94.65 77.2
M 117.05 72.9
Q 116.95 72.85 116.9 72.85 116.5 72.8 116.1 72.7 114.2 72.4 112.35 73.25 112.05 73.35 111.4 73.8 110.3 74.65 109.75 75.8 109.35 76.55 109.2 77.35 109.05 78.15 109 78.5 109 79.95 109.3 80.8 109.6 81.85 110.4 82.8 110.9 83.4 111.7 83.95 112.5 84.45 113.35 84.7 113.85 84.9 114.65 84.95 116.25 85.15 117.8 84.9 118.55 84.7 119.9 84.2
L 118.65 81.55
Q 117.5 82.05 116.25 82.15 115 82.2 114.3 81.8 113.65 81.4 114 80.65 114.05 80.55 114.3 80.35
L 120.9 76.55
Q 120.2 74.95 119.1 74 118.15 73.25 117.05 72.9
M 115.85 73.05
Q 117.55 73.2 118.8 74.2 118.8 74.25 118.9 74.3 119.8 75.1 120.45 76.35
L 114.15 80.05
Q 113.8 80.25 113.65 80.6 113.5 80.9 113.5 81.2 113.5 81.75 114 82.1 114.25 82.2 114.45 82.35 114.5 82.35 115.1 82.45 115.75 82.55 116.35 82.5 116.9 82.5 117.7 82.3 118.3 82.1 118.5 82.05
L 119.45 83.95
Q 118.7 84.3 117.75 84.5 116.5 84.75 114.7 84.6 113.15 84.4 112.35 83.9 110.1 82.5 109.55 80.35 109.1 78.35 110.05 76.05 110.6 74.85 111.55 74.2 111.9 73.8 112.45 73.6 114.15 72.85 115.85 73.05
M 117.05 77.3
Q 117.6 76.95 117.5 76.4 117.45 76.25 117.2 75.95 116.9 75.65 116.25 75.4 115.75 75.2 115.4 75.2 113.8 75.15 112.85 76.5 112.4 77.3 112.45 78.45 112.5 79.1 112.75 79.3 112.8 79.4 113.05 79.45 113.5 79.55 113.8 79.3
L 117.05 77.3
M 117.15 76.55
Q 117.15 76.7 117.05 76.85 116.95 76.95 116.9 77.05
L 113.6 79.05 113.5 79.1
Q 113 79.2 112.85 78.8 112.55 77.05 113.75 76.05 114.3 75.7 114.95 75.6 115.6 75.5 116.25 75.75 116.6 75.9 116.95 76.25 117.05 76.35 117.15 76.55
M 105.9 72.55
L 102.25 72.8 102.05 84.3 105.45 84.1 105.9 72.55
M 102.6 73.2
L 105.45 73 105.1 83.65 102.5 83.85 102.6 73.2
M 106 67.05
L 102.2 67.2 102.2 69.9 105.75 69.7 106 67.05
M 102.65 67.6
L 105.6 67.5 105.45 69.25 105.45 69.3 102.65 69.45 102.65 67.6 Z"/>
</g>
</g>
</g>
</g>
</svg>
