
<svg xmlns="http://www.w3.org/2000/svg" version="1.1" xmlns:xlink="http://www.w3.org/1999/xlink" preserveAspectRatio="none" x="0px" y="0px" width="80px" height="80px" viewBox="0 0 80 80">
<defs/>

<g id="Layer_1">
<g transform="matrix( 1, 0, 0, 1, 0,0) ">
<g>
<path stroke="#FFFFFF" stroke-width="1.8" stroke-linejoin="miter" stroke-linecap="butt" stroke-miterlimit="3" fill="none" d="
M 46.7 40
Q 46.7 42.75 44.65 44.7 42.75 46.7 40 46.7 37.3 46.7 35.3 44.7 33.35 42.75 33.35 40 33.35 37.3 35.3 35.3 37.3 33.35 40 33.35 42.75 33.35 44.65 35.3 46.7 37.3 46.7 40 Z
M 44.65 25.7
Q 42.75 27.85 40 27.85 37.3 27.85 35.3 25.7 33.35 23.75 33.35 21.1 33.35 18.35 35.3 16.35 37.3 14.45 40 14.45 42.75 14.45 44.65 16.35 46.7 18.35 46.7 21.1 46.7 23.75 44.65 25.7 Z
M 35.3 63.5
Q 33.35 61.6 33.35 58.85 33.35 56.2 35.3 54.15 37.3 52.25 40 52.25 42.75 52.25 44.65 54.15 46.7 56.2 46.7 58.85 46.7 61.6 44.65 63.5 42.75 65.55 40 65.55 37.3 65.55 35.3 63.5 Z"/>
</g>
</g>
</g>
</svg>
