
<svg xmlns="http://www.w3.org/2000/svg" version="1.1" xmlns:xlink="http://www.w3.org/1999/xlink" preserveAspectRatio="none" x="0px" y="0px" width="145px" height="185px" viewBox="0 0 145 185">
<defs>
<linearGradient id="Gradient_1" gradientUnits="userSpaceOnUse" x1="-63.4125" y1="130.9" x2="55.31250000000001" y2="130.9" spreadMethod="pad">
<stop  offset="0%" stop-color="#7FC241" stop-opacity="0"/>

<stop  offset="100%" stop-color="#7FC241"/>
</linearGradient>

<linearGradient id="Gradient_2" gradientUnits="userSpaceOnUse" x1="-52.8" y1="9.05" x2="188.60000000000002" y2="9.05" spreadMethod="pad">
<stop  offset="0%" stop-color="#7FC241" stop-opacity="0"/>

<stop  offset="100%" stop-color="#7FC241"/>
</linearGradient>
</defs>

<g id="Layer_1">
<g transform="matrix( 1, 0, 0, 1, 0,0) ">
<g>
<g>
<path fill="#FFFFFF" stroke="none" d="
M 145 0
L 0 0 0 185 145 185 145 0 Z"/>
</g>
</g>
</g>

<g transform="matrix( 1, 0, 0, 1, 0,0) ">
<g>
<g>
<path fill="url(#Gradient_1)" stroke="none" d="
M 57.05 138.95
L 57.05 125.5 0 125.5 0 138.95 57.05 138.95 Z"/>
</g>
</g>
</g>

<g transform="matrix( 1, 0, 0, 1, 0,0) ">
<g>
<g>
<path fill="#7FC241" stroke="none" d="
M 57.05 125.5
L 57.05 185 145 185 145 125.5 57.05 125.5 Z"/>
</g>
</g>
</g>

<g transform="matrix( 1, 0, 0, 1, 0,0) ">
<g>
<g>
<path fill="#4F8E14" stroke="none" d="
M 57.05 125.5
L 57.05 138.95 145 138.95 145 125.5 57.05 125.5 Z"/>
</g>
</g>
</g>

<g transform="matrix( 1, 0, 0, 1, 0,0) ">
<g>
<g>
<path fill="url(#Gradient_2)" stroke="none" d="
M 145 25.4
L 145 0 0 0 0 25.4 145 25.4 Z"/>
</g>
</g>
</g>

<g transform="matrix( 0.32598876953125, 0, 0, 0.325653076171875, -233.75,17.7) ">
<g>
<g>
<path fill="#7FC241" stroke="none" d="
M 941.25 209.35
L 941.25 209.3 925.95 211.7
Q 924.7703125 209.72578125 920.45 206.6 916.0953125 203.50703125 910.6 202.4 908.907421875 202.093359375 907.25 201.9 905.5966796875 201.7669921875 904 201.75 899.10625 201.7744140625 894.6 203.3 890.087109375 204.8734375 886 207.95 880.6384765625 212.037890625 877.2 217.9 873.7634765625 223.7634765625 872.25 231.4 870.733203125 239.4306640625 871.65 246.1 872.5705078125 252.81875 875.95 258.15 879.355859375 263.526953125 884.3 266.85 889.3189453125 270.164453125 895.85 271.45 896.2189453125 271.5162109375 896.6 271.55
L 897.5 271.6
Q 898.0279296875 271.5951171875 898.6 271.55 899.4673828125 271.5236328125 900.05 271.45 900.683984375 271.3861328125 901.05 271.25
L 913.6 267
Q 913.816796875 270.16796875 915.8 273 917.848828125 275.853515625 921 277.6
L 937.8 268.5 937.85 268.45
Q 934.1412109375 265.9716796875 932.8 262.4 931.592578125 258.8216796875 932.65 253.35
L 941.25 209.35
M 898.5 221.05
Q 902.2373046875 218.274609375 906.6 218.25 907.3259765625 218.2634765625 908.05 218.3 908.76875 218.401171875 909.5 218.55 913.715234375 219.378125 916.3 221.55 918.9296875 223.7193359375 920.3 226.3
L 914.8 254.7
Q 913.468359375 255.4353515625 909.9 255.95 909.1337890625 256.0916015625 908.35 256.15 907.5783203125 256.2041015625 906.8 256.2 905.7265625 256.2046875 904.6 256.1 903.5310546875 255.9908203125 902.4 255.75 895.7046875 254.4556640625 892.9 248.85 890.15703125 243.1462890625 891.7 234.95 893.7134765625 224.7041015625 898.5 221.05 Z"/>
</g>
</g>
</g>

<g transform="matrix( 0.32598876953125, 0, 0, 0.325653076171875, -233.75,17.7) ">
<g>
<g>
<path fill="#7FC241" stroke="none" d="
M 1106.15 236.4
Q 1103.242578125 233.6173828125 1098.7 231.85 1094.1984375 230.092578125 1088.1 229.35 1084.1326171875 228.9134765625 1080.55 227.55 1077.0314453125 226.1318359375 1077.2 222.4 1077.337109375 220.326953125 1079.9 218.9 1082.2158203125 217.6748046875 1085.9 217.65
L 1087.1 217.7
Q 1092.78828125 218.001171875 1097.6 219.3 1102.473046875 220.6166015625 1107.3 223.1
L 1107.35 223.05 1108.2 206.2
Q 1104.323828125 204.691015625 1098.75 203.5 1093.180078125 202.378125 1088.25 202.1
L 1086.2 202.05
Q 1081.2234375 202.074609375 1076.85 203.4 1072.5173828125 204.721484375 1068.85 207.35 1064.8375 210.276171875 1062.7 214.15 1060.5609375 218.0154296875 1060.3 222.8 1059.8697265625 231.340234375 1064.65 236.65 1067.0587890625 239.3330078125 1071.4 241.1 1075.7517578125 242.8701171875 1082 243.7 1088.973046875 244.7103515625 1091.7 246.55 1094.4490234375 248.3841796875 1094.3 251.05 1094.085546875 255.2353515625 1090.6 256.65 1087.791796875 257.840625 1083.5 257.85
L 1081.75 257.8
Q 1074.1169921875 257.395703125 1068.4 255.25 1062.728125 253.030078125 1058.3 250.2
L 1058.25 250.2 1055.45 263.85 1062.5 268.3
Q 1063.50625 268.89296875 1064.5 269.4 1065.5375 269.95859375 1066.55 270.4 1067.5537109375 270.8923828125 1068.5 271.2 1069.51015625 271.55703125 1070.45 271.75 1077.908203125 273.2455078125 1083.25 273.5
L 1085.25 273.55
Q 1090.3564453125 273.5705078125 1094.75 272.15 1099.1869140625 270.735546875 1102.85 267.9 1106.9400390625 264.81875 1109.1 260.55 1111.2896484375 256.28046875 1111.55 250.85 1112.03359375 241.973828125 1106.15 236.4 Z"/>
</g>
</g>
</g>

<g transform="matrix( 0.32598876953125, 0, 0, 0.325653076171875, -233.75,17.7) ">
<g>
<g>
<path fill="#7FC241" stroke="none" d="
M 1012.65 179
L 1012.6 178.95 993.7 189.25 993.7 273.8 993.75 273.85 1012.6 273.85 1012.65 273.8 1012.65 229
Q 1015.080859375 226.8111328125 1018.5 224.9 1022.0232421875 222.9328125 1026.7 222.9 1032.0533203125 222.94453125 1034.65 225.75 1037.224609375 228.5365234375 1037.2 232.15
L 1037.2 273.8 1037.25 273.85 1056.1 273.85 1056.1 273.8 1056.1 226.35
Q 1056.123828125 221.3927734375 1054.7 217.35 1053.2763671875 213.3642578125 1050.45 210.35 1044.804296875 204.2404296875 1034.95 204.2 1031.323828125 204.2220703125 1027.75 205.05 1024.21875 205.8888671875 1020.45 208.05
L 1012.65 212.5 1012.65 179 Z"/>
</g>
</g>
</g>

<g transform="matrix( 0.32598876953125, 0, 0, 0.325653076171875, -233.75,17.7) ">
<g>
<g>
<path fill="#7FC241" stroke="none" d="
M 978.5 247
L 972.8 224.05 989.85 220.4 989.85 220.35 986.85 208.45 969.8 212.1 964.05 188.3 964 188.3 947.75 196.65 951.4 216.65 936.55 220.05 938.25 232.05 938.3 232.05 954.4 228.7 961.4 256.8
Q 963.703515625 265.9171875 969.45 271.5 975.2515625 276.991015625 984.35 278.35
L 984.4 278.35 994.55 262.5 994.55 262.45
Q 988.7271484375 261.41875 984.45 257.65 980.241796875 253.887109375 978.5 247 Z"/>
</g>
</g>
</g>

<g transform="matrix( 0.405242919921875, 0, 0, 0.40521240234375, -112.05,29.95) ">
<g>
<g>
<path fill="#7FC241" stroke="none" d="
M 388.8 107.25
L 388.75 107.25 361.65 158.2 334.7 107.8 334.85 107.25 334.8 107.2 334.4 107.2 334.35 107.25 334.65 107.8 317.8 189.45 317.85 189.5 334.25 189.45 342.65 148.5 359.75 183.55 361.6 183.5 380.1 147.05 388.35 189.5 405.7 189.5 405.75 189.45 388.8 107.25 Z"/>
</g>
</g>
</g>

<g transform="matrix( 0.32598876953125, 0, 0, 0.325653076171875, -233.75,17.7) ">
<g>
<g>
<path fill="#7FC241" stroke="none" d="
M 1012.45 117.35
L 1012.4 117.35 994.45 118.4 994.5 180.6 1012.4 180.6 1012.45 180.6 1012.45 117.35
M 1012.45 94.05
L 1012.4 94 994.5 94 994.45 94.05 994.45 110.65 994.5 110.7 1012.4 110.7 1012.45 110.65 1012.45 94.05 Z"/>
</g>
</g>
</g>

<g transform="matrix( 0.32598876953125, 0, 0, 0.325653076171875, -233.75,17.7) ">
<g>
<g>
<path fill="#7FC241" stroke="none" d="
M 885.35 117.55
Q 880.0341796875 119.8541015625 875.75 124.4 871.3943359375 129.06484375 869.1 135.05 866.8685546875 141.0279296875 866.7 148.3 866.6125 155.99296875 868.55 162 870.5505859375 168.0435546875 874.6 172.4 878.674609375 176.814453125 883.85 179.05 889.07578125 181.314453125 895.4 181.4
L 895.45 181.4
Q 895.9939453125 181.4326171875 896.6 181.35 897.248046875 181.2576171875 897.95 181.05 898.7640625 180.915234375 899.3 180.75 899.88046875 180.589453125 900.2 180.4
L 911.2 174.45
Q 911.338671875 174.9197265625 911.5 175.35 911.676953125 175.823828125 911.9 176.25 912.116015625 176.6927734375 912.35 177.1 912.6298828125 177.5587890625 912.9 177.95 913.2310546875 178.3888671875 913.55 178.8 913.9087890625 179.21796875 914.25 179.6 914.6234375 179.9984375 915 180.3 915.3765625 180.6505859375 915.75 180.9 916.167578125 181.192578125 916.55 181.4 916.9951171875 181.6689453125 917.4 181.85 918.2736328125 182.2701171875 919.1 182.55
L 920.75 183.15 920.8 183.15
Q 920.953125 183.1455078125 921.2 183 921.4490234375 182.9087890625 921.8 182.65
L 922.65 182.1 935.35 172 935.3 171.95 934 171.3
Q 933.3220703125 170.996484375 932.65 170.6 931.9796875 170.2576171875 931.35 169.85 930.724609375 169.43125 930.15 168.95 929.60859375 168.5287109375 929.15 168.05 928.7033203125 167.5646484375 928.4 167.05 926.6595703125 163.9501953125 926.75 158.75
L 926.75 115.8 926.7 115.75 913.65 121.35
Q 912.2193359375 119.7294921875 907.65 117.55 903.101171875 115.4046875 897.8 115.3
L 897.15 115.3
Q 890.722265625 115.3033203125 885.35 117.55
M 886 148.15
Q 886.1751953125 138.37578125 890.05 134.2 893.9482421875 130.1365234375 899.6 130.1
L 899.9 130.1
Q 903.9611328125 130.196875 906.7 131.8 909.5376953125 133.35859375 911.25 135.5
L 910.8 162.6
Q 909.671484375 163.5185546875 906.4 164.6 903.3330078125 165.6392578125 899.85 165.65
L 899.4 165.65
Q 892.9248046875 165.5115234375 889.4 160.75 885.8794921875 155.9673828125 886 148.15 Z"/>
</g>
</g>
</g>

<g transform="matrix( 0.32598876953125, 0, 0, 0.325653076171875, -233.75,17.7) ">
<g>
<g>
<path fill="#7FC241" stroke="none" d="
M 994.95 147.9
Q 994.948046875 140.80546875 993.05 134.9 991.185546875 129.0552734375 987.4 124.4 983.6560546875 119.7646484375 978.55 117.4 973.4921875 115.101953125 967.1 115.1 964.0830078125 115.09765625 961.85 115.9 960.7830078125 116.2814453125 959.5 116.8 958.2623046875 117.3603515625 956.85 118.05
L 951 120.9 950.9 115.8 950.85 115.75 933.3 118.5 933.35 199.5 933.35 199.55 950.85 199.55 950.85 199.5 950.85 178.6
Q 953.1267578125 179.6720703125 956.65 180.35 960.3279296875 181.0455078125 964.65 181.05 970.9876953125 181.04765625 976.35 178.7 981.7001953125 176.3845703125 986.1 171.7 990.5271484375 167.039453125 992.75 161.1 994.9521484375 155.139453125 994.95 147.9
M 974.05 134.7
Q 978.153125 140.1794921875 978.3 147.8 978.451953125 156.919140625 975 161.7 971.58203125 166.4408203125 964.15 166.55
L 963.6 166.55
Q 959.9833984375 166.578515625 956.95 165.7 956.2984375 165.5373046875 955.65 165.25 955.0625 164.955859375 954.5 164.6 953.926171875 164.2509765625 953.4 163.85 952.926953125 163.4953125 952.5 163.1 952.1294921875 162.765234375 951.85 162.45
L 951.8 133.9
Q 953.1576171875 132.3435546875 955.75 130.85 958.408984375 129.375 963 129.3
L 963.3 129.3
Q 970.082421875 129.3087890625 974.05 134.7 Z"/>
</g>
</g>
</g>

<g transform="matrix( 0.32598876953125, 0, 0, 0.325653076171875, -233.75,17.7) ">
<g>
<g>
<path fill="#7FC241" stroke="none" d="
M 1134.35 117.1
L 1134.3 117.05 1120.9 122.75
Q 1117.341015625 119.46484375 1113 117.9 1108.655859375 116.3998046875 1104.45 116.4 1098.0953125 116.4025390625 1092.8 118.9 1087.5197265625 121.4158203125 1083.3 126.4 1079.1279296875 131.4087890625 1077 137.75 1074.9287109375 144.1462890625 1074.9 151.9 1074.9173828125 160.2279296875 1076.7 166.8 1078.503515625 173.4173828125 1082.1 178.25 1085.7009765625 183.10078125 1090.75 185.5 1095.8462890625 187.92578125 1102.4 187.9 1103.377734375 187.9265625 1104.45 187.8 1105.5240234375 187.67578125 1106.65 187.4 1109.00390625 186.908984375 1110.75 185.6
L 1116.85 181.05 1116.85 185.85
Q 1116.86796875 192.519140625 1112.3 195.3 1110.04921875 196.7205078125 1105.6 197.4 1101.1431640625 198.1251953125 1094.55 198.1
L 1094.55 198.15 1094.55 212.4 1094.55 212.4 1107.75 212.5
Q 1109.1208984375 212.49921875 1110.35 212.4 1111.62890625 212.298046875 1112.75 212.1 1113.939453125 211.905859375 1115.05 211.6 1116.1595703125 211.2908203125 1117.2 210.85 1118.231640625 210.4615234375 1119.25 209.9 1120.2765625 209.394921875 1121.25 208.75 1122.2623046875 208.091796875 1123.25 207.3 1124.2947265625 206.523828125 1125.3 205.6 1128.3056640625 202.99375 1130.1 200.1 1131.9302734375 197.2650390625 1132.85 194.1 1133.31171875 192.5150390625 1133.6 190.8 1133.939453125 189.1529296875 1134.1 187.4 1134.2529296875 185.624609375 1134.3 183.7 1134.391015625 181.8359375 1134.35 179.85
L 1134.35 117.1
M 1096.1 138.05
Q 1099.39765625 132.81171875 1107.05 132.8 1111.1771484375 132.8115234375 1113.55 134.4 1115.8974609375 135.928515625 1117.4 138.5
L 1117.4 165.9
Q 1115.8416015625 168.4607421875 1112.95 169.9 1110.0763671875 171.390625 1106.55 171.4 1099.6236328125 171.3826171875 1096.2 165.45 1092.825390625 159.5400390625 1092.8 150.3 1092.822265625 143.3638671875 1096.1 138.05 Z"/>
</g>
</g>
</g>

<g transform="matrix( 0.32598876953125, 0, 0, 0.325653076171875, -233.75,17.7) ">
<g>
<g>
<path fill="#7FC241" stroke="none" d="
M 766.85 92.5
Q 761.787109375 94.3369140625 757.45 97.95 753.1626953125 101.5654296875 751 106.35 748.850390625 111.154296875 748.85 117.1 748.849609375 122.0640625 750.35 126.05 751.897265625 130.0291015625 754.9 133 757.949609375 135.94609375 762.3 138.35 766.6673828125 140.800390625 772.3 142.65 781.4828125 145.7333984375 785.75 148.25 790.0201171875 150.8185546875 790 155.4 790.009375 160.14609375 785.9 163.2 781.8841796875 166.24765625 773.5 166.25 766.2953125 166.2427734375 759.1 163.45 751.9583984375 160.696484375 747.5 157.55
L 747.45 157.6 747.45 174.85
Q 752.8587890625 177.8318359375 759.6 179.9 762.99609375 180.924609375 767.45 181.4 771.9146484375 181.940625 777.4 181.95 784.4796875 181.946875 790.15 180.1 795.8310546875 178.234375 800.1 174.5 804.37890625 170.8197265625 806.5 165.95 808.66640625 161.1189453125 808.65 155.1 808.6642578125 149.4185546875 806.75 145.05 804.8392578125 140.69296875 801 137.65 797.2076171875 134.6544921875 792.25 132.15 787.360546875 129.6369140625 781.4 127.65 772.1611328125 124.613671875 769.75 122.05 767.478125 119.4818359375 767.45 115.45 767.479296875 111.93671875 770.9 109.05 774.45234375 106.1787109375 781.35 106.15 786.91875 106.17421875 790.45 107.7 792.23046875 108.5001953125 793.55 109.15 794.9275390625 109.804296875 795.8 110.3
L 803.9 114.95 803.95 114.95 803.8 97.3
Q 800.2025390625 94.643359375 794.45 92.65 791.6189453125 91.6951171875 787.4 91.2 783.22734375 90.703515625 777.75 90.7 771.924609375 90.712109375 766.85 92.5 Z"/>
</g>
</g>
</g>

<g transform="matrix( 0.32598876953125, 0, 0, 0.325653076171875, -233.75,17.7) ">
<g>
<g>
<path fill="#7FC241" stroke="none" d="
M 826.15 91.4
L 826.1 91.4 808.5 100.95 808.4 180.3 808.45 180.3 826.15 180.3 826.15 180.3 826.15 138.3
Q 828.42578125 136.233984375 831.65 134.45 834.9392578125 132.6068359375 839.3 132.6 844.342578125 132.6080078125 846.75 135.25 849.1916015625 137.850390625 849.2 141.25
L 849.2 180.3 849.2 180.3 866.85 180.3 866.9 180.3 866.9 135.8
Q 866.8869140625 126.485546875 861.55 120.8 856.2837890625 115.0697265625 847.05 115.05 843.65625 115.06015625 840.3 115.85 837.00078125 116.630078125 833.45 118.65
L 826.15 122.85 826.15 91.4 Z"/>
</g>
</g>
</g>

<g transform="matrix( 0.32598876953125, 0, 0, 0.325653076171875, -233.75,17.7) ">
<g>
<g>
<path fill="#7FC241" stroke="none" d="
M 1048.5 117.9
Q 1045.069921875 118.7408203125 1041.75 120.65
L 1033.85 125.35 1033.85 117.1 1033.8 117.05 1010.4 122.85 1010.4 122.95 1010.85 123.15
Q 1011.330859375 123.342578125 1012.05 123.7 1012.7513671875 124.0560546875 1013.55 124.55 1014.348828125 125.0453125 1015.05 125.65 1015.76796875 126.2291015625 1016.1 127.15 1016.2900390625 127.6189453125 1016.4 128.15 1016.5283203125 128.685546875 1016.6 129.25
L 1016.7 182.3 1016.75 182.3 1034.45 182.3 1034.45 182.3 1034.45 140.3
Q 1035.41796875 139.457421875 1036.7 138.5 1037.9890625 137.6005859375 1039.6 136.6 1042.8369140625 134.609375 1047.6 134.6 1052.6384765625 134.60859375 1055.05 137.25 1057.4798828125 139.8517578125 1057.45 143.25
L 1057.45 182.3 1057.5 182.3 1075.15 182.3 1075.2 182.3 1075.2 137.8
Q 1075.1916015625 128.498046875 1069.85 122.8 1064.58515625 117.081640625 1055.35 117.05 1051.959765625 117.06796875 1048.5 117.9 Z"/>
</g>
</g>
</g>
</g>
</svg>
