
<svg xmlns="http://www.w3.org/2000/svg" version="1.1" xmlns:xlink="http://www.w3.org/1999/xlink" preserveAspectRatio="none" x="0px" y="0px" width="80px" height="80px" viewBox="0 0 80 80">
<defs/>

<g id="Layer_1">
<g transform="matrix( 1, 0, 0, 1, 0,0) ">
<g>
<g>
<path fill="#FF9900" stroke="none" d="
M 80 40
Q 80 23.5 68.15 11.8 56.45 0 40 0 23.45 0 11.75 11.8 0 23.5 0 40 0 56.55 11.75 68.25 23.45 80 40 80 56.45 80 68.15 68.25 80 56.55 80 40
M 66.8 13.15
Q 78.05 24.25 78.05 40 78.05 55.8 66.8 66.9 55.7 78.05 40 78.05 24.2 78.05 13.1 66.9 1.95 55.8 1.95 40 1.95 24.25 13.1 13.15 24.2 1.95 40 1.95 55.7 1.95 66.8 13.15 Z"/>
</g>
</g>
</g>

<g transform="matrix( 1, 0, 0, 1, 0,0) ">
<g>
<g>
<path fill="#FF9900" stroke="none" d="
M 33.3 58.85
Q 33.3 61.65 35.25 63.45 37.3 65.5 39.95 65.5 42.75 65.5 44.65 63.45 46.7 61.65 46.7 58.85 46.7 56.15 44.65 54.15 42.75 52.2 39.95 52.2 37.3 52.2 35.25 54.15 33.3 56.15 33.3 58.85
M 46.7 21.1
Q 46.7 18.35 44.65 16.45 42.75 14.5 39.95 14.5 37.3 14.5 35.25 16.45 33.3 18.35 33.3 21.1 33.3 23.8 35.25 25.7 37.3 27.85 39.95 27.85 42.75 27.85 44.65 25.7 46.7 23.8 46.7 21.1
M 44.65 44.65
Q 46.7 42.75 46.7 39.95 46.7 37.3 44.65 35.3 42.75 33.35 39.95 33.35 37.3 33.35 35.25 35.3 33.3 37.3 33.3 39.95 33.3 42.75 35.25 44.65 37.3 46.7 39.95 46.7 42.75 46.7 44.65 44.65 Z"/>
</g>
</g>
</g>
</g>
</svg>
