
<svg xmlns="http://www.w3.org/2000/svg" version="1.1" xmlns:xlink="http://www.w3.org/1999/xlink" preserveAspectRatio="none" x="0px" y="0px" width="80px" height="80px" viewBox="0 0 80 80">
<defs/>

<g id="Layer_1">
<g transform="matrix( 1, 0, 0, 1, 0,0) ">
<g>
<g>
<path fill="#FF9900" stroke="none" d="
M 80 40
Q 80 23.5 68.15 11.8 56.45 0 40 0 23.45 0 11.75 11.8 0 23.5 0 40 0 56.55 11.75 68.25 23.45 80 40 80 56.45 80 68.15 68.25 80 56.55 80 40
M 66.8 13.15
Q 78.05 24.25 78.05 40 78.05 55.8 66.8 66.9 55.7 78.05 40 78.05 24.2 78.05 13.1 66.9 1.95 55.8 1.95 40 1.95 24.25 13.1 13.15 24.2 1.95 40 1.95 55.7 1.95 66.8 13.15 Z"/>
</g>
</g>
</g>

<g transform="matrix( 1, 0, 0, 1, 0,0) ">
<g>
<g>
<path fill="#FF9900" stroke="none" d="
M 33.5 63.4
L 45.95 63.4 45.95 37.2 33.5 37.2 33.5 63.4
M 29.25 47.3
L 16.9 47.3 16.9 63.4 29.25 63.4 29.25 47.3
M 62.45 26.05
L 50 26.05 50 63.4 62.45 63.4 62.45 26.05
M 46.4 23.85
L 64.1 19.6 64.1 16.65 45.35 21.3 27.05 36.3 15.9 41.45 15.9 44.4 28.65 38.8 46.4 23.85 Z"/>
</g>
</g>
</g>
</g>
</svg>
