
<svg xmlns="http://www.w3.org/2000/svg" version="1.1" xmlns:xlink="http://www.w3.org/1999/xlink" preserveAspectRatio="none" x="0px" y="0px" width="145px" height="185px" viewBox="0 0 145 185">
<defs>
<linearGradient id="Gradient_1" gradientUnits="userSpaceOnUse" x1="-63.4125" y1="130.9" x2="55.31250000000001" y2="130.9" spreadMethod="pad">
<stop  offset="0%" stop-color="#FFFFFF"/>

<stop  offset="100%" stop-color="#F68E92"/>
</linearGradient>

<linearGradient id="Gradient_2" gradientUnits="userSpaceOnUse" x1="-52.8" y1="9.05" x2="188.60000000000002" y2="9.05" spreadMethod="pad">
<stop  offset="0%" stop-color="#FFFFFF"/>

<stop  offset="100%" stop-color="#F68E92"/>
</linearGradient>
</defs>

<g id="Layer_1">
<g transform="matrix( 1, 0, 0, 1, 0,0) ">
<g>
<g>
<path fill="#FFFFFF" stroke="none" d="
M 145 0
L 0 0 0 185 145 185 145 0 Z"/>
</g>
</g>
</g>

<g transform="matrix( 1, 0, 0, 1, 0,0) ">
<g>
<g>
<path fill="url(#Gradient_1)" stroke="none" d="
M 57.05 138.95
L 57.05 125.5 0 125.5 0 138.95 57.05 138.95 Z"/>
</g>
</g>
</g>

<g transform="matrix( 1, 0, 0, 1, 0,0) ">
<g>
<g>
<path fill="#ED1C24" stroke="none" d="
M 57.05 125.5
L 57.05 185 145 185 145 125.5 57.05 125.5 Z"/>
</g>
</g>
</g>

<g transform="matrix( 1, 0, 0, 1, 0,0) ">
<g>
<g>
<path fill="#A6181D" stroke="none" d="
M 57.05 125.5
L 57.05 138.95 145 138.95 145 125.5 57.05 125.5 Z"/>
</g>
</g>
</g>

<g transform="matrix( 1, 0, 0, 1, 0,0) ">
<g>
<g>
<path fill="url(#Gradient_2)" stroke="none" d="
M 145 25.4
L 145 0 0 0 0 25.4 145 25.4 Z"/>
</g>
</g>
</g>

<g transform="matrix( 1, 0, 0, 1, 0,0) ">
<g>
<g>
<path fill="#ED1C24" stroke="none" d="
M 110.3 55.75
Q 109.2 55.75 108.05 56.05 106.95 56.35 105.85 56.95
L 103.25 58.5 103.25 55.75 96.35 57.5 96.35 55.9 90.45 56.2 90.45 63.55
Q 90.25 62.55 89.95 61.65 89.4 59.7 88.15 58.15 86.9 56.65 85.25 55.9 83.6 55.15 81.5 55.15 80.55 55.15 79.8 55.4
L 79.05 55.7
Q 78.65 55.9 78.2 56.1
L 76.25 57.05 76.25 55.35 76.2 55.35 70.5 56.25 70.5 73.35 69.85 73 69.15 72.4 68.9 72.1
Q 68.35 71.05 68.4 69.4
L 68.4 55.35 64.1 57.15
Q 63.65 56.65 62.15 55.95 60.7 55.25 58.9 55.2
L 58.7 55.2
Q 56.65 55.2 54.85 55.95 53.15 56.7 51.75 58.15 50.35 59.7 49.6 61.65 49.05 63 48.9 64.65
L 48.9 61.85
Q 48.85 58.8 47.15 57 45.35 55.15 42.4 55.15
L 40.2 55.4
Q 39.15 55.65 38 56.3
L 35.6 57.65 35.6 47.4 29.85 50.55 29.85 67.05
Q 29.7 65.85 29.25 64.9 28.6 63.5 27.4 62.5 26.15 61.5 24.55 60.7 22.95 59.9 21 59.25 18 58.25 17.2 57.4 16.45 56.55 16.45 55.25 16.45 54.1 17.6 53.15 18.75 52.2 21 52.2 22.8 52.2 23.95 52.75
L 28.35 55.1 28.3 49.3
Q 27.1 48.5 25.25 47.85 24.3 47.5 22.95 47.35
L 19.8 47.15
Q 17.9 47.15 16.25 47.75 14.55 48.35 13.15 49.55 11.8 50.7 11.1 52.3 10.4 53.85 10.4 55.8 10.35 57.4 10.9 58.7 11.35 60 12.35 60.95 13.35 61.9 14.75 62.7 16.2 63.55 18.05 64.1 21 65.1 22.4 65.95 23.8 66.8 23.8 68.3 23.8 69.8 22.45 70.8 21.15 71.8 18.4 71.85 16.05 71.8 13.75 70.9 11.4 70 9.95 69
L 9.95 74.65
Q 11.65 75.6 13.85 76.25 15 76.6 16.45 76.8
L 19.7 76.95
Q 21.45 76.9 22.95 76.6
L 16.7 106.85 23.35 106.85 26.75 90.2 33.7 104.45 34.45 104.45 41.95 89.65 45.3 106.85 52.3 106.85 50.85 99.85
Q 51.25 100.85 51.8 101.75 52.95 103.5 54.55 104.6 56.2 105.7 58.3 106.1
L 58.55 106.15 59.65 106.1 60 106.05 64.1 104.65
Q 64.15 105.7 64.8 106.6 65.5 107.55 66.5 108.15
L 71.95 105.15
Q 70.75 104.35 70.35 103.15 69.95 102 70.3 100.2
L 71.95 91.9 72.15 93.25 77.4 92.2 79.7 101.35
Q 80.45 104.35 82.3 106.1 84.2 107.9 87.15 108.4
L 87.15 108.35 90.2 103.65 90.2 106.9 96.4 106.9 96.4 92.25
Q 97.15 91.55 98.3 90.95 99.45 90.3 100.95 90.3 102.7 90.3 103.55 91.2 104.4 92.1 104.4 93.3
L 104.4 106.9 110.55 106.9 110.55 103.8 114.6 106 115.2 106.2
Q 117.65 106.7 119.4 106.8
L 120.1 106.8
Q 121.75 106.8 123.15 106.35 124.6 105.85 125.8 104.95 127.15 103.95 127.85 102.55 128.55 101.15 128.65 99.35 128.8 96.5 126.85 94.65 125.9 93.75 124.4 93.2 122.95 92.6 121 92.4 119.65 92.25 118.55 91.8 117.35 91.3 117.45 90.1 117.5 89.4 118.3 88.95 119.05 88.55 120.25 88.55
L 120.65 88.6
Q 122.5 88.7 124.1 89.15 125.65 89.55 127.25 90.35
L 127.45 86.85 128.25 86.85 129.75 86.6 131.1 86.05 133.15 84.65
Q 134.1 83.8 134.65 82.85 135.25 81.9 135.55 80.9
L 136 78.7 136.05 55.75 134.85 56.3
Q 133.25 56.95 131.7 57.6 130.55 56.55 129.1 56.05 127.7 55.55 126.3 55.55 124.2 55.55 122.5 56.4 120.8 57.15 119.4 58.8 118.05 60.45 117.35 62.55 116.95 63.85 116.8 65.45
L 116.8 62.55
Q 116.8 59.5 115.05 57.65 113.3 55.75 110.3 55.75
M 104.2 62.8
L 105.15 62.15
Q 106.2 61.5 107.75 61.5 109.45 61.5 110.2 62.35 111 63.2 111 64.3
L 111 77.05 116.8 77.05 116.8 69.15
Q 116.9 70.65 117.25 72 117.85 74.15 119 75.75 120.2 77.3 121.85 78.1 123.5 78.9 125.6 78.9
L 126.3 78.85 127 78.7
Q 127.8 78.55 128.35 78.1
L 130.35 76.65 130.35 78.25
Q 130.3 80.4 128.9 81.3 128.15 81.75 126.7 82
L 123.05 82.25 123.05 83.7
Q 122 83.55 121.05 83.5
L 120.35 83.45
Q 118.75 83.45 117.3 83.95 115.85 84.35 114.65 85.2 113.4 86.15 112.7 87.45 112 88.7 111.9 90.25 111.8 93 113.35 94.8 114.1 95.6 115.55 96.2 116.95 96.8 119 97.05 121.25 97.4 122.2 97.95 123.05 98.6 123 99.45 122.95 100.8 121.8 101.25 120.85 101.65 119.5 101.65
L 118.9 101.65
Q 116.4 101.5 114.55 100.8 112.7 100.1 111.25 99.15
L 110.55 102.65 110.55 91.4
Q 110.55 89.8 110.1 88.45 109.65 87.15 108.7 86.2 106.85 84.2 103.65 84.2
L 101.3 84.45
Q 100.2 84.7 98.9 85.45
L 96.4 86.9 96.4 75.95 96.35 76 96.35 58.1 97.15 58.55
Q 97.4 58.8 97.5 59.05
L 97.6 59.4 97.65 59.75 97.7 77.05 103.5 77.05 103.5 63.35
Q 103.8 63.05 104.2 62.8
M 85.2 65.8
Q 85.25 68.75 84.1 70.35 83 71.85 80.55 71.9
L 80.4 71.9
Q 79.2 71.9 78.2 71.6
L 77.8 71.5 77.4 71.3 76.55 70.6 76.55 61.25
Q 77 60.75 77.85 60.25 78.7 59.75 80.2 59.75
L 80.3 59.75
Q 82.5 59.75 83.8 61.55 85.15 63.3 85.2 65.8
M 89.9 70.15
Q 90.25 69.2 90.45 68.1
L 90.45 76.5 95.4 76.5 90.2 79.3 90.2 103.15
Q 88.45 102.75 87.2 101.6 85.8 100.35 85.25 98.15
L 83.35 90.65 88.95 89.45 88 85.6 87.95 85.6 82.4 86.8 80.55 79 80.5 79 76.2 81.25 76.2 75.85
Q 76.95 76.2 78.1 76.4
L 80.7 76.65
Q 82.8 76.6 84.55 75.85 86.3 75.1 87.75 73.6 89.15 72.1 89.9 70.15
M 127.15 60.9
Q 128.5 60.9 129.25 61.4 130.05 61.9 130.55 62.8
L 130.55 71.7
Q 130.05 72.55 129.1 73.05 128.15 73.5 127 73.5 124.75 73.5 123.65 71.6 122.5 69.65 122.5 66.6 122.5 64.35 123.6 62.6 124.65 60.9 127.15 60.9
M 37.4 61.45
Q 38.45 60.85 39.9 60.85 41.5 60.85 42.3 61.7 43.05 62.6 43.1 63.65
L 43.1 76.4 43.95 76.4 34.45 94.15 24.75 76
Q 26 75.4 27.1 74.5 28.5 73.25 29.2 71.7 29.7 70.65 29.85 69.35
L 29.8 76.4 35.6 76.4 35.6 62.7
Q 36.35 62 37.4 61.45
M 61.85 60.6
Q 62.75 61.1 63.35 61.8
L 63.15 70.65
Q 62.8 70.9 61.75 71.3 60.75 71.6 59.6 71.6
L 59.45 71.6
Q 57.35 71.6 56.2 70.05 55.05 68.5 55.1 65.9 55.15 62.7 56.45 61.4 57.7 60 59.55 60
L 59.6 60
Q 60.95 60.05 61.85 60.6
M 48.9 67.95
Q 49.05 69.25 49.4 70.4 50.1 72.35 51.4 73.8 52.7 75.25 54.4 76 56.1 76.7 58.2 76.8
L 58.55 76.75 59.75 76.45 63.3 74.45 63.5 75.1 64.35 76.15 64.8 76.6 65.6 77.05 66.45 77.3 66.55 77.3 67.05 77 70.5 74.2 70.5 82.7 75.45 82.7 76.45 88.2 72.5 89.15 73.1 85.85 68.15 86.65
Q 67.7 86 66.3 84.95 64.9 83.95 63.15 83.6
L 61 83.4
Q 59.35 83.4 57.9 83.9 56.45 84.4 55.1 85.4 53.35 86.75 52.25 88.7 51.1 90.6 50.6 93.05 50.15 95.25 50.35 97.2
L 46.1 76.4 48.9 76.4 48.9 67.95
M 57.35 98.7
Q 56.45 96.85 56.95 94.2 57.6 90.85 59.15 89.65 60.35 88.75 61.8 88.75
L 62.75 88.9
Q 64.1 89.15 64.95 89.85 65.8 90.55 66.25 91.4
L 64.5 100.65
Q 64.05 100.9 62.9 101.05
L 61.9 101.15 60.45 101
Q 58.25 100.55 57.35 98.7
M 96.35 48.3
L 90.45 48.3 90.45 53.7 96.35 53.7 96.35 48.3 Z"/>
</g>
</g>
</g>
</g>
</svg>
