
<svg xmlns="http://www.w3.org/2000/svg" version="1.1" xmlns:xlink="http://www.w3.org/1999/xlink" preserveAspectRatio="none" x="0px" y="0px" width="145px" height="185px" viewBox="0 0 145 185">
<defs>
<linearGradient id="Gradient_1" gradientUnits="userSpaceOnUse" x1="72.5" y1="184.9875" x2="72.5" y2="0.012499999999988631" spreadMethod="pad">
<stop  offset="0%" stop-color="#ECFBFF"/>

<stop  offset="100%" stop-color="#9CD8FF"/>
</linearGradient>

<linearGradient id="Gradient_2" gradientUnits="userSpaceOnUse" x1="72.5" y1="185.025" x2="72.5" y2="115.775" spreadMethod="pad">
<stop  offset="0%" stop-color="#ECFBFF"/>

<stop  offset="100%" stop-color="#FFFFFF"/>
</linearGradient>
</defs>

<g id="Layer_1">
<g transform="matrix( 1, 0, 0, 1, 0,0) ">
<g>
<g>
<path fill="url(#Gradient_1)" stroke="none" d="
M 145 0
L 0 0 0 185 145 185 145 0 Z"/>
</g>
</g>
</g>

<g transform="matrix( 1, 0, 0, 1, 0,0) ">
<g>
<g>
<path fill="url(#Gradient_2)" stroke="none" d="
M 138.5 89.05
Q 132.85 89.05 124.45 93.55 113.35 99.5 108.65 109.3 105.35 108.15 100.35 108.15 88.55 108.15 80 115.85 73.55 121.6 69.85 130.65 60.95 124.75 53.45 124.75 46.5 124.75 36.75 131.15
L 35.2 132.15
Q 32.3 127.75 28.25 125.4 23.95 122.95 18.65 122.95 13.75 122.95 8.2 125.15 3.6 126.95 0 129.65
L 0 185 145 185 145 91.05
Q 140.65 89.05 138.5 89.05 Z"/>
</g>
</g>
</g>

<g transform="matrix( 0.76312255859375, 0, 0, 0.7629241943359375, 0,15) ">
<g>
<g>
<path fill="#014776" stroke="none" d="
M 124.1 38.8
Q 122.65 36.8 122.4 36.6 122.2 36.5 121.35 36 120.5 35.5 120.2 35.35 118.75 34.75 116.8 35.15 115 35.65 114.7 35.7
L 114.7 30.05
Q 114.65 28.7 113.45 27.1 112.3 25.6 111.35 25.3
L 102.3 28.35
Q 101.15 28.45 100.45 29.25 99.8 30.1 99.8 31.2
L 100.15 39.4 99.95 38.1
Q 99.9 37.65 99.7 37.35 99.1 36 98.15 35.05 97.15 33.95 96.3 34.05
L 95.35 32.35
Q 94.8 30.6 92.65 28.9 92.4 28.7 91.9 28.75 91.35 28.8 90.95 29.05
L 83.25 37.2
Q 82.65 37.7 82.35 38.45 82.1 39.1 82.2 39.85 81.75 40.2 81.4 40.7 80.85 41.65 81.1 42.75
L 81.15 43.3
Q 80.65 43.1 80.1 42.9
L 80.1 42.95
Q 77.9 42.3 75.45 42.65 73.25 42.85 71.1 43.55 69.05 44.4 67.1 45.3 65.05 46.35 63.1 47.8 62.5 48.25 62.15 48.95 61.9 49.65 61.95 50.4
L 62.9 57.25
Q 63 58.1 63.6 58.7
L 63.6 58.75
Q 63.5 58.85 63.45 59.05
L 39.9 37.25
Q 39.15 36.55 38.2 36.55 37.25 36.45 36.45 37 35.65 37.55 35.35 38.5
L 31.3 51.55 16.3 44.8
Q 15.15 44.35 14.2 44.7 13.3 44.9 12.75 45.8 12.25 46.55 12.4 47.75
L 16.45 85.3
Q 16.5 85.85 17.6 87.1 18.7 88.45 19.45 88.8 20 89 20.6 89.15 21.1 89.2 22.3 89.3 24.5 89.55 29 89.85
L 33.1 90
Q 36.6 90.3 37.45 89 37.95 88.3 37.7 86.75
L 35.7 76.15 43.65 82.2
Q 44.85 82.85 45.75 82.65 46.4 82.5 46.7 82.4 47.05 82.2 47.4 81.85 48.05 81.1 48.1 80.05
L 47.3 71.3 55.8 80.4
Q 57.4 81.75 59.1 80.85 59.9 80.45 60.3 79.55
L 64.95 69.25
Q 65.3 69.8 65.7 70.2
L 65.75 70.3
Q 66.75 71.55 68.9 72.55 71.35 73.75 73.5 73.55 73.6 73.55 74.95 73.3 76.4 73.05 77.15 72.75
L 90.45 67.4
Q 91.35 66.95 91.8 65.95 91.95 65.5 92.05 65.15 93.6 65.75 95.9 65.75 98.3 65.75 100.65 65 101.1 64.9 102.4 64.45 102.6 64.4 102.75 64.3 103.25 64.55 103.75 64.55
L 112.55 65
Q 113.35 65 114.05 64.65 114.15 64.65 114.2 64.6 114.9 64.9 115.7 64.8
L 124.45 63.8
Q 125.5 63.7 126.2 62.9 126.9 62.1 126.9 61.05
L 126.6 45.9
Q 126.55 43.7 125.95 41.85 125.65 41 124.1 38.8 Z"/>
</g>
</g>
</g>

<g transform="matrix( 0.76312255859375, 0, 0, 0.7629241943359375, 0,15) ">
<g>
<g>
<path fill="#0380D1" stroke="none" d="
M 124.7 43.5
Q 124.65 41.3 124 39.45
L 124 39.4
Q 123.45 37.75 122.05 36.2 121.95 36 121.55 35.65 121.15 35.25 121 35.15 120.8 35 119.9 34.45 119.05 33.95 118.8 33.85 117.25 33.15 115.1 33.15 113.55 33.15 112.75 33.35
L 112.75 27.65
Q 112.7 26.3 111.75 25.5 110.85 24.75 109.6 24.9
L 100.35 25.95
Q 99.2 26.05 98.5 26.85 97.85 27.7 97.9 28.8
L 98.25 37 98 35.65
Q 97.95 35.25 97.8 34.9 97.25 33.9 95.9 33.55 94.85 33.3 94.35 33.5
L 93.4 30
Q 93.2 29.15 92.3 28.65 91.55 28.25 90.75 28.35 90.05 28.4 89.25 28.95
L 81.3 34.8
Q 80.7 35.3 80.4 36 80.15 36.75 80.25 37.4 79.85 37.75 79.45 38.25 78.85 39.25 79.15 40.35
L 79.2 40.9
Q 78.7 40.7 78.15 40.5
L 78.2 40.55
Q 75.95 39.9 73.5 40.2 71.3 40.45 69.15 41.15 67.1 41.95 65.15 42.9 63.1 43.95 61.15 45.4 60.55 45.85 60.25 46.55 59.95 47.25 60 48
L 61 54.8
Q 61.1 55.7 61.65 56.25
L 61.65 56.3
Q 61.55 56.45 61.5 56.65
L 37.95 34.85
Q 37.25 34.2 36.25 34.15 35.3 34 34.5 34.6 33.7 35.1 33.4 36.1
L 29.35 49.15 14.35 42.4
Q 13.2 41.9 12.25 42.3 11.35 42.5 10.8 43.4 10.35 44.15 10.45 45.3
L 16 84.3
Q 16.25 85.85 17.5 86.35 18.05 86.6 18.65 86.7 19.15 86.8 20.35 86.9 22.6 87.15 27.05 87.45
L 31.15 87.6
Q 34.7 87.9 35.55 86.6 36 85.85 35.75 84.35
L 33.8 73.7 41.75 79.8
Q 42.9 80.45 43.85 80.25 44.45 80.1 44.75 79.95 45.1 79.8 45.45 79.45 46.1 78.7 46.15 77.65
L 45.35 68.85 53.9 78
Q 55.45 79.3 57.15 78.45 57.95 78.05 58.35 77.15
L 63 66.9
Q 63.35 67.4 63.75 67.8
L 63.8 67.85
Q 64.8 69.15 66.95 70.2 69.45 71.35 71.55 71.15 71.65 71.15 73 70.9 74.45 70.65 75.25 70.35
L 88.5 64.95
Q 89.4 64.55 89.9 63.55 90 63.15 90.1 62.7 91.65 63.35 93.95 63.35 96.35 63.35 98.7 62.65 99.15 62.45 100.45 62.05 100.65 61.95 100.8 61.9 101.3 62.1 101.8 62.1
L 110.6 62.6
Q 111.4 62.65 112.1 62.25 112.2 62.25 112.25 62.15
L 112.25 62.2
Q 112.95 62.5 113.75 62.4
L 122.55 61.4
Q 123.55 61.25 124.3 60.5 125 59.7 125 58.65
L 124.7 43.5 Z"/>
</g>
</g>
</g>

<g transform="matrix( 0.76312255859375, 0, 0, 0.7629241943359375, 0,15) ">
<g>
<g>
<path fill="#FFFFFF" stroke="none" d="
M 18.8 84
L 33.15 85.3 29.85 67.2 43.4 77.6 42.3 62.4 55.8 76.1 62.5 61.4 36.05 36.95 31.1 52.95 13.25 45 18.8 84
M 87.35 62.5
L 82.6 48.45
Q 81.8 46.25 80.5 44.95 79.15 43.8 77.45 43.25 75.75 42.8 73.8 43 72 43.15 70.15 43.85 68.25 44.55 66.4 45.5 64.55 46.4 62.85 47.65
L 63.75 54.5
Q 65.35 53.45 66.6 52.55 67.9 51.8 69.45 51.2 71.05 50.6 72.1 50.75 73.25 50.85 73.8 52.3
L 74.05 52.95
Q 73.55 52.55 72.2 52.45 70.8 52.35 69.1 53.05 67.45 53.6 66.2 54.75 65.05 55.75 64.4 57.1 63.65 58.5 63.6 59.95 63.5 61.5 64.05 63.05 64.65 64.8 65.85 66 66.95 67.25 68.3 67.8 69.7 68.5 71.25 68.55 72.8 68.6 74.35 68 76.1 67.35 77.45 66.25 78.55 65.3 79 64.15
L 79.7 66.05 87.35 62.5
M 75.4 59.95
Q 74.9 60.9 73.95 61.4 72.65 62.1 71.75 61.95 70.8 61.9 70.6 61.25 70.4 60.7 70.75 60 71.15 59.15 72.2 58.45 72.75 58.1 73.65 57.9 74.6 57.75 75.2 58.25 75.65 58.7 75.6 59.1 75.65 59.5 75.4 59.95
M 117.7 36.45
Q 116.4 35.9 114.7 35.9 113.05 35.95 111.75 36.6 110.75 37.05 110.05 37.85
L 109.95 27.7 100.65 28.75 102 59.4 110.8 59.9 110.35 45.65
Q 110.25 45 110.7 44.7 111.05 44.4 111.65 44.35 112.2 44.3 112.6 44.65 112.95 44.95 112.95 45.5
L 113.45 59.75 122.2 58.75 121.95 43.6
Q 121.9 41.95 121.4 40.6 120.95 39.1 120 38.05 119.05 37 117.7 36.45
M 90.95 31.25
L 83 37.1 83.6 39.4 81.8 39.85 83.3 47 85.35 46.5 87.3 54.95
Q 88.2 58.75 90.7 59.95 93.2 61.2 96.9 60.3 97.55 60.2 98.05 60 98.7 59.85 99.5 59.55
L 98.95 51.15
Q 98.25 51.5 98 51.55 97.05 51.8 96.75 51.85 96.4 51.9 96.05 51.75 95.85 51.6 95.55 50.6
L 94.15 44.45 96.6 43.85 95.3 36.15 92.4 37.35 90.95 31.25 Z"/>
</g>
</g>
</g>

<g transform="matrix( 0.76312255859375, 0, 0, 0.7629241943359375, 0,15) ">
<g>
<g>
<path fill="#5FCEFE" stroke="none" d="
M 30.55 54
L 30.6 54.05 14.65 46.85 19.75 83.05 31.85 84.1 28.7 67.45
Q 28.55 66.5 29.25 66.15 29.95 65.75 30.55 66.3
L 42.05 75.15 41.15 62.5
Q 41.15 61.6 41.85 61.3 42.55 61 43.15 61.6
L 55.45 74.1 61.2 61.65 36.65 39 32.25 53.35
Q 32.1 53.6 31.85 53.9 31.6 54.05 31.3 54.1 30.9 54.15 30.55 54
M 30.4 54.55
L 30.45 54.55
Q 30.9 54.75 31.4 54.7 31.85 54.6 32.25 54.3 32.6 53.9 32.7 53.55
L 36.9 40.1 60.4 61.85 55.3 73.1 43.55 61.25
Q 42.7 60.3 41.6 60.7 40.5 61.15 40.6 62.55
L 41.4 73.95 30.9 65.8
Q 29.95 65 29 65.6 28 66.15 28.15 67.5
L 31.05 83.3 20.25 82.4 15.45 47.9 30.4 54.55
M 85.9 61.9
L 81.4 48.45
Q 80.75 46.8 79.75 45.8 78.6 44.8 77.15 44.4 75.7 43.95 74 44.1 72.25 44.35 70.6 44.95 68.85 45.6 66.35 46.95 64.2 48.1 64.1 48.25
L 64.6 52.6
Q 65.35 52 66.4 51.4 67.9 50.4 69.05 50 70.1 49.7 70.25 49.7 71.4 49.4 72.3 49.55 73.25 49.8 73.85 50.3 74.5 50.85 74.9 51.9
L 75.15 52.55
Q 75.25 52.95 75.15 53.3 74.95 53.85 74.7 53.9 74.55 53.95 73.65 53.85 72.7 53.65 72.45 53.65 71.45 53.65 71.05 53.7 70.05 53.9 69.05 54.3 67.9 54.8 66.75 55.8 63.9 58.75 65.1 62.6 65.65 64.1 66.65 65.2
L 67.25 65.8
Q 67.95 66.45 68.75 66.8 69.95 67.35 71.15 67.35 72.3 67.4 73.8 67 75.3 66.55 76.5 65.6 77.55 64.65 77.95 63.7 78.15 63.25 78.6 63.1 79.05 62.9 79.5 63.1 79.9 63.25 80.1 63.75
L 80.35 64.45 85.9 61.9
M 81 49
L 85.15 61.6 80.7 63.65
Q 80.45 62.85 79.8 62.55 79.1 62.25 78.4 62.55 77.65 62.85 77.45 63.45 77.05 64.35 76.35 64.9 75.3 65.8 73.95 66.35 72.95 66.7 72.05 66.8 70.5 66.9 69.05 66.3 68 65.8 67.15 64.95 66.2 64 65.65 62.4 64.8 60.05 65.95 57.85 66.75 56.3 68.35 55.3 70.1 54.2 72 54.2 72.05 54.2 73.4 54.35 74.8 54.6 75 54.4 75.55 54 75.7 53.45 75.85 52.9 75.6 52.35
L 75.4 51.7
Q 74.95 50.6 74.3 49.95 73.7 49.4 72.75 49.15 71.65 48.85 69.95 49.2 68.55 49.55 66.7 50.6 65.35 51.35 65.05 51.55
L 64.75 48.5
Q 65.25 48.1 67.1 47.15 68.7 46.35 69.55 46
L 70.8 45.5
Q 72.5 44.85 74.05 44.7 76.8 44.35 78.8 45.8 80.5 47 81 49
M 73.8 56.3
L 73.75 56.3
Q 72.3 56.35 71.05 57.2 70.35 57.65 69.85 58.2 69.5 58.55 69.2 59 68.4 60.45 69.05 61.95 69.65 63.4 71.2 63.7 72.4 63.9 73.5 63.55
L 73.55 63.55
Q 74.8 63.05 75.9 62.1 76.9 61.15 77.2 59.85 77.55 58.35 76.5 57.3 75.4 56.05 73.8 56.3
M 71.3 57.65
Q 72.5 56.9 73.8 56.85 75.2 56.65 76.1 57.65 76.95 58.5 76.65 59.75 76.4 60.95 75.45 61.75 74.55 62.45 73.4 62.9 73.35 62.95 73.3 62.95 72.3 63.3 71.3 63.15 70.1 62.9 69.55 61.75 69.05 60.55 69.65 59.35 70.05 58.7 70.3 58.55 70.7 58.05 71.3 57.65
M 108.8 29
L 101.9 29.8 103.05 58.35 109.6 58.65 109.15 45.6
Q 109.15 44.75 109.55 44.15 110.15 43.25 111.55 43.2 112.3 43.1 113 43.55 113.4 43.8 113.6 43.95 113.8 44.15 114 44.65 114.15 45 114.15 45.45
L 114.6 58.4 121.1 57.65 120.75 43.65
Q 120.75 42.15 120.3 40.95 120.05 40.1 119.6 39.4 118.6 37.95 116.85 37.35 115.9 37.05 114.7 37.1 113.4 37.15 112.35 37.65 112.3 37.65 112.25 37.65 111.45 38.05 110.95 38.65 110.45 39.25 109.65 38.95 108.85 38.65 108.9 37.8
L 108.8 29
M 102.5 30.3
L 108.2 29.65 108.35 37.95
Q 108.35 39.15 109.4 39.6 110.45 40.05 111.3 39.15 113.05 37.25 116.1 37.85 118.65 38.3 119.65 40.7 120.2 42 120.2 43.65
L 120.5 57.2 115.1 57.8 114.65 45.5
Q 114.65 44.25 113.9 43.45 113.05 42.6 111.7 42.6
L 111.5 42.6
Q 110.45 42.65 109.6 43.25 108.45 44.1 108.55 45.7
L 109 58.05 103.7 57.8 102.5 30.3
M 84.7 39.3
Q 84.9 40.15 83.85 40.6
L 83.1 40.8 84.1 45.65 85.05 45.4
Q 85.5 45.25 85.9 45.55 86.35 45.8 86.45 46.3
L 88.45 54.7
Q 89.15 57.8 91.25 58.9 92.5 59.5 93.7 59.55 95.2 59.6 97.6 58.95
L 98.3 58.65 97.9 52.75
Q 96.8 53.05 96.3 53.05 95.75 53.1 95.2 52.65 94.7 52.2 94.55 51.5
L 93 44.75
Q 92.9 43.65 93.85 43.3
L 95.3 43 94.45 37.7 92.85 38.45
Q 92.5 38.55 92.2 38.5
L 92.15 38.5
Q 91.8 38.4 91.55 38.2 91.3 37.95 91.25 37.6
L 90.3 33.2 84.3 37.65 84.7 39.3
M 84.2 41.1
Q 85.6 40.55 85.25 39
L 85 37.85 89.9 34.2 90.7 37.7
Q 90.8 38.2 91.2 38.6 91.6 38.95 92.1 39.05 92.5 39.1 93 38.95
L 94 38.55 94.65 42.55 93.75 42.75
Q 93.05 42.85 92.6 43.55 92.3 44.05 92.45 44.85
L 93.85 51
Q 94.2 52.6 95 53.25 95.75 53.8 97.1 53.6
L 97.45 53.5 97.7 58.25
Q 97.1 58.5 96.6 58.6
L 96.5 58.65
Q 93.5 59.3 91.5 58.45 89.65 57.4 89 54.55
L 87 46.1
Q 86.8 45.45 86.25 45
L 86.2 45
Q 85.6 44.7 84.9 44.85
L 84.85 44.85 84.65 44.9 83.9 41.2 84.2 41.1 Z"/>
</g>
</g>
</g>

<g transform="matrix( 0.76312255859375, 0, 0, 0.7629241943359375, 0,15) ">
<g>
<g>
<path fill="#014776" stroke="none" d="
M 178.4 85.8
L 179.55 80.3
Q 179.85 78.4 178.7 77.6 176.4 75.95 175.95 75.8 174 75.2 171.35 75 169.15 74.8 168.05 74.95 165.85 75.35 164.4 76.2 163.4 76.8 162.75 77.5 162.55 77.6 162.35 77.9 161.75 76.9 160.7 75.95
L 160.3 75.7
Q 157.65 73.4 153.7 73.05 151.2 72.8 149.1 73.5
L 149.2 73.5
Q 148.1 73.75 146.9 74.45
L 146.85 74.45
Q 145.8 75.05 145.4 75.45
L 144.85 75.95 144.9 74.85
Q 144.95 74 144.9 73.75
L 144.95 68.8
Q 144.95 68.25 144.8 67.65 144.75 67.5 144.65 67.35 144.55 67.15 144.45 67.05 144.4 67 144.35 66.95 144.15 66.65 142.95 65.7 141.65 64.65 141.3 64.65
L 134.75 66.1
Q 134.05 66.1 133.6 66.4
L 133.2 66.65
Q 133.1 66.6 133 66.55 132.25 66.25 131.5 66.4
L 124.2 67.45
Q 123.05 67.65 122.4 68.55 121.7 69.45 121.8 70.5
L 122.2 73.45
Q 122.1 73.45 121.95 73.45
L 121.9 73.45
Q 119.35 73.7 117.35 74.8 117.3 74.85 117.25 74.85 116.5 75.35 115.9 75.8 115.85 75.85 115.8 75.9 115.7 75.95 115.55 76.1
L 115.5 76.15
Q 115.45 76.15 115.45 76.2 115.1 76.5 114.8 76.85 114.55 77.1 114.35 77.4
L 112.95 71.05
Q 112.7 70.1 111.4 68.9 110 67.65 108.9 67.55
L 101.85 71.5
Q 99.9 72.1 100.5 74.55
L 101.25 77.35
Q 101.1 77.4 101 77.45 98.4 78 96.7 79.4 96.65 79.4 96.65 79.45 95.35 80.5 94.6 81.6 94.35 81.1 93.9 80.65 93.2 79.7 92.6 79.4 91.9 78.95 91.4 78.7 90.5 78.25 90.15 78.35
L 83.9 82.2
Q 83.05 82.05 82.4 82.35
L 75.65 84.7
Q 74.95 84.95 74.5 85.45 74.25 85.7 74.1 86 73.6 87 73.9 88
L 74.7 91.05
Q 74 90.75 73.25 90.6 73.6 89.35 73.65 88.2 73.65 86.4 72.65 84.3 71.45 81.75 69.4 80.4 67.95 79.3 67.1 78.8 65.55 77.9 63.8 77.9 63.35 77.9 62 78.45 60.4 79.2 59.65 79.45 57.65 80.25 55.25 81.35 54.15 81.85 52.5 82.7 51.05 83.5 50.85 83.6 48.2 85.1 44.6 87.5 43.7 88.1 43.4 89.1 43.1 90.05 43.5 90.95
L 53.85 117.95
Q 54.05 118.5 55.85 119.45 57.8 120.45 58.7 120.2 64.6 118.4 67.6 117.2 71.25 115.65 73.35 114.55 77.2 112.3 78.3 111 79.65 109.45 80.1 108.05 80.7 106.45 80.95 105.4 83.5 106.9 86.95 106 88.6 105.55 89.95 104.6 90.65 104.7 91.3 104.55
L 97 102.7
Q 98 102.45 98.6 101.45 98.95 100.8 98.9 100.1 100.25 100.8 101.75 101 103.9 101.45 105.95 100.95 107.35 100.6 108.65 99.95 109.4 100.05 110.05 99.95
L 116.15 98.1
Q 117.25 97.85 117.75 96.85 117.9 96.65 118.05 96.5 118.6 96.75 119.25 97
L 119.3 97
Q 121.3 97.65 123.4 97.55
L 123.45 97.55
Q 124.85 97.4 126.3 96.95 126.95 97.25 127.7 97.1
L 133.55 96.3 133.8 96.45
Q 134.5 96.65 134.8 96.6
L 141.85 96.3
Q 143.45 96.15 145.7 94.7 146.1 95.15 147.75 95.9 149.8 96.8 151.8 97 154.55 97.2 156.95 96.75 158.35 96.45 159.25 96.05 159.85 96.4 161.6 97.15 164 98.2 165.45 98.45 167.75 98.85 169.1 98.85 171.15 98.95 172.75 98.35 174.95 97.5 176.15 96.2 177.7 94.55 178.05 92.55 178.6 89.9 178.05 88.35
L 177.6 87.2
Q 178.15 86.65 178.4 85.8 Z"/>
</g>
</g>
</g>

<g transform="matrix( 0.76312255859375, 0, 0, 0.7629241943359375, 0,15) ">
<g>
<g>
<path fill="#0380D1" stroke="none" d="
M 168.75 73.6
Q 166.7 73.25 165.75 73.4 163.55 73.8 162.1 74.6 161.1 75.25 160.45 75.9 160.3 76.05 160.05 76.3 159.45 75.3 158.4 74.4
L 158 74.15
Q 155.35 71.85 151.4 71.5 148.9 71.25 146.8 71.95
L 146.95 71.95
Q 145.8 72.15 144.6 72.85
L 144.55 72.9
Q 143.5 73.5 143.15 73.9
L 142.55 74.4 142.6 73.3
Q 142.65 72.45 142.6 72.15
L 142.65 67.25
Q 142.7 66.65 142.5 66.1 142.4 65.9 142.35 65.75 142.25 65.6 142.2 65.45 142.15 65.45 142.05 65.35 141.8 64.9 141.25 64.6 140.55 64.2 139.8 64.25
L 132.45 64.5
Q 131.8 64.5 131.3 64.8
L 130.95 65.1
Q 130.8 65 130.7 64.95 129.95 64.65 129.25 64.8
L 121.9 65.85
Q 120.75 66.05 120.1 66.95 119.4 67.85 119.5 68.95
L 119.85 71.9
Q 119.75 71.9 119.7 71.9 119.65 71.9 119.6 71.9 117.1 72.1 115.05 73.25 115 73.25 114.95 73.25 114.2 73.75 113.6 74.25
L 113.55 74.3
Q 113.4 74.4 113.25 74.55 113.2 74.55 113.2 74.6
L 113.15 74.6
Q 112.8 74.9 112.5 75.3 112.25 75.5 112.05 75.8
L 110.65 69.45
Q 110 66.6 106.65 67.75
L 99.55 69.9
Q 97.6 70.5 98.2 72.95
L 98.95 75.8
Q 98.85 75.8 98.75 75.85 96.1 76.45 94.4 77.8 94.35 77.85 94.3 77.85 93 78.95 92.25 80 92.05 79.5 91.6 79.05 91.15 78.45 90.3 78.35 89.5 78.15 88.75 78.4
L 81.6 80.65
Q 80.8 80.5 80.05 80.75
L 73.35 83.15
Q 72.7 83.4 72.2 83.85 72 84.15 71.8 84.45 71.3 85.4 71.6 86.4
L 72.4 89.5
Q 71.7 89.2 70.95 89 71.25 87.75 71.3 86.65
L 71.3 86.6
Q 71.35 84.85 70.25 82.6 68.95 79.9 67 78.8 63.85 77.05 60.75 77.05 59.55 77.05 57.4 77.9 55.35 78.65 52.9 79.8 51.9 80.25 50.2 81.15 48.75 81.95 48.55 82 45.85 83.5 42.3 85.95 41.4 86.55 41.05 87.55 40.8 88.5 41.2 89.4
L 53.05 117.05
Q 53.5 118.1 54.5 118.5 55.4 118.9 56.4 118.6 62.35 116.85 65.35 115.6 68.95 114.1 71.1 112.95 74.95 110.7 76 109.45 77.4 107.85 77.8 106.5 78.4 104.9 78.65 103.8 81.2 105.35 84.65 104.4 86.3 103.95 87.65 103 88.35 103.15 88.95 102.95
L 94.7 101.15
Q 95.75 100.85 96.3 99.9 96.65 99.25 96.65 98.5 97.95 99.25 99.45 99.4 101.6 99.9 103.65 99.4 105.05 99.05 106.35 98.35 107.1 98.5 107.75 98.35
L 113.85 96.55
Q 114.95 96.25 115.5 95.3 115.6 95.1 115.7 94.95 116.35 95.2 116.95 95.4
L 117 95.45
Q 119 96.1 121.1 95.95 122.55 95.85 123.95 95.4 124.65 95.7 125.45 95.55
L 131.2 94.75 131.5 94.9
Q 132.25 95.05 132.45 95
L 139.55 94.7
Q 141.1 94.6 143.45 93.1 143.8 93.6 145.4 94.3 147.5 95.2 149.5 95.4 152.25 95.6 154.7 95.2 156.1 94.9 157 94.5 157.55 94.85 159.3 95.55 161.7 96.6 163.15 96.85 165.4 97.25 166.75 97.25 168.85 97.4 170.45 96.75 172.65 95.95 173.85 94.65 175.4 92.95 175.8 90.95 176.25 88.3 175.75 86.8
L 175.35 85.65
Q 175.85 85.1 176.1 84.25
L 177.25 78.7
Q 177.6 76.85 176.45 76.05 176.3 75.95 174.85 75.3 173.35 74.7 173.05 74.6 170.95 73.95 168.75 73.6 Z"/>
</g>
</g>
</g>

<g transform="matrix( 0.76312255859375, 0, 0, 0.7629241943359375, 0,15) ">
<g>
<g>
<path fill="#FFFFFF" stroke="none" d="
M 56.5 81.05
Q 53.85 82.25 51.6 83.45 48.5 85.15 43.75 88.3
L 55.65 115.95
Q 60.8 114.45 64.35 113.05 67.2 111.75 68.35 111.1 71.15 109.7 72.9 108.45 73.45 108.05 74.15 107.1 74.8 106.3 75.2 105.55 75.65 104.6 76.05 102.9 76.35 101.25 76.4 99.35 76.4 97.45 75.45 95.65 74.55 93.95 72.5 92.6 70.5 91.35 67.1 91.15 68.45 88.65 68.45 86.6 68.55 84.6 67.75 83.25 67.05 82.05 65.65 81.35 62 79.55 59.3 80.1 58.35 80.3 56.5 81.05
M 57.9 94.45
L 56.65 91.25
Q 57.55 90.35 58.25 90.25 59.15 90.15 59.4 90.8 59.8 91.65 59.6 92.55 59.4 93.6 58.65 94.05 58.4 94.25 57.9 94.45
M 61.5 100.1
Q 61.7 99.9 62.1 99.6 62.5 99.3 62.55 99.3 63.4 98.95 64.25 99.1 65 99.25 65.35 99.75 65.85 100.5 65.45 101.6 65 102.65 64.1 103.25 63.1 103.95 62 104.15
L 60.35 101.2
Q 60.9 100.5 61.5 100.1
M 159.8 81.15
Q 158.95 78.3 156.9 76.5 154.85 74.8 151.8 74.45 149.95 74.2 148.3 74.75 146.5 75.2 145.2 76.35 143.85 77.4 142.9 79.1 142 80.8 141.8 83.05 141.55 84.8 142.05 86.55 142.6 88.25 143.8 89.6 144.85 90.85 146.5 91.75 148.1 92.65 150.05 92.85 152.55 93.15 154.55 92.7 156.5 92.4 158.6 91.1
L 156.05 85.7
Q 154.9 86.35 154 86.7 152.65 87.1 151.75 87 150.75 86.85 150.35 86.65
L 159.8 81.15
M 148.55 83.35
Q 148.6 83.3 148.5 82.85 148.45 82.2 148.75 81.55 148.9 81.15 149.45 80.65 150.2 80 151.15 80.05 152 80.05 152.8 80.75
L 148.55 83.35
M 139.95 74.25
L 132.8 74.65 132.55 92.1 139.35 91.65 139.95 74.25
M 139.75 72.75
L 140.2 67.05 132.85 67.25 132.75 73.15 139.75 72.75
M 116.4 75.7
Q 114.9 76.6 113.9 77.95 113 79.25 112.55 81.05 112.1 82.8 112.25 84.7 112.45 86.85 113.2 88.45 114 90.1 115.2 91.2 116.45 92.25 117.9 92.8 119.4 93.25 120.95 93.15 122.2 93.05 123.45 92.55 124.35 92.15 125 91.55
L 125.05 92.8 131.3 91.85 129.65 67.55 122.3 68.65 123.1 75.6
Q 122.85 75.05 121.8 74.85 120.9 74.6 119.85 74.65 117.95 74.85 116.4 75.7
M 118.8 83.6
Q 119.25 82.45 120.15 82 120.55 81.8 121.25 81.6 122.1 81.45 122.8 81.8 123.8 82.3 124 83.3 124.25 84.25 123.6 85.15 123.05 86.05 121.95 86.4 120.85 86.7 119.9 86.25 119.3 85.95 119 85.45 118.8 85.05 118.7 84.55 118.6 83.95 118.8 83.6
M 89.65 81.05
L 82.75 83.5 85.6 93.65
Q 85.8 94.2 85.6 94.45 85.35 94.7 84.9 94.9 84.35 95 84.05 94.9 83.75 94.7 83.65 94.15
L 80.9 83.35 74.25 85.7 77.45 97.85
Q 78.15 100.4 79.9 101.3 81.6 102.35 83.85 101.75 85.5 101.3 86.7 100.2 87.4 99.55 87.7 98.6
L 88.1 100.35 93.85 98.55 89.65 81.05
M 93.85 82.6
Q 93.1 84.1 92.9 85.9 92.8 87.65 93.2 89.6 93.65 91.7 94.7 93.15 95.65 94.65 97.1 95.55 98.35 96.45 99.95 96.7 101.5 97.05 103 96.7 104.25 96.4 105.4 95.65 106.25 95.1 106.75 94.5
L 106.95 95.65 113.15 93.9 107.85 70.1 100.9 72.2 102.6 78.95
Q 102.25 78.45 101.25 78.35 100.25 78.3 99.25 78.55 97.4 79.05 95.95 80.1 94.6 81.2 93.85 82.6
M 100.75 89.9
Q 100.4 89.75 100 89.35 99.65 88.9 99.5 88.5 99.3 87.8 99.55 87.25 99.5 87.15 99.7 86.75 99.95 86.3 100.2 86.05 100.85 85.45 101.7 85.15 102.6 84.9 103.45 85.25 104.4 85.7 104.7 86.7 105 87.65 104.35 88.55 103.8 89.5 102.75 89.95 101.7 90.3 100.75 89.9
M 173.9 78.2
Q 173.3 77.95 172.75 77.75 172.2 77.55 171.4 77.3 170.7 77.05 170 76.95 168.05 76.55 166.65 76.7 165.2 76.9 164.1 77.55 163 78.1 162.5 79 161.9 79.85 161.65 80.85 161.35 82.35 161.6 83.35 161.9 84.4 162.45 85.15 163 85.8 163.75 86.35 164.5 86.75 165.1 87.05 165.7 87.45 165.95 87.65 166.3 87.95 166.3 88.15 166.2 88.35 166.05 88.45 165.9 88.5 165.45 88.5 164.95 88.5 163.95 88.3 163.35 88.2 162.3 87.8 161.05 87.35 160.5 87
L 159.25 92.8
Q 160.6 93.55 161.7 93.9 162.85 94.3 164.1 94.55 165.65 94.9 167.25 94.95 168.7 95 170 94.65 171.3 94.3 172.2 93.3 173.2 92.35 173.55 90.7 173.8 89.25 173.55 88.2 173.25 87.1 172.65 86.45 172.1 85.7 171.3 85.15 170.5 84.7 169.9 84.4 169.3 84.1 168.95 83.8 168.65 83.5 168.65 83.25 168.7 83.15 168.95 83.05 169.1 82.95 169.9 83.05 170.95 83.2 172.15 83.6 172.95 83.85 173.8 84.2
L 175.05 78.7
Q 174.5 78.45 173.9 78.2 Z"/>
</g>
</g>
</g>

<g transform="matrix( 0.76312255859375, 0, 0, 0.7629241943359375, 0,15) ">
<g>
<g>
<path fill="#5FCEFE" stroke="none" d="
M 56.3 82.4
Q 55.1 82.95 52.15 84.5 49.45 85.9 45.2 88.8
L 56.3 114.7
Q 60.85 113.15 63.8 112.05 64.75 111.75 66.9 110.7 70.2 109.15 71.7 107.8 74.4 105.5 75.05 102 75.65 98.8 74.4 96.2 73.7 94.8 71.95 93.65
L 71.9 93.65
Q 70.1 92.45 67.1 92.35 66.55 92.35 66.15 91.7 65.85 91.1 66.05 90.65 66.85 89 67.15 87.45 67.55 85.25 66.75 83.9 65.2 81.35 61 81.2 59.3 81.1 56.3 82.4
M 52.45 85
Q 56.6 82.75 58.75 82.05 60.45 81.6 62.7 82 63.55 82.15 64.8 82.8 65.6 83.2 66.25 84.2 67 85.3 66.6 87.4 66.35 88.95 65.6 90.4 65.35 90.8 65.4 91.4 65.5 91.95 65.85 92.35 66.3 92.9 67.05 92.95 69.6 92.95 71.65 94.15 73.3 95.3 73.95 96.5 74.35 97.3 74.55 98.85 74.65 100.05 74.6 100.5 74.45 102.85 73.45 104.7 72.55 106.4 70.8 107.8 68.75 109.4 63.45 111.5 60.15 112.75 56.6 113.9
L 46 89
Q 49.4 86.6 52.45 85
M 65.8 97.8
Q 65.15 97.35 64.2 97.25 63.1 97.05 61.55 97.95
L 61.75 97.8
Q 60.35 98.5 59.05 100.05
L 59.05 100
Q 58.65 100.45 58.6 101 58.6 101.45 58.85 102
L 60.6 105.05 60.5 104.95
Q 60.85 105.55 61.4 105.75 61.95 106 62.55 105.85 64.55 105.2 65.8 104.1
L 65.7 104.15
Q 66.9 103.05 67.2 102.25 67.2 102.2 67.2 102.15 67.4 101.6 67.45 101 67.45 99.15 65.8 97.8
M 63.95 97.85
Q 64.75 97.85 65.3 98.2 66.8 99.15 66.9 101 66.85 101.45 66.7 102
L 66.65 102.1
Q 66.35 102.75 65.4 103.7
L 65.3 103.75
Q 64.25 104.75 62.35 105.35 62.05 105.4 61.6 105.25 61.2 105.1 61.05 104.8
L 61.05 104.75 59.35 101.75
Q 59.15 101.4 59.2 101 59.2 100.65 59.45 100.45 60.7 99.05 61.75 98.45 63.15 97.65 63.95 97.85
M 60.05 88.8
Q 59.35 88.25 57.9 88.45 56.8 88.6 55.5 90 55.1 90.45 55 90.95 54.9 91.4 55.1 91.85
L 56.25 95.1
Q 56.5 95.6 57.05 95.9 57.65 96.25 58.2 96.05 59.5 95.85 60.3 94.85
L 60.35 94.75
Q 60.9 94.15 61.2 93.5 61.7 92.35 61.65 91.3 61.5 90.25 60.8 89.35 60.45 89.05 60.05 88.8
M 55.85 90.45
Q 56.75 89.5 57.4 89.2 58.65 88.8 59.85 89.35 60.8 90 60.9 91 61.05 91.8 60.95 92.5 60.75 93.4 60.2 94.05 59.1 95.35 58.15 95.55 57.75 95.6 57.35 95.45 56.9 95.2 56.8 94.9
L 55.65 91.7
Q 55.5 91.35 55.6 91.1 55.6 90.75 55.85 90.45
M 156.05 77.35
L 156.05 77.3
Q 154.85 76.35 153.35 75.9 153.25 75.85 153.15 75.85 152.65 75.75 152.1 75.65 149.65 75.25 147.25 76.35 146.85 76.5 145.95 77.1 144.55 78.2 143.8 79.7 143.3 80.65 143.1 81.7 142.9 82.8 142.85 83.25 142.8 85.15 143.2 86.25 143.6 87.6 144.65 88.85 145.35 89.65 146.35 90.35 147.4 91.05 148.5 91.35 149.2 91.65 150.25 91.7 152.3 91.95 154.35 91.6 155.35 91.35 157.1 90.7
L 155.45 87.25
Q 153.95 87.9 152.3 88 150.7 88.1 149.8 87.55 148.9 87 149.35 86.05 149.45 85.9 149.8 85.65
L 158.45 80.7
Q 157.5 78.6 156.05 77.35
M 155.7 77.6
Q 155.7 77.65 155.8 77.75 157 78.8 157.8 80.4
L 149.55 85.25
Q 149.15 85.5 148.95 85.95 148.7 86.35 148.7 86.8 148.75 87.5 149.4 87.95 149.7 88.1 150 88.25 150.05 88.25 150.8 88.4 151.65 88.55 152.45 88.45 153.15 88.45 154.2 88.2 155 87.95 155.3 87.85
L 156.5 90.4
Q 155.55 90.8 154.3 91.1 152.65 91.45 150.3 91.25 148.25 90.95 147.25 90.3 144.25 88.45 143.55 85.65 142.95 83 144.2 80 144.95 78.45 146.15 77.6 146.65 77.1 147.35 76.8 149.55 75.85 151.8 76.1 154.05 76.3 155.7 77.6
M 153.6 79.9
Q 153.2 79.5 152.35 79.15 151.65 78.9 151.2 78.9 149.15 78.85 147.9 80.6 147.3 81.65 147.35 83.15 147.4 84 147.75 84.3 147.8 84.4 148.15 84.5 148.7 84.6 149.1 84.3
L 153.35 81.65
Q 154.1 81.2 153.95 80.5 153.9 80.25 153.6 79.9
M 152.35 79.65
Q 152.8 79.8 153.25 80.3 153.4 80.4 153.5 80.65 153.5 80.85 153.4 81.05 153.25 81.2 153.15 81.3
L 148.85 83.95
Q 148.75 84 148.7 84 148.05 84.15 147.9 83.65 147.5 81.35 149.05 80.05 149.75 79.55 150.6 79.45 151.45 79.3 152.35 79.65
M 138.75 75.4
L 134 75.75 133.7 90.85 138.2 90.6 138.75 75.4
M 134.45 76.25
L 138.2 76 137.75 90 134.3 90.25 134.45 76.25
M 133.9 68.4
L 133.95 71.95 138.6 71.7 138.9 68.2 133.9 68.4
M 134.5 71.4
L 134.5 68.95 138.35 68.8 138.2 71.1 138.2 71.2 134.5 71.4
M 119.65 75.95
Q 118.1 76.15 116.9 76.9 115.45 77.8 114.7 78.95 114 79.95 113.65 81.4 113.4 82.55 113.45 83.8 113.45 86.55 114.5 88.5 115.15 89.7 116.1 90.5 118.15 92.15 120.5 92.15 121.3 92.2 121.95 92 122.35 91.85 122.9 91.65 123.75 91.25 124.2 90.8 124.35 90.6 124.65 90.45 124.85 90.35 125.1 90.35 125.45 90.4 125.75 90.8 125.85 90.9 126 91.15 126.1 91.4 126.05 91.55
L 130.15 91.15 128.5 68.9 123.7 69.65 124.35 75.5
Q 124.3 76.05 124 76.3 123.75 76.55 123.15 76.4 122.45 76.15 122.1 76.1 120.95 75.8 119.65 75.95
M 117.25 77.35
Q 118.4 76.7 119.85 76.55 121.5 76.35 122.85 76.95 123.7 77.35 124.4 76.8 124.9 76.35 124.85 75.45
L 124.25 70.25 128.05 69.65 129.55 90.55 126.5 90.85
Q 125.95 89.75 125.05 89.75 124.35 89.8 123.75 90.4 123.4 90.8 122.8 91.1 121.55 91.6 120.7 91.6 118.4 91.55 116.65 90.15 114.9 88.75 114.3 86.4 114.05 85.65 114 85.05 113.95 84.45 113.95 83.1 114 82.75 114.25 81.6 114.45 80.5 115.05 79.55 115.9 78.1 117.25 77.35
M 118.2 81.6
Q 117.05 82.9 117.1 84.65 117.2 86.45 118.75 87.55
L 118.6 87.5
Q 119.95 88.5 121.75 88.25 123.25 88 124.55 86.9 125.65 85.8 125.7 84.25 125.9 82.25 124.4 81.1 123.05 79.95 121.35 80.05 119.5 80.3 118.2 81.6
M 118.65 81.95
Q 119.7 80.8 121.3 80.65 122.8 80.45 124.05 81.5 125.3 82.5 125.15 84.25 125.15 85.55 124.2 86.4 123 87.4 121.6 87.75 120.15 87.9 119 87.1 117.75 86.15 117.7 84.6 117.6 83.05 118.65 81.95
M 88.8 82.6
L 84.15 84.15 86.85 93.3
Q 87.35 95.4 85.15 96.05 84.25 96.3 83.55 95.95 82.75 95.55 82.55 94.5
L 80.1 84.9 75.6 86.5 78.65 97.6
Q 79.1 99.5 80.4 100.2 80.65 100.4 80.9 100.55 82.1 100.95 83.6 100.6 85.05 100.35 86.45 99 87.15 98.3 87.7 97.65 88.1 97.65 88.3 98.35
L 88.6 99.05 92.45 97.9 88.8 82.6
M 84.85 84.6
L 88.4 83.3 91.8 97.4 88.95 98.3
Q 88.95 98.2 88.75 97.75 88.55 97.45 88.45 97.3 88.35 97.1 88.05 97 87.65 96.8 86.9 97.55 86.15 98.4 85.85 98.65
L 85.35 99.15
Q 84.3 100 83.4 100.15 81.55 100.4 80.5 99.65 79.6 98.95 79.2 97.45
L 76.3 86.8 79.75 85.55 82.05 94.8
Q 82.4 96.05 83.25 96.5 84.15 96.95 85.5 96.55 86.75 96.05 87.25 95.15 87.6 94.35 87.3 93.3 87.3 93.25 87.3 93.2
L 84.85 84.6
M 106.95 71.45
L 102.3 72.95 103.75 78.65
Q 103.85 79.15 103.55 79.5 103.35 79.75 102.75 79.65 102 79.6 101.65 79.55 100.5 79.4 99.2 79.75 97.7 80.15 96.65 81.05 95.3 82.15 94.7 83.4 94.2 84.5 94.1 86 93.95 87.2 94.15 88.4 94.55 91.15 95.9 92.9 96.75 94.05 97.8 94.65 100.05 96 102.35 95.7 103.2 95.55 103.8 95.25 104.15 95.1 104.65 94.75 105.4 94.3 105.85 93.8 105.95 93.6 106.2 93.4 106.45 93.25 106.65 93.25 107.05 93.2 107.4 93.5 107.5 93.65 107.65 93.85 107.8 94.15 107.85 94.25
L 111.8 93.3 106.95 71.45
M 102.95 73.4
L 106.6 72.3 111.1 92.8 108.15 93.5
Q 107.45 92.5 106.5 92.65 105.85 92.8 105.35 93.45 105.05 93.9 104.55 94.25 103.35 94.95 102.5 95.05 100.2 95.4 98.3 94.2 96.35 93.1 95.4 90.85 95.05 90.15 94.95 89.55 94.8 88.95 94.6 87.65 94.6 87.25 94.65 86.1 94.7 85.05 95.15 84 95.8 82.4 97.05 81.45 98.05 80.65 99.5 80.3 101.15 79.9 102.55 80.3 103.45 80.5 104 79.9 104.5 79.4 104.3 78.55
L 102.95 73.4
M 97.95 88.7
Q 98.3 90.45 99.9 91.35
L 99.8 91.35
Q 101.35 92.15 103.05 91.65 104.5 91.15 105.65 89.85 106.6 88.65 106.4 87.15 106.3 85.1 104.65 84.15 103.15 83.2 101.45 83.55 99.7 84.05 98.55 85.5 97.65 87 97.95 88.7
M 100.15 90.85
Q 98.8 90.05 98.5 88.6 98.15 87.05 99.1 85.8 99.95 84.55 101.5 84.15 102.95 83.75 104.35 84.6 105.8 85.4 105.85 87.15 106 88.45 105.2 89.45 104.15 90.6 102.85 91.1 101.45 91.5 100.15 90.85
M 172.9 82.45
L 173.65 79.15
Q 172.15 78.5 171 78.15 168.65 77.55 166.75 77.7 166.2 77.75 165.85 77.85 165.45 77.95 164.8 78.25 164 78.6 163.35 79.55 162.85 80.3 162.7 80.95 162.45 82.2 162.7 83 162.85 83.6 163.3 84.25
L 163.35 84.25
Q 163.8 84.85 164.45 85.25
L 166.85 86.75
Q 167.55 87.25 167.45 88 167.4 88.75 166.6 89.25 165.95 89.7 164.45 89.35 161.9 88.75 161.3 88.6
L 160.6 92.1
Q 161.75 92.55 162.3 92.65 163.9 93.2 164.4 93.3 164.5 93.3 166.6 93.65 168.95 93.75 170.6 92.95 171.1 92.65 171.45 92.25 172 91.55 172.35 90.6 172.95 88.45 172.1 87.2 171.55 86.5 170.7 85.9 169.8 85.35 169.45 85.2 168.55 84.75 168.3 84.55 167.7 84.05 167.6 83.25 167.55 82.65 167.75 82.45 168.55 81 172.5 82.3
L 172.9 82.45
M 172.65 81.8
L 172.6 81.8
Q 170.8 81.2 169.25 81.3
L 168.65 81.35
Q 167.7 81.5 167.35 82.25 167.05 82.85 167.2 83.6 167.35 84.1 167.55 84.4 167.8 84.7 168.25 85.1
L 170.3 86.25
Q 172.2 87.5 172.1 89.2 172.05 90.1 171.65 91 170.75 93.2 167.05 93.15 166.6 93.1 165.95 93.05 165.2 92.95 164.5 92.8
L 161.15 91.8 161.75 89.2 164.8 89.95
Q 165.7 90.05 166.55 89.8 166.9 89.65 167.25 89.3 167.7 88.9 167.85 88.5 168.2 87.55 167.55 86.75 167.3 86.5 166.55 86
L 164.65 84.75
Q 162.55 83.4 163.2 81.2 163.75 79.2 165.25 78.55 166.15 78.15 167.2 78.15 170.05 77.95 173.2 79.4
L 172.65 81.8 Z"/>
</g>
</g>
</g>

<g transform="matrix( 0.76312255859375, 0, 0, 0.7629241943359375, 0,15) ">
<g>
<g>
<path fill="#00BFFF" stroke="none" d="
M 29.9 176.2
Q 23.45 176.2 19 180.65 14.55 185.15 14.55 191.55 14.55 197.9 19 202.4 23.5 206.9 29.9 206.9
L 104.2 206.9
Q 110.55 206.9 115.05 202.4 119.55 197.9 119.55 191.55 119.55 185.15 115.05 180.65 110.55 176.2 104.2 176.2
L 29.9 176.2 Z"/>
</g>
</g>
</g>

<g transform="matrix( 0.76312255859375, 0, 0, 0.7629241943359375, 0,15) ">
<g>
<g>
<path fill="#FFFFFF" stroke="none" d="
M 96.85 187.05
L 96 190.85 95.95 190.85 94.8 187.05 91.05 187.5 94.3 196 92.8 200.05 96.7 200.4 100.4 187.35 96.85 187.05
M 91 186.9
Q 90.55 186.85 90.1 186.85 87.95 186.85 87.5 188.8
L 87.45 188.8 87.45 186.85 83.95 187.2 84.05 197.3 87.7 197 87.7 192.55
Q 87.7 191.55 88.2 191.05 88.75 190.6 89.5 190.6 89.7 190.6 89.85 190.6 89.95 190.6 90.1 190.6
L 91 186.9
M 78.15 191.1
Q 77.8 190.8 77.25 190.6 76.7 190.35 75.9 190.35 75.15 190.35 74.5 190.6 73.85 190.85 73.35 191.3 72.9 191.75 72.6 192.35 72.35 192.95 72.35 193.65 72.35 194.45 72.6 195.1 72.9 195.75 73.35 196.25 73.85 196.7 74.45 196.95 75.05 197.2 75.75 197.2 76.6 197.2 77.3 196.95 78 196.7 78.5 196.05
L 78.55 196.05 78.55 197.2 82 196.9 82.2 190.4
Q 82.2 189.35 81.85 188.65 81.5 187.9 80.85 187.5 80.25 187.05 79.45 186.85 78.65 186.65 77.8 186.65 76.85 186.65 75.95 186.7 75.05 186.8 74.25 187.05
L 73.55 189.8
Q 74.25 189.6 74.9 189.45 75.55 189.3 76.3 189.3 77.15 189.3 77.65 189.55 78.15 189.8 78.15 190.6
L 78.15 191.1
M 75.55 194.55
Q 75.1 194.35 75.05 193.95 75 193.55 75.35 193.25 75.75 192.9 76.35 192.85 77.05 192.7 77.45 192.95 77.85 193.2 77.9 193.5 77.95 193.9 77.65 194.2 77.3 194.55 76.6 194.65 75.95 194.75 75.55 194.55
M 55.25 187.1
L 51.4 187.4 51.4 197.35 55.05 197.05 55.25 187.1
M 60.5 186.9
L 57 187.2 57.2 197.05 60.8 197.35 60.65 191.1
Q 60.6 190.7 60.9 190.5 61.2 190.3 61.55 190.3 61.95 190.3 62.2 190.5 62.45 190.75 62.45 191.1
L 62.35 197.3 66.1 197 66 191.1
Q 66 190.8 66.25 190.55 66.5 190.3 66.9 190.3 67.3 190.3 67.55 190.5 67.8 190.7 67.8 191.05
L 67.7 197.3 71.45 197 71.35 190.45
Q 71.3 189.7 71.1 189.05 70.9 188.4 70.5 187.9 70.1 187.4 69.5 187.15 68.9 186.9 68.1 186.9 67.4 186.9 66.85 187.15 66.3 187.45 65.85 187.9 65.4 187.4 64.85 187.15 64.3 186.9 63.5 186.9 62.5 186.9 61.8 187.3 61.1 187.75 60.55 188.5
L 60.5 188.5 60.5 186.9
M 50.4 186.9
Q 49.95 186.85 49.5 186.85 47.35 186.85 46.9 188.8
L 46.85 188.8 46.85 186.85 43.35 187.2 43.45 197.3 47.1 197 47.1 192.55
Q 47.1 191.55 47.6 191.05 48.15 190.6 48.9 190.6 49.1 190.6 49.25 190.6 49.35 190.6 49.5 190.6
L 50.4 186.9
M 55.35 182.85
L 51.35 183.05 51.35 186.2 55.1 185.9 55.35 182.85
M 36.75 183.15
Q 35.2 183.3 31.95 183.7
L 32.2 197.2 36.4 197.6 36.45 194.5
Q 37.9 194.25 39.1 193.55 40.25 192.9 41.1 192 41.95 191.1 42.5 190 43 188.95 43.15 187.9 43.35 186.85 43.15 185.9 42.9 184.95 42.35 184.25 41.75 183.55 40.7 183.2 39.7 182.85 38.25 183
L 36.75 183.15
M 38.5 187.8
Q 38.55 188.05 38.55 188.2 38.55 188.35 38.55 188.4 38.5 188.55 38.35 188.8 38.15 189.1 37.85 189.35 37.55 189.65 37.1 189.95 36.6 190.2 36 190.35
L 36.2 187.55
Q 37 187.25 37.5 187.2 38 187.2 38.2 187.4 38.45 187.55 38.5 187.8 Z"/>
</g>
</g>
</g>

<g transform="matrix( 0.7631072998046875, 0, 0, 0.7628936767578125, 0,15) ">
<g>
<g>
<path fill="#FFFFFF" stroke="none" d="
M 174.55 145
Q 176.15 144.2 176.65 142.8 176.65 142.65 176.7 142.55 177.25 140.75 175.85 139.15 174.9 138 173.35 137.55
L 145.05 129.3
Q 145 129.2 144.9 129.15 143.8 128.85 142.75 129 142.7 129 142.55 129.1 141.15 129.3 140.2 130.05 125.9 141 118.75 149.85 112.8 156.95 110.35 164.1 110.15 164.45 110.05 164.95 109 168.05 108.6 171.05 106.55 185.85 115.95 195.3 124.55 204.35 141.75 206.95 157.6 209.3 168.1 202.65
L 168.2 202.65
Q 176.95 197.1 179.8 186.55
L 179.8 186.45
Q 180.3 184.5 180.55 182.45 181.2 177.95 180.2 174.05 180.25 174 180.2 173.9 180.1 173.7 180.15 173.6 180.1 173.45 180 173.4 178.6 168.6 174.9 164.75 168.1 157.3 156.3 155.65 156.2 155.65 156.15 155.6 157.95 154.3 160.1 152.85 169.2 147.6 173.8 145.4 173.8 145.35 173.9 145.35 174.1 145.25 174.45 145.05
L 174.55 145
M 147.7 179.3
L 147.75 179.25
Q 148.6 180.4 148.35 182 148.1 183.75 146.65 185.05 146.6 185.05 146.6 185.15 145.6 185.9 144.7 185.95 143.55 185.6 142.9 184.6
L 142.9 184.5
Q 141.85 182.6 142.2 180.15 142.35 179.15 142.85 178.35 144.1 177.95 145.55 178.15 146.95 178.35 147.7 179.3 Z"/>
</g>
</g>
</g>

<g transform="matrix( 0.7631072998046875, 0, 0, 0.7628936767578125, 0,15) ">
<g>
<g>
<path fill="#FBB004" stroke="none" d="
M 142.95 200.55
Q 149 202.65 154.75 202.2 161.05 201.45 165.9 198.35 172.7 194 175.35 186.25 161.25 202.4 142.95 200.55 Z"/>

<path fill="#DA9903" stroke="none" d="
M 143.2 202
Q 149.4 202.85 154.75 202.2 149 202.65 142.95 200.55 133 199.45 121.9 193.15 129.45 199.9 143.2 202 Z"/>

<path fill="#EA8D04" stroke="none" d="
M 117.55 160.65
Q 121.65 156.55 124.2 154.3 129.5 145.45 142.35 133.8 130.1 143.45 123.7 151.4 119.85 156.05 117.55 160.65 Z"/>

<path fill="#D27E02" stroke="none" d="
M 115.65 165.3
Q 119 166.5 119.65 166.65 120.25 160.8 124.2 154.3 121.65 156.55 117.55 160.65 116.4 163 115.65 165.3 Z"/>

<path fill="#BE6105" stroke="none" d="
M 115.65 165.3
Q 114.7 168.05 114.3 170.75 112.5 183.6 120.55 191.85 121.2 192.5 121.9 193.15 133 199.45 142.95 200.55 115.9 192.5 119.65 166.65 119 166.5 115.65 165.3 Z"/>

<path fill="#F98006" stroke="none" d="
M 176.55 180.8
Q 177.1 177.1 176.3 173.8 148.7 175.25 119.65 166.65 115.9 192.5 142.95 200.55 161.25 202.4 175.35 186.25 176.15 183.7 176.55 180.8
M 139.3 185.2
Q 137.7 182.3 138.25 178.55 138.6 176.1 140.2 174.15 143.1 172.6 147 173.15 150.45 173.65 152.55 176 154.65 178.4 154.15 181.8 153.7 184.95 151 187.25 150.1 187.9 149.25 188.35 147.2 189.4 145 189.1 141.15 188.55 139.3 185.2 Z"/>

<path fill="#AF4703" stroke="none" d="
M 140.2 174.15
L 141.5 176.25
Q 143.5 175.5 145.85 175.85 148.15 176.15 149.5 177.8 151.05 179.65 150.65 182.35 150.3 184.85 148.25 186.75
L 149.25 188.35
Q 150.1 187.9 151 187.25 153.7 184.95 154.15 181.8 154.65 178.4 152.55 176 150.45 173.65 147 173.15 143.1 172.6 140.2 174.15
M 176.3 173.8
Q 177.1 177.1 176.55 180.8 176.15 183.7 175.35 186.25 172.7 194 165.9 198.35 161.05 201.45 154.75 202.2 149.4 202.85 143.2 202 129.45 199.9 121.9 193.15 121.2 192.5 120.55 191.85 112.5 183.6 114.3 170.75 114.7 168.05 115.65 165.3
L 112.2 165.7
Q 111.3 168.5 110.9 171.35 109 185 117.6 193.7 125.75 202.2 142.1 204.65 156.95 206.9 166.9 200.65 174.95 195.6 177.6 185.95 178 184.1 178.25 182.1 178.85 178.05 178 174.6
L 176.3 173.8 Z"/>

<path fill="#953E04" stroke="none" d="
M 138.25 178.55
Q 137.7 182.3 139.3 185.2 141.15 188.55 145 189.1 147.2 189.4 149.25 188.35
L 148.25 186.75
Q 148.15 186.85 148.1 186.95
L 148.1 186.85
Q 146.3 188.35 144.45 188.25 142.1 187.8 140.9 185.65 139.45 183 139.9 179.8 140.15 177.95 141.35 176.4 141.4 176.35 141.5 176.25
L 140.2 174.15
Q 138.6 176.1 138.25 178.55 Z"/>

<path fill="#CF5605" stroke="none" d="
M 172 166.15
Q 175.2 169.65 176.3 173.8
L 178 174.6
Q 177.85 174.25 177.85 174 176.55 169.8 173.2 166.3 166.9 159.45 155.95 157.9 152.8 157.45 149.7 157.5
L 144.75 158.75
Q 144.7 158.8 144.55 158.9 150.8 158 156.5 158.8 166.3 160.15 172 166.15
M 171.65 140.2
L 172.2 139.55 144.35 131.45
Q 143.6 131.3 142.85 131.35 142.1 131.5 141.6 131.85 127.6 142.6 120.5 151.3 114.9 158.1 112.5 164.85 112.4 165.25 112.2 165.7
L 115.65 165.3
Q 116.4 163 117.55 160.65 119.85 156.05 123.7 151.4 130.1 143.45 142.35 133.8 143.45 133.05 144.5 132.25
L 171.65 140.2 Z"/>

<path fill="#FF9900" stroke="none" d="
M 176.3 173.8
Q 175.2 169.65 172 166.15 166.3 160.15 156.5 158.8 150.8 158 144.55 158.9 144.7 158.8 144.75 158.75 147.55 155.55 157.95 148.45 160.1 147.25 162.05 146.2 144.55 139.05 124.2 154.3 120.25 160.8 119.65 166.65 148.7 175.25 176.3 173.8 Z"/>

<path fill="#FE8E45" stroke="none" d="
M 172.75 143.3
Q 173.1 143.1 173.4 142.95 174.2 142.6 174.45 141.95 174.6 141.25 174.1 140.6 173.5 140 172.65 139.75
L 172.2 139.55 171.65 140.2 172.75 140.5
Q 171.9 140.85 170.95 141.45
L 172.75 143.3 Z"/>

<path fill="#FDA624" stroke="none" d="
M 170.05 141.85
Q 170.5 141.65 170.95 141.45 171.9 140.85 172.75 140.5
L 171.65 140.2 144.5 132.25
Q 143.45 133.05 142.35 133.8 129.5 145.45 124.2 154.3 144.55 139.05 162.05 146.2 166.85 143.4 170.05 141.85 Z"/>

<path fill="#FD751C" stroke="none" d="
M 170.95 141.45
Q 170.5 141.65 170.05 141.85 166.85 143.4 162.05 146.2 160.1 147.25 157.95 148.45 147.55 155.55 144.75 158.75
L 149.7 157.5
Q 153.05 154.85 158.9 150.8 168.15 145.5 172.75 143.3
L 170.95 141.45 Z"/>
</g>
</g>
</g>

<g transform="matrix( 0.763092041015625, 0, 0, 0.76287841796875, 0,15) ">
<g>
<g>
<path fill="#FFFFFF" fill-opacity="0.25098039215686274" stroke="none" d="
M 135.3 178.9
Q 136.7 170.85 148.55 172.25 133.5 167.3 135.3 178.9
M 160.2 138.5
L 144.5 134.1 139.6 138.1
Q 144.75 134.65 160.2 138.5
M 165.95 196.8
Q 177.35 190.05 170.3 177.35 170.05 205.4 126.7 196.5 154.55 203.65 165.95 196.8 Z"/>
</g>
</g>
</g>

<g transform="matrix( 0.763092041015625, 0, 0, 0.76287841796875, 0,15) ">
<g>
<g>
<path fill="#FFFFFF" stroke="none" d="
M 122.4 191.6
Q 122.3 192 122.75 192.55 123.6 193.75 125.9 194.55 126.8 194.85 127.8 195.05 127.8 195 127.95 194.85 128.05 194.75 127.2 194.25 126.35 193.65 124.6 192.25 122.85 190.85 123.1 190.5 122.75 190.95 122.4 191.6
M 142.95 138.1
Q 142.9 138.55 143.1 138.75 143.25 138.95 143.75 139.1 144.15 137.85 146.85 137.35 146.95 136.95 146.9 136.9 146.75 136.75 146.75 136.7 144.45 135.7 143.45 136.55 143.1 137 142.95 138.1
M 171.6 186.3
Q 171 186.25 170.75 186.65 170.4 186.9 170.45 187.2 170.6 187.65 171.05 187.85 171.45 188.1 171.95 188.1 172.5 188.05 172.8 187.8 173.15 187.5 173.05 187.1 172.95 186.7 172.55 186.5 172.05 186.2 171.6 186.3
M 172.65 182.8
Q 172.6 184.15 173.1 184.35 173.55 184.65 173.85 184.7 174.1 184.8 174.2 184.8 175.15 183 175.25 180.85 175.25 177.8 173.6 174.1 170.55 166.9 162.95 162.55 160.55 161.25 158.3 160.7
L 158.2 160.9
Q 163.65 163.3 169.25 170.15 172.65 174.25 172.75 179.55 172.75 179.85 172.75 180.2 172.6 182.1 172.65 182.8 Z"/>
</g>
</g>
</g>
</g>
</svg>
