
<svg xmlns="http://www.w3.org/2000/svg" version="1.1" xmlns:xlink="http://www.w3.org/1999/xlink" preserveAspectRatio="none" x="0px" y="0px" width="80px" height="80px" viewBox="0 0 80 80">
<defs/>

<g id="Layer_1">
<g transform="matrix( 1, 0, 0, 1, 0,0) ">
<g>
<g>
<path fill="#FF9900" stroke="none" d="
M 80 40
Q 80 23.5 68.15 11.8 56.45 0 40 0 23.45 0 11.75 11.8 0 23.5 0 40 0 56.55 11.75 68.25 23.45 80 40 80 56.45 80 68.15 68.25 80 56.55 80 40
M 66.8 13.15
Q 78.05 24.25 78.05 40 78.05 55.8 66.8 66.9 55.7 78.05 40 78.05 24.2 78.05 13.1 66.9 1.95 55.8 1.95 40 1.95 24.25 13.1 13.15 24.2 1.95 40 1.95 55.7 1.95 66.8 13.15 Z"/>
</g>
</g>
</g>

<g transform="matrix( 1, 0, 0, 1, 0,0) ">
<g>
<g>
<path fill="#FF9900" stroke="none" d="
M 30.4 53.3
L 42.05 53.3 42.05 19.25 30.4 19.25 30.4 53.3
M 34.25 23.1
Q 35.15 22.4 36.25 22.4 37.15 22.4 38 23.1 38.8 23.75 38.8 24.85 38.8 25.85 38 26.65 37.15 27.45 36.25 27.45 35.15 27.45 34.25 26.65 33.55 25.85 33.55 24.85 33.55 23.75 34.25 23.1
M 63.9 52.45
L 52.85 55.5 55.1 63.5 66.2 60.45 63.9 52.45
M 30.4 55.3
L 30.4 63.5 42.05 63.5 42.05 55.3 30.4 55.3
M 27.85 55.3
L 16.2 55.3 16.2 63.5 27.85 63.5 27.85 55.3
M 27.85 19.25
L 16.2 19.25 16.2 53.3 27.85 53.3 27.85 19.25
M 22 22.4
Q 23.1 22.4 23.9 23.1 24.7 23.75 24.7 24.85 24.7 25.85 23.9 26.65 23.1 27.45 22 27.45 21.05 27.45 20.25 26.65 19.45 25.85 19.45 24.85 19.45 23.75 20.25 23.1 21.05 22.4 22 22.4
M 54.4 17.75
L 43.25 20.8 52.45 53.6 63.4 50.45 54.4 17.75
M 48.2 23.5
Q 48.7 22.5 49.7 22.3 50.65 22 51.65 22.5 52.65 23 52.85 23.85 53.05 25.05 52.65 25.95 52.05 26.85 51.05 27.25 50.05 27.45 49.2 26.95 48.2 26.35 47.9 25.25 47.6 24.35 48.2 23.5 Z"/>
</g>
</g>
</g>
</g>
</svg>
