
<svg xmlns="http://www.w3.org/2000/svg" version="1.1" xmlns:xlink="http://www.w3.org/1999/xlink" preserveAspectRatio="none" x="0px" y="0px" width="80px" height="80px" viewBox="0 0 80 80">
<defs/>

<g id="Layer_1">
<g transform="matrix( 1, 0, 0, 1, 0,0) ">
<g>
<g>
<path fill="#FF9900" stroke="none" d="
M 80 40
Q 80 23.5 68.15 11.8 56.45 0 40 0 23.45 0 11.75 11.8 0 23.5 0 40 0 56.55 11.75 68.25 23.45 80 40 80 56.45 80 68.15 68.25 80 56.55 80 40
M 66.8 13.15
Q 78.05 24.25 78.05 40 78.05 55.8 66.8 66.9 55.7 78.05 40 78.05 24.2 78.05 13.1 66.9 1.95 55.8 1.95 40 1.95 24.25 13.1 13.15 24.2 1.95 40 1.95 55.7 1.95 66.8 13.15 Z"/>
</g>
</g>
</g>

<g transform="matrix( 1, 0, 0, 1, 0,0) ">
<g>
<g>
<path fill="#FF9900" stroke="none" d="
M 70.1 45.6
Q 68.7 41.65 64.85 39.95 61 38.2 57.05 39.45 55.95 39.95 54.85 40.55
L 30 28.9
Q 29.7 27.8 29.3 26.55 27.9 22.7 23.95 20.8 20.2 19.1 16.15 20.4 13.95 21.3 12.5 22.95
L 22.15 27.4 18.8 34.45 9.25 30
Q 8.95 32.05 9.7 34.35 11.3 38.3 15.05 40.05 18.9 41.95 22.85 40.35 24.05 39.95 25.05 39.4
L 50.05 51.05
Q 50.25 52.2 50.55 53.4 52.1 57.35 55.95 59.15 59.7 60.9 63.65 59.55 65.95 58.65 67.4 57.15
L 57.85 52.5 61.1 45.6 70.8 50.15
Q 71 47.85 70.1 45.6 Z"/>
</g>
</g>
</g>
</g>
</svg>
