
<svg xmlns="http://www.w3.org/2000/svg" version="1.1" xmlns:xlink="http://www.w3.org/1999/xlink" preserveAspectRatio="none" x="0px" y="0px" width="80px" height="80px" viewBox="0 0 80 80">
<defs/>

<g id="Layer_1">
<g transform="matrix( 1, 0, 0, 1, 0,0) ">
<g>
<g>
<path fill="#FFFFFF" stroke="none" d="
M 80 40
Q 80 23.5 68.15 11.8 56.45 0 40 0 23.45 0 11.75 11.8 0 23.5 0 40 0 56.55 11.75 68.25 23.45 80 40 80 56.45 80 68.15 68.25 80 56.55 80 40
M 66.8 13.15
Q 78.05 24.25 78.05 40 78.05 55.8 66.8 66.9 55.7 78.05 40 78.05 24.2 78.05 13.1 66.9 1.95 55.8 1.95 40 1.95 24.25 13.1 13.15 24.2 1.95 40 1.95 55.7 1.95 66.8 13.15 Z"/>
</g>
</g>
</g>

<g transform="matrix( 1, 0, 0, 1, 0,0) ">
<g>
<g>
<path fill="#FFFFFF" stroke="none" d="
M 60.1 23.65
L 52.85 23.65 52.85 20.1 27.2 20.1 27.2 23.65 19.95 23.65
Q 15.9 23.75 15.8 26.7
L 15.8 38.75
Q 20.45 49.1 26.1 47.95 26.6 47.85 27.2 47.65
L 27.25 47.85
Q 32.3 54.35 37.85 54.85
L 37.85 57.7
Q 37.35 60.6 34.5 61
L 30.85 61
Q 26.6 63.05 30.85 66.4
L 49.2 66.4
Q 53.35 63.05 49.2 61
L 45.45 61
Q 42.7 60.6 42.3 57.7
L 42.3 54.85
Q 47.65 54.35 52.75 47.85
L 52.85 47.65
Q 53.45 47.85 53.95 47.95 59.6 49.1 64.25 38.75
L 64.25 26.7
Q 64.15 23.75 60.1 23.65
M 59.3 29.15
L 59.3 37.95
Q 57.3 42.9 52.85 43.8
L 52.85 29.15 59.3 29.15
M 20.85 29.15
L 27.2 29.15 27.2 43.8
Q 22.75 42.9 20.85 37.95
L 20.85 29.15 Z"/>
</g>
</g>
</g>
</g>
</svg>
