
<svg xmlns="http://www.w3.org/2000/svg" version="1.1" xmlns:xlink="http://www.w3.org/1999/xlink" preserveAspectRatio="none" x="0px" y="0px" width="380px" height="150px" viewBox="0 0 380 150">
<defs>
<linearGradient id="Gradient_1" gradientUnits="userSpaceOnUse" x1="199.64999999999998" y1="187.3875" x2="206.75" y2="237.8125" spreadMethod="pad">
<stop  offset="0%" stop-color="#FFECA3"/>

<stop  offset="100%" stop-color="#FFD738"/>
</linearGradient>
</defs>

<g id="Layer_1">
<g transform="matrix( 1.3449554443359375, 0, 0, 1.3449859619140625, -181.45,-195.3) ">
<g>
<g>
<path fill="#FFFFFF" stroke="none" d="
M 227.35 196.75
L 228.65 173.05 177.75 180.1 182.95 252.45 232.55 246.5 232.4 244.65
Q 233.55 245.25 234.9 245.7 238.6 246.9 242.45 246.65 245.7 246.45 248.65 245.25 251.65 243.8 253.3 241.35
L 253.4 241.35 253.65 245.65 268.35 243.8 268.2 241.15
Q 268.5 241.45 268.9 241.7 272.55 244.9 278.25 244.4 282.4 244.25 285.45 242.35 288.5 240.3 289.8 236.15
L 289.9 236.15 290.3 243.05 304.1 241.45 302.35 196.9 285.25 199.4 287.3 225.85
Q 287.55 227.55 286.7 228.35 285.8 229.15 284.25 229.25 282.6 229.4 281.55 228.75 280.75 227.85 280.65 226.1
L 279.2 198.45 265.75 200.45 264.65 182.95 247.55 185.1 249.3 203
Q 247.55 201.65 245.2 201.1 242.8 200.6 240.3 200.75 235.4 201.1 231.7 203.25 227.9 205.25 225.4 208.55 223.15 212.05 221.95 216.35 221.25 219.35 221.15 222.5
L 204.9 225.05 204.75 219.9 220.2 217.65 221.1 201.35 204.45 203.6 204.1 199.25 227.35 196.75
M 244.25 216.95
Q 245.75 216.95 247.05 217.4 248.4 218 249.3 218.8 250.4 219.65 250.9 220.85 251.4 222.1 251.45 223.45 251.45 224.8 250.9 226.1 250.35 227.4 249.2 228.35 248.25 229.55 246.65 230.25 244.95 231 243.45 231 241.9 231 240.55 230.6 239.25 230.1 238.2 229.25 237.3 228.35 236.75 227.15 236.2 226 236.2 224.55 236.2 223.2 236.75 221.9 237.3 220.65 238.35 219.6 239.4 218.45 241.1 217.65 242.7 216.95 244.25 216.95 Z"/>
</g>
</g>

<g transform="matrix( 0.7435150146484375, 0, 0, 0.743499755859375, 134.9,145.2) ">
<path stroke="#3399FF" stroke-width="8" stroke-linejoin="miter" stroke-linecap="butt" stroke-miterlimit="3" fill="none" d="
M 126.07406234741211 37.44982070922853
L 57.6158302307129 46.931971740722645 64.60959854125977 144.24170608520507 131.3193885803223 136.2390396118164 131.11764526367188 133.75081558227538
Q 132.66434402465825 134.55780715942382 134.48003387451172 135.16305084228514 139.4563690185547 136.77703399658202 144.63444747924802 136.4407875061035 149.00555267333982 136.1717903137207 152.97317123413086 134.55780715942382 157.00803756713867 132.60757751464843 159.22721405029301 129.31236190795897
L 159.36170959472656 129.31236190795897 159.69794845581055 135.09580154418944 179.46879348754885 132.60757751464843 179.26705017089841 129.04336471557616
Q 179.67053680419923 129.44686050415038 180.2085189819336 129.7831069946289 185.1176063537598 134.0870620727539 192.78385238647462 133.41456909179686 198.36541748046875 133.21282119750975 202.46753158569334 130.65734786987304 206.56964569091798 127.90012664794921 208.31808776855473 122.31843490600585
L 208.45258331298828 122.31843490600585 208.9905654907227 131.59883804321288 227.55095062255862 129.44686050415038 225.19727859497073 69.5277359008789 202.19854049682618 72.89020080566405 204.9556991577149 108.465079498291
Q 205.29193801879887 110.75155563354491 204.14872589111326 111.82754440307616 202.93826599121098 112.90353317260741 200.85358505249025 113.03803176879882 198.63440856933596 113.23977966308593 197.22220535278325 112.36553878784179 196.14624099731446 111.15505142211913 196.01174545288086 108.80132598876952
L 194.06156005859373 71.61246414184569 175.9719093322754 74.30243606567382 174.49245834350586 50.765181732177695 151.49372024536137 53.65690155029296 153.84739227294926 77.73215026855468
Q 151.49372024536137 75.91641921997069 148.33307495117185 75.17667694091796 145.10518188476567 74.50418395996093 141.74279327392583 74.70593185424804 135.1525115966797 75.17667694091796 130.1761764526367 78.06839675903319 125.06534576416016 80.75836868286132 121.70295715332031 85.19682235717772 118.67680740356445 89.90427322387694 117.0628608703613 95.68771286010741 116.12139205932618 99.7226707458496 115.98689651489258 103.9593765258789
L 94.1313705444336 107.38909072875975 93.92962722778321 100.46241302490233 114.70918884277341 97.43619461059569 115.9196487426758 75.51292343139647 93.5261405944824 78.53914184570311 93.05540618896487 72.68845291137694 124.32562026977541 69.32598800659179 126.07406234741211 37.44982070922853 Z"/>
</g>

<g transform="matrix( 0.7435150146484375, 0, 0, 0.743499755859375, 134.9,145.2) ">
<path stroke="#3399FF" stroke-width="6" stroke-linejoin="miter" stroke-linecap="butt" stroke-miterlimit="3" fill="none" d="
M 150.8212425231934 97.09994812011718
Q 152.63693237304688 97.90693969726561 153.84739227294926 98.98292846679686 155.32684326171875 100.12616653442382 155.99932098388672 101.74014968872069 156.6717987060547 103.42138214111327 156.73904647827146 105.23711318969725 156.73904647827146 107.05284423828124 155.99932098388672 108.80132598876952 155.25959548950198 110.5498077392578 153.7128967285156 111.82754440307616 152.4351890563965 113.44152755737304 150.28326034545898 114.38301773071288 147.99683609008787 115.39175720214843 145.97940292358396 115.39175720214843 143.89472198486328 115.39175720214843 142.0790321350098 114.8537628173828 140.33059005737306 114.18126983642577 138.9183868408203 113.03803176879882 137.70792694091801 111.82754440307616 136.96820144653321 110.21356124877929 136.22847595214841 108.66682739257811 136.22847595214841 106.71659774780272 136.22847595214841 104.90086669921874 136.96820144653321 103.15238494873046 137.70792694091801 101.47115249633788 139.12013015747073 100.05891723632811 140.53233337402344 98.51218338012694 142.81875762939455 97.43619461059569 144.970686340332 96.49470443725585 147.05536727905275 96.49470443725585 149.07280044555665 96.49470443725585 150.8212425231934 97.09994812011718 Z"/>
</g>
</g>

<g transform="matrix( 1.3449554443359375, 0, 0, 1.3449859619140625, -181.45,-195.3) ">
<g>
<g>
<path fill="#B6981F" stroke="none" d="
M 215.7 223.45
Q 215.55 225.55 215.7 227.85 216 233.15 217.85 237.25 219.8 241.35 222.7 244.1 224.8 245.95 227.1 247.15
L 232.55 246.5 231.3 220.85 215.7 223.45
M 219.85 211
Q 217.7 214.2 216.5 218.2
L 220.2 217.65 220.7 210.1
Q 220.2 210.6 219.85 211 Z"/>

<path fill="url(#Gradient_1)" stroke="none" d="
M 227.35 196.75
L 228.65 173.05 177.75 180.1 182.95 252.45 227.1 247.15
Q 224.8 245.95 222.7 244.1 219.8 241.35 217.85 237.25 216 233.15 215.7 227.85 215.55 225.55 215.7 223.45
L 204.9 225.05 204.75 219.9 216.5 218.2
Q 217.7 214.2 219.85 211 220.2 210.6 220.7 210.1
L 221.1 201.35 204.45 203.6 204.1 199.25 227.35 196.75 Z"/>
</g>
</g>
</g>

<g transform="matrix( 1.3449554443359375, 0, 0, 1.3449859619140625, -181.45,-195.3) ">
<g>
<g>
<path fill="#B6981F" stroke="none" d="
M 258.8 234.8
Q 259.2 241.05 262.95 244.1 263.1 244.35 263.35 244.35
L 268.35 243.8 265.85 202 256.75 203.35 258.8 234.8 Z"/>

<path fill="url(#Gradient_1)" stroke="none" d="
M 264.65 182.95
L 247.55 185.1 249.3 203
Q 247.55 201.65 245.2 201.1 242.8 200.6 240.3 200.75 235.4 201.1 231.7 203.25 227.9 205.25 225.4 208.55 223.15 212.05 221.95 216.35 221 220.7 221.25 225.45 221.55 230.75 223.4 234.85 225.35 238.9 228.3 241.6 231.3 244.35 234.9 245.7 238.6 246.9 242.45 246.65 245.7 246.45 248.65 245.25 251.65 243.8 253.3 241.35
L 253.4 241.35 253.65 245.65 263.35 244.35
Q 263.1 244.35 262.95 244.1 259.2 241.05 258.8 234.8
L 256.75 203.35 265.85 202 264.65 182.95
M 244.25 216.95
Q 245.75 216.95 247.05 217.4 248.4 218 249.3 218.8 250.4 219.65 250.9 220.85 251.4 222.1 251.45 223.45 251.45 224.8 250.9 226.1 250.35 227.4 249.2 228.35 248.25 229.55 246.65 230.25 244.95 231 243.45 231 241.9 231 240.55 230.6 239.25 230.1 238.2 229.25 237.3 228.35 236.75 227.15 236.2 226 236.2 224.55 236.2 223.2 236.75 221.9 237.3 220.65 238.35 219.6 239.4 218.45 241.1 217.65 242.7 216.95 244.25 216.95 Z"/>
</g>
</g>
</g>

<g transform="matrix( 1.3449554443359375, 0, 0, 1.3449859619140625, -181.45,-195.3) ">
<g>
<g>
<path fill="#B6981F" stroke="none" d="
M 302.5 201.15
L 296.2 201.95 299 242.05 304.1 241.45 302.5 201.15 Z"/>

<path fill="url(#Gradient_1)" stroke="none" d="
M 296.2 201.95
L 302.5 201.15 302.35 196.9 285.25 199.4 287.3 225.85
Q 287.55 227.55 286.7 228.35 285.8 229.15 284.25 229.25 282.6 229.4 281.55 228.75 280.75 227.85 280.65 226.1
L 279.2 198.45 262.55 200.85 264.65 232.35
Q 264.95 238.65 268.9 241.7 272.55 244.9 278.25 244.4 282.4 244.25 285.45 242.35 288.5 240.3 289.8 236.15
L 289.9 236.15 290.3 243.05 299 242.05 296.2 201.95 Z"/>
</g>
</g>
</g>

<g transform="matrix( 1.3449249267578125, 0, 0, 1.344940185546875, -181.45,-195.3) ">
<g>
<g>
<path fill="#FFFFFF" stroke="none" d="
M 365.9 246.7
L 366.05 246.7 366.05 251.55 375.8 251.15 376.6 219.6 364.4 220.55 364.7 239.25
Q 364.75 240.55 364.1 241.1 363.45 241.6 362.4 241.6 361.1 241.6 360.5 241.05 359.9 240.5 359.95 239.2
L 360.25 219.6 348.45 220.55 348.45 242.8
Q 348.45 247.3 350.9 249.65 353.35 252.05 357.35 252.05 360.35 252.05 362.6 250.85 364.85 249.6 365.9 246.7 Z"/>
</g>
</g>

<g transform="matrix( 0.7435302734375, 0, 0, 0.7435150146484375, 134.9,145.2) ">
<path stroke="#00BFFF" stroke-width="7" stroke-linejoin="miter" stroke-linecap="butt" stroke-miterlimit="3" fill="none" d="
M 310.8597694396973 136.49674377441403
L 310.8597694396973 143.01970367431642 323.97278747558596 142.48172760009766 325.0487274169922 100.04886474609373 308.64064331054686 101.32655792236329 309.0441207885742 126.47693939208983
Q 309.1113670349121 128.2253616333008 308.23716583251957 128.96507873535154 307.36296463012695 129.63754882812498 305.95079345703124 129.63754882812498 304.2023910522461 129.63754882812498 303.3954360961914 128.89783172607423 302.5884811401367 128.15811462402343 302.6557273864746 126.40969238281247
L 303.05920486450196 100.04886474609373 287.18909072875977 101.32655792236329 287.18909072875977 131.25147705078126
Q 287.18909072875977 137.3037078857422 290.4841567993164 140.46431732177734 293.7792228698731 143.69217376708986 299.15892257690433 143.69217376708986 303.19369735717777 143.69217376708986 306.21977844238285 142.07824554443357 309.2458595275879 140.39707031249998 310.6580307006836 136.49674377441403
L 310.8597694396973 136.49674377441403 Z"/>
</g>
</g>

<g transform="matrix( 1.3449249267578125, 0, 0, 1.344940185546875, -181.45,-195.3) ">
<g>
<g>
<path fill="#FFFFFF" stroke="none" d="
M 409.45 247.35
Q 411.7 245.25 413.05 242.2 414.4 239.1 414.4 235.1 414.4 232.15 413.3 229.3 412.2 226.45 410.25 224.2 408.3 221.95 405.65 220.55 403 219.2 399.85 219.2 397.35 219.2 395.85 219.8 394.3 220.45 392.65 221.35
L 393.15 207.55 380.9 208.5 381.2 251.25 389.6 251.25 389.6 248.95
Q 391.45 249.95 393.6 250.75 395.75 251.6 398.15 251.6 401.35 251.6 404.3 250.5 407.25 249.45 409.45 247.35
M 400.65 231.45
Q 401.55 231.9 402.2 232.6 402.85 233.35 403.1 234.3 403.35 235.25 403.2 236.2 403.05 237.15 402.5 238 401.95 238.85 401.05 239.5 400.15 240.15 398.85 240.55 397.6 240.9 396.45 240.8 395.25 240.75 394.35 240.35 393.4 239.9 392.75 239.2 392.15 238.45 391.85 237.5 391.6 236.55 391.75 235.6 391.95 234.65 392.5 233.8 393.05 232.95 393.95 232.3 394.9 231.6 396.15 231.2 397.45 230.85 398.6 230.9 399.7 231 400.65 231.45 Z"/>
</g>
</g>

<g transform="matrix( 0.7435302734375, 0, 0, 0.7435150146484375, 134.9,145.2) ">
<path stroke="#00BFFF" stroke-width="7" stroke-linejoin="miter" stroke-linecap="butt" stroke-miterlimit="3" fill="none" d="
M 374.07124099731453 130.4445129394531
Q 372.25559234619135 134.54658050537108 369.22951126098627 137.3709548950195 366.27067642211915 140.19532928466793 362.3031478881837 141.60751647949218 358.3356193542481 143.08695068359373 354.03185958862304 143.08695068359373 350.8040397644043 143.08695068359373 347.91245117187503 141.9437515258789 345.02086257934565 140.86779937744137 342.5327514648438 139.5228591918945
L 342.5327514648438 142.61622161865233 331.23538208007807 142.61622161865233 330.83190460205077 85.12002868652343 347.307234954834 83.84233551025392 346.63477249145507 102.40251007080076
Q 348.85389862060555 101.19206390380856 350.9385322570801 100.31785278320314 352.95591964721683 99.51088867187497 356.31823196411136 99.51088867187497 360.55474548339845 99.51088867187497 364.11879653930663 101.32655792236329 367.6828475952149 103.20947418212887 370.3054512023926 106.23558959960934 372.92805480957026 109.26170501708981 374.407472229004 113.09478454589845 375.8868896484375 116.92786407470703 375.8868896484375 120.89543762207029 375.8868896484375 126.27519836425779 374.07124099731453 130.4445129394531 Z
M 359.47880554199213 117.5330871582031
Q 358.6046043395997 116.59162902832031 357.39417190551757 115.98640594482418 356.1164932250976 115.38118286132811 354.6370758056641 115.24668884277344 353.0904121398925 115.17944183349607 351.3420097351074 115.65017089843747 349.66085357666014 116.18814697265623 348.3831748962402 117.12960510253907 347.1727424621583 118.0038162231445 346.4330337524414 119.14701538085939 345.69332504272455 120.29021453857422 345.42434005737306 121.56790771484373 345.2226013183594 122.84560089111329 345.55883255004886 124.1232940673828 345.96231002807616 125.40098724365231 346.76926498413087 126.40969238281247 347.6434661865234 127.35115051269531 348.9211448669434 127.95637359619138 350.1315773010254 128.49434967041014 351.7454872131347 128.5615966796875 353.2921508789063 128.6960906982422 354.97330703735355 128.2253616333008 356.72170944213866 127.68738555908203 357.9321418762208 126.81317443847655 359.1425743103027 125.93896331787107 359.88228302001954 124.79576416015624 360.6219917297364 123.6525650024414 360.82373046874994 122.37487182617184 361.0254692077637 121.09717864990233 360.68923797607425 119.81948547363282 360.3530067443848 118.54179229736326 359.47880554199213 117.5330871582031 Z"/>
</g>
</g>

<g transform="matrix( 1.3449249267578125, 0, 0, 1.344940185546875, -181.45,-195.3) ">
<g>
<g>
<path fill="#FFFFFF" stroke="none" d="
M 346.55 203.25
L 329.2 204.05 328.45 225.35 319.4 226.05 321.5 203.65 303.75 205.35 306.05 253.85 321.25 253.55 321.85 239.5 328.25 238.6 327.45 252.05 341.6 250.3 346.55 203.25 Z"/>
</g>
</g>
</g>

<g transform="matrix( 1.3449249267578125, 0, 0, 1.344940185546875, -181.45,-195.3) ">
<g>
<g>
<path fill="#FFFFFF" stroke="none" d="
M 365.9 246.7
L 366.05 246.7 366.05 251.55 375.8 251.15 376.6 219.6 364.4 220.55 364.7 239.25
Q 364.75 240.55 364.1 241.1 363.45 241.6 362.4 241.6 361.1 241.6 360.5 241.05 359.9 240.5 359.95 239.2
L 360.25 219.6 348.45 220.55 348.45 242.8
Q 348.45 247.3 350.9 249.65 353.35 252.05 357.35 252.05 360.35 252.05 362.6 250.85 364.85 249.6 365.9 246.7 Z"/>
</g>
</g>
</g>

<g transform="matrix( 1.3449249267578125, 0, 0, 1.344940185546875, -181.45,-195.3) ">
<g>
<g>
<path fill="#FFFFFF" stroke="none" d="
M 409.45 247.35
Q 411.7 245.25 413.05 242.2 414.4 239.1 414.4 235.1 414.4 232.15 413.3 229.3 412.2 226.45 410.25 224.2 408.3 221.95 405.65 220.55 403 219.2 399.85 219.2 397.35 219.2 395.85 219.8 394.3 220.45 392.65 221.35
L 393.15 207.55 380.9 208.5 381.2 251.25 389.6 251.25 389.6 248.95
Q 391.45 249.95 393.6 250.75 395.75 251.6 398.15 251.6 401.35 251.6 404.3 250.5 407.25 249.45 409.45 247.35
M 400.65 231.45
Q 401.55 231.9 402.2 232.6 402.85 233.35 403.1 234.3 403.35 235.25 403.2 236.2 403.05 237.15 402.5 238 401.95 238.85 401.05 239.5 400.15 240.15 398.85 240.55 397.6 240.9 396.45 240.8 395.25 240.75 394.35 240.35 393.4 239.9 392.75 239.2 392.15 238.45 391.85 237.5 391.6 236.55 391.75 235.6 391.95 234.65 392.5 233.8 393.05 232.95 393.95 232.3 394.9 231.6 396.15 231.2 397.45 230.85 398.6 230.9 399.7 231 400.65 231.45 Z"/>
</g>
</g>
</g>

<g transform="matrix( 1.345001220703125, 0, 0, 1.34503173828125, -181.45,-195.3) ">
<g>
<g>
<path fill="#F16438" stroke="none" d="
M 209.35 154.8
Q 209.6 153 209.1 151.4 208.6 149.8 207.55 148.6 206.45 147.3 204.9 146.65 203.4 146.05 201.7 146.05
L 141 146.05 136.65 181.15
Q 136.45 182.95 136.85 184.45 137.4 186.15 138.5 187.25 139.55 188.55 141.1 189.2 142.6 189.9 144.3 189.9
L 196.55 189.9
Q 200.1 189.9 202.9 187.45 205.65 184.95 206.05 181.5
L 209.35 154.8
M 197.75 156.55
Q 200.1 158 201.7 160.25
L 197.55 163.8
Q 196.55 162 194.85 161 193.2 160.1 191.1 160.1 187.9 160.1 185.45 162.25 182.95 164.7 182.65 167.95 182.4 171.1 184.6 173.45 186.75 175.75 189.95 175.75 192.55 175.75 194.65 174.3 196 173.45 196.55 172.8 197.1 172 197.75 171.6 198.35 171.35 198.95 171.35 200 171.35 200.65 172.15 201.4 172.9 201.3 173.9 201.3 174.3 201.15 174.8 201 175.05 200.65 175.45 199.55 177 197.55 178.35 193.9 180.9 189.75 180.9 184.25 180.9 180.7 177.15 177.2 173.35 177.5 167.95 177.65 167.5 177.75 166.85
L 178.05 164.45
Q 178.3 162.75 177.65 161.3 176.85 159.55 175.2 159.55 172.45 159.55 170.7 163.7 169.65 166.2 169.05 169.6
L 167.95 177.7
Q 167.7 179 166.65 179.85 165.55 180.75 164.25 180.75 162.9 180.75 162.05 179.8 161.35 178.9 161.45 177.55
L 163.35 165.1
Q 164.15 159.7 160.65 159.7 157.75 159.7 156.05 164.35 155.15 166.7 154.5 170.95
L 153.55 177.7
Q 153.3 179 152.25 179.95 151.2 180.75 149.85 180.75 148.55 180.75 147.75 179.95 146.95 179 147.1 177.7
L 149.55 160.4
Q 149.75 158.9 148.15 157.95 146.8 157.1 145.2 157.1
L 145.45 155.6 156.75 155.6 155.9 161.3 155.95 161.3
Q 157.1 158.95 158.8 157.35 161.2 155.05 164.15 155.05 167.3 155.05 168.75 157.2 169.65 158.75 169.65 161
L 169.8 161
Q 171.55 158.25 172.6 157.35 174.85 155.05 178.05 155.05 181.75 155.05 182.9 158 184.65 156.55 186.85 155.75 189.15 154.95 191.5 154.95 194.85 154.95 197.75 156.55 Z"/>

<path fill="#FFFFFF" stroke="none" d="
M 201.7 160.25
Q 200.1 158 197.75 156.55 194.85 154.95 191.5 154.95 189.15 154.95 186.85 155.75 184.65 156.55 182.9 158 181.75 155.05 178.05 155.05 174.85 155.05 172.6 157.35 171.55 158.25 169.8 161
L 169.65 161
Q 169.65 158.75 168.75 157.2 167.3 155.05 164.15 155.05 161.2 155.05 158.8 157.35 157.1 158.95 155.95 161.3
L 155.9 161.3 156.75 155.6 145.45 155.6 145.2 157.1
Q 146.8 157.1 148.15 157.95 149.75 158.9 149.55 160.4
L 147.1 177.7
Q 146.95 179 147.75 179.95 148.55 180.75 149.85 180.75 151.2 180.75 152.25 179.95 153.3 179 153.55 177.7
L 154.5 170.95
Q 155.15 166.7 156.05 164.35 157.75 159.7 160.65 159.7 164.15 159.7 163.35 165.1
L 161.45 177.55
Q 161.35 178.9 162.05 179.8 162.9 180.75 164.25 180.75 165.55 180.75 166.65 179.85 167.7 179 167.95 177.7
L 169.05 169.6
Q 169.65 166.2 170.7 163.7 172.45 159.55 175.2 159.55 176.85 159.55 177.65 161.3 178.3 162.75 178.05 164.45
L 177.75 166.85
Q 177.65 167.5 177.5 167.95 177.2 173.35 180.7 177.15 184.25 180.9 189.75 180.9 193.9 180.9 197.55 178.35 199.55 177 200.65 175.45 201 175.05 201.15 174.8 201.3 174.3 201.3 173.9 201.4 172.9 200.65 172.15 200 171.35 198.95 171.35 198.35 171.35 197.75 171.6 197.1 172 196.55 172.8 196 173.45 194.65 174.3 192.55 175.75 189.95 175.75 186.75 175.75 184.6 173.45 182.4 171.1 182.65 167.95 182.95 164.7 185.45 162.25 187.9 160.1 191.1 160.1 193.2 160.1 194.85 161 196.55 162 197.55 163.8
L 201.7 160.25 Z"/>
</g>
</g>
</g>

<g transform="matrix( 1.3449554443359375, 0, 0, 1.3449859619140625, -181.45,-195.3) ">
<g>
<g>
<path fill="#FFFFFF" stroke="none" d="
M 346.55 203.25
L 329.2 204.05 328.45 225.35 319.4 226.05 321.5 203.65 303.75 205.35 306.05 253.85 321.25 253.55 321.85 239.5 328.25 238.6 327.45 252.05 341.6 250.3 346.55 203.25 Z"/>
</g>
</g>

<g transform="matrix( 0.7435150146484375, 0, 0, 0.743499755859375, 134.9,145.2) ">
<path stroke="#00BFFF" stroke-width="7" stroke-linejoin="miter" stroke-linecap="butt" stroke-miterlimit="3" fill="none" d="
M 261.3093322753906 79.14438552856444
L 284.6443092346192 78.06839675903319 277.9867797851563 141.34998626708983 258.9556602478027 143.70371170043944 260.0316246032715 125.6136505126953 251.4239097595215 126.82413787841796 250.61693649291993 145.72119064331054 230.17361373901372 146.12468643188475 227.08021621704103 80.89286727905272 250.95317535400392 78.60639114379882 248.12876892089844 108.73407669067382 260.30061569213865 107.79258651733397 261.3093322753906 79.14438552856444 Z"/>
</g>
</g>

<g transform="matrix( 1.3449554443359375, 0, 0, 1.3449859619140625, -181.45,-195.3) ">
<g>
<g>
<path fill="#FFFFFF" stroke="none" d="
M 365.9 246.7
L 366.05 246.7 366.05 251.55 375.8 251.15 376.6 219.6 364.4 220.55 364.7 239.25
Q 364.75 240.55 364.1 241.1 363.45 241.6 362.4 241.6 361.1 241.6 360.5 241.05 359.9 240.5 359.95 239.2
L 360.25 219.6 348.45 220.55 348.45 242.8
Q 348.45 247.3 350.9 249.65 353.35 252.05 357.35 252.05 360.35 252.05 362.6 250.85 364.85 249.6 365.9 246.7 Z"/>
</g>
</g>

<g transform="matrix( 0.7435150146484375, 0, 0, 0.743499755859375, 134.9,145.2) ">
<path stroke="#00BFFF" stroke-width="7" stroke-linejoin="miter" stroke-linecap="butt" stroke-miterlimit="3" fill="none" d="
M 310.87094039916997 136.5080368041992
L 310.87094039916997 143.0312187194824 323.98425598144536 142.49322433471679 325.0602203369141 100.05891723632811 308.6517639160156 101.33665390014647 309.0552505493164 126.48789138793944
Q 309.1224983215332 128.23637313842772 308.24827728271487 128.97611541748046 307.37405624389646 129.6486083984375 305.96185302734375 129.6486083984375 304.21341094970705 129.6486083984375 303.4064376831055 128.90886611938475 302.5994644165039 128.16912384033202 302.6667121887207 126.42064208984374
L 303.0701988220215 100.05891723632811 287.1997245788574 101.33665390014647 287.1997245788574 131.26259155273436
Q 287.1997245788574 137.31502838134764 290.49486541748047 140.4757453918457 293.79000625610354 143.70371170043944 299.1698280334473 143.70371170043944 303.2046943664551 143.70371170043944 306.23084411621096 142.08972854614257 309.2569938659668 140.40849609375 310.66919708251953 136.5080368041992
L 310.87094039916997 136.5080368041992 Z"/>
</g>
</g>

<g transform="matrix( 1.3449554443359375, 0, 0, 1.3449859619140625, -181.45,-195.3) ">
<g>
<g>
<path fill="#FFFFFF" stroke="none" d="
M 409.45 247.35
Q 411.7 245.25 413.05 242.2 414.4 239.1 414.4 235.1 414.4 232.15 413.3 229.3 412.2 226.45 410.25 224.2 408.3 221.95 405.65 220.55 403 219.2 399.85 219.2 397.35 219.2 395.85 219.8 394.3 220.45 392.65 221.35
L 393.15 207.55 380.9 208.5 381.2 251.25 389.6 251.25 389.6 248.95
Q 391.45 249.95 393.6 250.75 395.75 251.6 398.15 251.6 401.35 251.6 404.3 250.5 407.25 249.45 409.45 247.35
M 400.65 231.45
Q 401.55 231.9 402.2 232.6 402.85 233.35 403.1 234.3 403.35 235.25 403.2 236.2 403.05 237.15 402.5 238 401.95 238.85 401.05 239.5 400.15 240.15 398.85 240.55 397.6 240.9 396.45 240.8 395.25 240.75 394.35 240.35 393.4 239.9 392.75 239.2 392.15 238.45 391.85 237.5 391.6 236.55 391.75 235.6 391.95 234.65 392.5 233.8 393.05 232.95 393.95 232.3 394.9 231.6 396.15 231.2 397.45 230.85 398.6 230.9 399.7 231 400.65 231.45 Z"/>
</g>
</g>

<g transform="matrix( 0.7435150146484375, 0, 0, 0.743499755859375, 134.9,145.2) ">
<path stroke="#00BFFF" stroke-width="7" stroke-linejoin="miter" stroke-linecap="butt" stroke-miterlimit="3" fill="none" d="
M 374.083846282959 130.45559997558593
Q 372.2681564331055 134.55780715942382 369.24200668334964 137.38227767944335 366.28310470581056 140.20674819946288 362.3154861450195 141.61898345947264 358.3478675842286 143.0984680175781 354.04401016235346 143.0984680175781 350.8161170959473 143.0984680175781 347.9244628906251 141.95522994995116 345.03280868530277 140.8792411804199 342.54464111328133 139.53425521850585
L 342.54464111328133 142.6277229309082 331.2470153808594 142.6277229309082 330.84352874755854 85.12957305908202 347.31923294067377 83.85183639526366 346.6467552185058 102.41264266967772
Q 348.86593170166014 101.20215530395507 350.95061264038094 100.32791442871093 352.96804580688485 99.52092285156249 356.3304344177247 99.52092285156249 360.5670440673828 99.52092285156249 364.131175994873 101.33665390014647 367.69530792236327 103.21963424682616 370.31797103881837 106.2458526611328 372.9406341552735 109.27207107543944 374.42008514404296 113.10528106689452 375.89953613281244 116.9384910583496 375.89953613281244 120.90619964599608 375.89953613281244 126.28614349365233 374.083846282959 130.45559997558593 Z
M 359.4910797119141 117.54373474121093
Q 358.6168586730957 116.60224456787108 357.4063987731933 115.99700088500975 356.12869110107425 115.39175720214843 354.64924011230477 115.25725860595702 353.1025413513184 115.19000930786132 351.3540992736816 115.66075439453124 349.67290496826166 116.19874877929686 348.3951972961426 117.14023895263671 347.1847373962402 118.01447982788085 346.4450119018555 119.1577178955078 345.70528640747074 120.30095596313475 345.4362953186035 121.57869262695311 345.2345520019532 122.85642929077147 345.5707908630372 124.13416595458983 345.97427749633783 125.41190261840819 346.78125076293946 126.42064208984374 347.65547180175776 127.36213226318358 348.93317947387703 127.96737594604491 350.1436393737793 128.50537033081054 351.75758590698246 128.57261962890624 353.30428466796883 128.70711822509764 354.98547897338875 128.23637313842772 356.73392105102533 127.6983787536621 357.9443809509277 126.82413787841796 359.1548408508301 125.94989700317382 359.89456634521486 124.80665893554686 360.6342918395996 123.66342086791991 360.83603515625003 122.38568420410155 361.03777847290047 121.10794754028319 360.7015396118165 119.83021087646483 360.3653007507325 118.55247421264647 359.4910797119141 117.54373474121093 Z"/>
</g>
</g>

<g transform="matrix( 1.3449554443359375, 0, 0, 1.3449859619140625, -181.45,-195.3) ">
<g>
<g>
<path fill="#FFFFFF" stroke="none" d="
M 346.55 203.25
L 329.2 204.05 328.45 225.35 319.4 226.05 321.5 203.65 303.75 205.35 306.05 253.85 321.25 253.55 321.85 239.5 328.25 238.6 327.45 252.05 341.6 250.3 346.55 203.25 Z"/>
</g>
</g>
</g>

<g transform="matrix( 1.3449554443359375, 0, 0, 1.3449859619140625, -181.45,-195.3) ">
<g>
<g>
<path fill="#FFFFFF" stroke="none" d="
M 365.9 246.7
L 366.05 246.7 366.05 251.55 375.8 251.15 376.6 219.6 364.4 220.55 364.7 239.25
Q 364.75 240.55 364.1 241.1 363.45 241.6 362.4 241.6 361.1 241.6 360.5 241.05 359.9 240.5 359.95 239.2
L 360.25 219.6 348.45 220.55 348.45 242.8
Q 348.45 247.3 350.9 249.65 353.35 252.05 357.35 252.05 360.35 252.05 362.6 250.85 364.85 249.6 365.9 246.7 Z"/>
</g>
</g>
</g>

<g transform="matrix( 1.3449554443359375, 0, 0, 1.3449859619140625, -181.45,-195.3) ">
<g>
<g>
<path fill="#FFFFFF" stroke="none" d="
M 409.45 247.35
Q 411.7 245.25 413.05 242.2 414.4 239.1 414.4 235.1 414.4 232.15 413.3 229.3 412.2 226.45 410.25 224.2 408.3 221.95 405.65 220.55 403 219.2 399.85 219.2 397.35 219.2 395.85 219.8 394.3 220.45 392.65 221.35
L 393.15 207.55 380.9 208.5 381.2 251.25 389.6 251.25 389.6 248.95
Q 391.45 249.95 393.6 250.75 395.75 251.6 398.15 251.6 401.35 251.6 404.3 250.5 407.25 249.45 409.45 247.35
M 400.65 231.45
Q 401.55 231.9 402.2 232.6 402.85 233.35 403.1 234.3 403.35 235.25 403.2 236.2 403.05 237.15 402.5 238 401.95 238.85 401.05 239.5 400.15 240.15 398.85 240.55 397.6 240.9 396.45 240.8 395.25 240.75 394.35 240.35 393.4 239.9 392.75 239.2 392.15 238.45 391.85 237.5 391.6 236.55 391.75 235.6 391.95 234.65 392.5 233.8 393.05 232.95 393.95 232.3 394.9 231.6 396.15 231.2 397.45 230.85 398.6 230.9 399.7 231 400.65 231.45 Z"/>
</g>
</g>
</g>
</g>
</svg>
