
<svg xmlns="http://www.w3.org/2000/svg" version="1.1" xmlns:xlink="http://www.w3.org/1999/xlink" preserveAspectRatio="none" x="0px" y="0px" width="165px" height="30px" viewBox="0 0 165 30">
<defs/>

<g id="Layer_1">
<g transform="matrix( 1, 0, 0, 1, 0,0) ">
<g>
<g>
<path fill="#FFFFFF" stroke="none" d="
M 55.9 17.75
L 55.9 16.85 51.35 16.85 51.35 26.6 55.9 26.6 55.9 25.7 52.65 25.7 52.65 22 55.55 22 55.55 21.15 52.65 21.15 52.65 17.75 55.9 17.75
M 62.35 14.2
L 61.3 4.55 59.1 4.55 57.5 9.95
Q 57.35 10.55 57.25 11
L 57.2 11
Q 57.1 10.55 56.95 9.95
L 55.45 4.55 53.2 4.55 52.15 14.2 54.05 14.2
Q 54.1 13.8 54.55 8.65 54.6 8.25 54.6 7.8
L 54.6 7.45 54.7 7.8
Q 54.8 8.25 54.9 8.65 56.4 13.8 56.55 14.2
L 57.7 14.2
Q 57.9 13.7 59.3 8.65 59.45 8.25 59.55 7.8
L 59.65 7.45 59.65 7.85
Q 59.65 8.25 59.7 8.65 60.15 13.85 60.2 14.2
L 62.35 14.2
M 72.15 20.55
Q 72.65 19.7 73.65 19.7 74.3 19.7 74.8 20.05
L 75.1 19.35
Q 74.5 18.85 73.4 18.85 72.1 18.85 71.3 19.85 70.5 20.95 70.5 22.75 70.5 24.6 71.3 25.65 72.1 26.7 73.35 26.7 73.95 26.7 74.45 26.55 74.85 26.45 75.1 26.2
L 74.75 25.45
Q 74.25 25.8 73.6 25.8 72.7 25.8 72.2 24.95 71.75 24.1 71.75 22.75 71.75 21.35 72.15 20.55
M 64.95 24.3
L 64.95 19 63.65 19 63.65 24.25
Q 63.65 26.75 66.35 26.75 68 26.75 69.05 26.15
L 69.05 19 67.8 19 67.8 25.55
Q 67.3 25.85 66.45 25.85 65.7 25.85 65.3 25.4 64.95 25 64.95 24.3
M 62.25 15.5
L 61 15.5 61 19.1
Q 60.4 18.9 59.8 18.9 58.3 18.9 57.4 19.95 56.5 21.05 56.5 22.9 56.5 24.7 57.35 25.65 58.25 26.7 59.85 26.7 61.35 26.7 62.25 26.2
L 62.25 15.5
M 57.75 22.8
Q 57.75 21.4 58.25 20.6 58.85 19.65 60.05 19.65 60.45 19.65 61 19.75
L 61 25.7
Q 60.7 25.9 59.95 25.9 58.8 25.9 58.25 25.05 57.75 24.2 57.75 22.8
M 63.85 8.3
Q 64.9 7.85 65.8 7.85 66.45 7.85 66.8 8.05 67.15 8.3 67.15 8.85
L 67.15 9.2
Q 65.2 9.4 64.2 9.95 62.9 10.6 62.9 11.95 62.9 13.15 63.75 13.75 64.6 14.35 66.25 14.35 68.15 14.35 69.25 13.8
L 69.25 9.25
Q 69.25 7.8 68.4 7.1 67.65 6.5 66.25 6.5 64.75 6.5 63.35 7.05
L 63.85 8.3
M 65 11.9
Q 65 11 65.6 10.65 66.05 10.35 67.15 10.25
L 67.15 13
Q 66.85 13.15 66.35 13.15 65 13.15 65 11.9
M 74.6 8.85
Q 74.6 9.45 74.95 9.95 75.35 10.55 76.35 10.95 76.85 11.15 77.1 11.4 77.3 11.65 77.3 12 77.3 12.35 77.05 12.6 76.75 12.8 76.35 12.8 75.95 12.8 75.6 12.7 75.25 12.6 75 12.4
L 74.45 13.8
Q 74.8 14.05 75.4 14.15 76 14.35 76.65 14.35 78 14.35 78.8 13.65 79.6 13 79.6 11.95 79.6 11.25 79.2 10.75 78.8 10.15 77.75 9.7 77.25 9.5 77.05 9.3 76.75 9.05 76.75 8.65 76.75 8.35 77 8.1 77.2 7.9 77.65 7.9 78 7.9 78.35 8 78.6 8.1 78.8 8.3
L 79.35 7
Q 78.9 6.75 78.4 6.6 77.85 6.5 77.15 6.5 76.05 6.5 75.3 7.15 74.6 7.85 74.6 8.85
M 73.15 7.9
Q 73.6 7.9 73.95 8.05
L 74.35 6.5
Q 71.65 6.35 70.3 7.05
L 70.3 14.2 72.45 14.2 72.45 8
Q 72.75 7.9 73.15 7.9
M 81.05 26.2
L 81.05 21.3
Q 81.05 20 80.25 19.4 79.6 18.85 78.4 18.85 77.7 18.85 77 19.05 76.45 19.2 76.05 19.4
L 76.35 20.15
Q 77.3 19.65 78.2 19.65 79 19.65 79.4 20 79.85 20.35 79.85 21.15
L 79.85 21.65
Q 77.85 21.85 76.85 22.4 75.65 23.1 75.65 24.5 75.65 25.55 76.35 26.1 77.05 26.7 78.5 26.7 80.1 26.7 81.05 26.2
M 76.8 24.45
Q 76.8 23.35 77.65 22.85 78.3 22.45 79.85 22.25
L 79.85 25.75
Q 79.4 26 78.65 26 76.8 26 76.8 24.45
M 100.15 20.1
Q 100.45 20.5 100.45 21.1
L 100.45 26.6 101.7 26.6 101.7 21.1
Q 101.7 20.15 101.15 19.55 100.45 18.85 98.95 18.85 97.3 18.85 96.2 19.4
L 96.2 26.6 97.45 26.6 97.45 19.9
Q 97.75 19.75 98.05 19.75 98.4 19.65 98.85 19.65 99.75 19.65 100.15 20.1
M 89.8 19.95
Q 89.1 21 89.1 22.8 89.1 24.55 89.8 25.6 90.6 26.7 92.1 26.7 93.55 26.7 94.35 25.6 95.05 24.55 95.05 22.8 95.05 21 94.35 19.95 93.55 18.85 92.05 18.85 90.6 18.85 89.8 19.95
M 92.1 19.65
Q 93.05 19.65 93.5 20.65 93.8 21.4 93.8 22.8 93.8 24.15 93.5 24.9 93.05 25.85 92.1 25.85 90.35 25.85 90.35 22.8 90.35 19.65 92.1 19.65
M 87.75 19
L 86.5 19 86.5 26.6 87.75 26.6 87.75 19
M 84 16.85
L 82.75 17.25 82.75 19 81.85 19 81.85 19.75 82.75 19.75 82.75 24.75
Q 82.75 25.5 83.2 26.05 83.7 26.65 84.65 26.65 84.95 26.65 85.35 26.55
L 85.35 25.75
Q 85.1 25.8 84.95 25.8 84.45 25.8 84.2 25.5 84 25.2 84 24.7
L 84 19.75 85.35 19.75 85.35 19 84 19 84 16.85
M 86.65 17.35
Q 86.85 17.5 87.15 17.5 87.45 17.5 87.65 17.35 87.85 17.1 87.85 16.8 87.85 16.55 87.65 16.35 87.45 16.15 87.15 16.15 86.85 16.15 86.65 16.35 86.4 16.55 86.4 16.8 86.4 17.1 86.65 17.35
M 82.65 8.05
Q 83.05 7.85 83.55 7.85 84.7 7.85 84.7 8.95
L 84.7 14.2 86.9 14.2 86.9 8.9
Q 86.9 7.85 86.3 7.25 85.65 6.55 84.3 6.55 83.4 6.55 82.65 6.85
L 82.65 3.15 80.45 3.15 80.45 14.2 82.65 14.2 82.65 8.05
M 100.95 3.15
L 98.8 3.15 98.8 14.2 100.95 14.2 100.95 3.15
M 93.9 9.25
Q 93.9 7.8 93.05 7.1 92.35 6.5 90.9 6.5 89.45 6.5 88.05 7.05
L 88.55 8.3
Q 89.55 7.85 90.5 7.85 91.2 7.85 91.5 8.05 91.85 8.3 91.85 8.85
L 91.85 9.2
Q 89.85 9.4 88.85 9.95 87.6 10.6 87.6 11.95 87.6 13.15 88.45 13.75 89.3 14.35 90.95 14.35 92.9 14.35 93.9 13.8
L 93.9 9.25
M 89.7 11.9
Q 89.7 11 90.25 10.65 90.75 10.35 91.85 10.25
L 91.85 13
Q 91.55 13.15 91.05 13.15 89.7 13.15 89.7 11.9
M 97.35 3.15
L 95.15 3.15 95.15 14.2 97.35 14.2 97.35 3.15
M 106.45 5.9
Q 105.5 7.3 105.5 9.35 105.5 11.45 106.4 12.8 107.45 14.35 109.3 14.35 110.65 14.35 111.45 13.75
L 110.9 12.3
Q 110.65 12.45 110.45 12.55 110.15 12.6 109.8 12.6 108.8 12.6 108.3 11.6 107.85 10.7 107.85 9.35 107.85 7.95 108.25 7.05 108.8 6.05 109.8 6.05 110.5 6.05 110.95 6.3
L 111.45 4.95
Q 110.65 4.4 109.3 4.4 107.5 4.4 106.45 5.9
M 115.95 8.85
L 115.95 9.2
Q 113.95 9.4 112.95 9.95 111.7 10.6 111.7 11.95 111.7 13.15 112.55 13.75 113.35 14.35 115 14.35 116.95 14.35 118 13.8
L 118 9.25
Q 118 7.8 117.15 7.1 116.4 6.5 115 6.5 113.55 6.5 112.15 7.05
L 112.65 8.3
Q 113.65 7.85 114.6 7.85 115.25 7.85 115.55 8.05 115.95 8.3 115.95 8.85
M 114.35 10.65
Q 114.85 10.35 115.95 10.25
L 115.95 13
Q 115.65 13.15 115.15 13.15 113.75 13.15 113.75 11.9 113.75 11 114.35 10.65
M 126.25 7.55
Q 125.35 8.6 125.35 10.4 125.35 12.25 126.3 13.3 127.3 14.35 129 14.35 130.65 14.35 131.75 13.8
L 131.25 12.45
Q 130.45 12.85 129.25 12.85 128.45 12.85 128 12.45 127.55 12.05 127.45 11.2
L 132 10.55
Q 132.05 8.6 131.25 7.55 130.4 6.5 128.75 6.5 127.15 6.5 126.25 7.55
M 127.3 10.1
Q 127.25 8.95 127.65 8.35 128 7.75 128.7 7.75 129.95 7.75 129.95 9.7
L 127.3 10.1
M 125.3 6.6
L 123.25 6.6 122.15 11
Q 122 11.6 121.95 12.15
L 121.9 12.15
Q 121.9 11.6 121.75 11
L 120.65 6.6 118.3 6.6 120.8 14.2 122.9 14.2 125.3 6.6
M 135.05 8
Q 135.55 7.85 135.95 7.85 137.1 7.85 137.1 8.9
L 137.1 14.2 139.3 14.2 139.3 8.9
Q 139.3 7.75 138.6 7.2 137.75 6.5 136 6.5 134.1 6.5 132.8 7.05
L 132.8 14.2 135.05 14.2 135.05 8
M 150.4 6.6
L 148.2 6.6 148.2 14.2 150.4 14.2 150.4 6.6
M 144.85 6.65
Q 144.4 6.55 143.75 6.55 142.25 6.55 141.35 7.6 140.4 8.65 140.4 10.45 140.4 12.35 141.4 13.35 142.4 14.35 144.15 14.35 146 14.35 147.05 13.8
L 147.05 3.15 144.85 3.15 144.85 6.65
M 142.6 10.35
Q 142.6 7.75 144.25 7.75 144.6 7.75 144.85 7.85
L 144.85 12.85
Q 144.7 12.95 144.15 12.95 142.6 12.95 142.6 10.35
M 148.45 3.7
Q 148.1 4 148.1 4.45 148.1 4.9 148.45 5.15 148.8 5.5 149.3 5.5 149.8 5.5 150.1 5.15 150.45 4.9 150.45 4.45 150.45 4 150.1 3.7 149.8 3.4 149.3 3.4 148.8 3.4 148.45 3.7
M 155.25 8
Q 155.5 8.1 155.75 8.3
L 156.25 7
Q 155.8 6.75 155.3 6.6 154.75 6.5 154.1 6.5 152.95 6.5 152.2 7.15 151.55 7.85 151.55 8.85 151.55 9.45 151.85 9.95 152.3 10.55 153.25 10.95 153.75 11.15 154 11.4 154.2 11.65 154.2 12 154.2 12.35 153.95 12.6 153.7 12.8 153.3 12.8 152.85 12.8 152.5 12.7 152.15 12.6 151.95 12.4
L 151.35 13.8
Q 151.75 14.05 152.3 14.15 152.9 14.35 153.6 14.35 154.9 14.35 155.7 13.65 156.45 13 156.45 11.95 156.45 11.25 156.1 10.75 155.7 10.15 154.7 9.7 154.2 9.5 154 9.3 153.7 9.05 153.7 8.65 153.7 8.35 153.9 8.1 154.15 7.9 154.55 7.9 154.9 7.9 155.25 8
M 163.6 8.9
Q 163.6 7.85 163 7.25 162.3 6.55 161 6.55 160.1 6.55 159.35 6.85
L 159.35 3.15 157.1 3.15 157.1 14.2 159.35 14.2 159.35 8.05
Q 159.75 7.85 160.25 7.85 161.4 7.85 161.4 8.95
L 161.4 14.2 163.6 14.2 163.6 8.9 Z"/>
</g>
</g>
</g>

<g transform="matrix( 1, 0, 0, 1, 0,0) ">
<g>
<g>
<path fill="#F16438" stroke="none" d="
M 46.8 2.65
Q 46.05 1.85 45.15 1.45 44.15 1 43.05 1
L 4.3 1 1.5 23.4
Q 1.4 24.5 1.7 25.55 2 26.55 2.7 27.35 3.4 28.15 4.35 28.55 5.35 28.95 6.4 28.95
L 39.8 28.95
Q 42 28.95 43.8 27.4 45.55 25.8 45.85 23.65
L 47.95 6.6
Q 48.1 5.45 47.8 4.45 47.5 3.45 46.8 2.65
M 40.55 7.75
Q 42 8.65 43 10.1
L 40.4 12.3
Q 39.8 11.2 38.65 10.55 37.6 9.95 36.3 9.95 34.25 9.95 32.65 11.4 31.1 12.9 30.9 15 30.8 17.05 32.15 18.5 33.5 20 35.6 20 37.2 20 38.55 19.1 39.35 18.55 39.75 18.1 40.1 17.55 40.55 17.35 40.9 17.15 41.25 17.15 41.9 17.15 42.4 17.65 42.85 18.15 42.8 18.8 42.8 19.1 42.65 19.3 42.6 19.5 42.35 19.8 41.65 20.75 40.35 21.65 38.1 23.25 35.4 23.25 31.95 23.25 29.7 20.8 27.4 18.4 27.65 15 27.7 14.7 27.75 14.3
L 27.9 12.75
Q 28.1 11.7 27.7 10.75 27.2 9.65 26.15 9.65 24.35 9.65 23.25 12.3 22.55 13.9 22.25 16
L 21.5 21.15
Q 21.35 22.05 20.7 22.6 20 23.2 19.15 23.2 18.3 23.2 17.8 22.55 17.25 22 17.4 21.15
L 18.55 13.15
Q 19.1 9.7 16.85 9.7 15.05 9.7 13.9 12.7 13.35 14.2 12.95 16.9
L 12.3 21.2
Q 12.15 22.05 11.5 22.65 10.8 23.2 10 23.2 9.1 23.2 8.6 22.65 8.1 22.05 8.2 21.2
L 9.8 10.2
Q 9.9 9.2 8.85 8.6 8 8.1 6.95 8.1
L 7.1 7.15 14.35 7.15 13.8 10.75 13.85 10.75
Q 14.55 9.3 15.65 8.25 17.2 6.75 19.1 6.75 21.1 6.75 22 8.15 22.6 9.1 22.6 10.6
L 22.7 10.6
Q 23.8 8.85 24.45 8.2 25.9 6.75 27.9 6.75 30.3 6.75 31.05 8.65 32.2 7.7 33.6 7.25 35.05 6.7 36.55 6.7 38.75 6.7 40.55 7.75 Z"/>

<path fill="#FFFFFF" stroke="none" d="
M 43 10.1
Q 42 8.65 40.55 7.75 38.75 6.7 36.55 6.7 35.05 6.7 33.6 7.25 32.2 7.7 31.05 8.65 30.3 6.75 27.9 6.75 25.9 6.75 24.45 8.2 23.8 8.85 22.7 10.6
L 22.6 10.6
Q 22.6 9.1 22 8.15 21.1 6.75 19.1 6.75 17.2 6.75 15.65 8.25 14.55 9.3 13.85 10.75
L 13.8 10.75 14.35 7.15 7.1 7.15 6.95 8.1
Q 8 8.1 8.85 8.6 9.9 9.2 9.8 10.2
L 8.2 21.2
Q 8.1 22.05 8.6 22.65 9.1 23.2 10 23.2 10.8 23.2 11.5 22.65 12.15 22.05 12.3 21.2
L 12.95 16.9
Q 13.35 14.2 13.9 12.7 15.05 9.7 16.85 9.7 19.1 9.7 18.55 13.15
L 17.4 21.15
Q 17.25 22 17.8 22.55 18.3 23.2 19.15 23.2 20 23.2 20.7 22.6 21.35 22.05 21.5 21.15
L 22.25 16
Q 22.55 13.9 23.25 12.3 24.35 9.65 26.15 9.65 27.2 9.65 27.7 10.75 28.1 11.7 27.9 12.75
L 27.75 14.3
Q 27.7 14.7 27.65 15 27.4 18.4 29.7 20.8 31.95 23.25 35.4 23.25 38.1 23.25 40.35 21.65 41.65 20.75 42.35 19.8 42.6 19.5 42.65 19.3 42.8 19.1 42.8 18.8 42.85 18.15 42.4 17.65 41.9 17.15 41.25 17.15 40.9 17.15 40.55 17.35 40.1 17.55 39.75 18.1 39.35 18.55 38.55 19.1 37.2 20 35.6 20 33.5 20 32.15 18.5 30.8 17.05 30.9 15 31.1 12.9 32.65 11.4 34.25 9.95 36.3 9.95 37.6 9.95 38.65 10.55 39.8 11.2 40.4 12.3
L 43 10.1 Z"/>
</g>
</g>
</g>
</g>
</svg>
